<svg xmlns="http://www.w3.org/2000/svg" id="Layer_1" data-name="Layer 1" viewBox="0 0 300 75"><defs><style>.cls-1{fill:#010440;}.cls-2{fill:#f21d1d;}</style></defs><path class="cls-1" d="M106.73,46.91H80l-5,8.58a2.26,2.26,0,0,1-2,1.1,2.44,2.44,0,0,1-2.46-2.41,2.31,2.31,0,0,1,.33-1.2l20-34a3,3,0,0,1,5,0l20,34a2.31,2.31,0,0,1,.33,1.2,2.48,2.48,0,0,1-2.46,2.41,2.19,2.19,0,0,1-2-1.1ZM93.38,24.21,82.28,43h22.15Z"></path><path class="cls-1" d="M114.66,31.05a2.71,2.71,0,0,1-.28-1.15,2.26,2.26,0,0,1,2.24-2.3,2.47,2.47,0,0,1,2.08,1.2l12.09,22.1L143,28.8a2.3,2.3,0,0,1,4.32,1.1,1.9,1.9,0,0,1-.39,1.09L133.36,55a2.83,2.83,0,0,1-5.09,0Z"></path><path class="cls-1" d="M182.26,56.59a2.34,2.34,0,0,1-2.47-2.52V50.19c-2.07,3.83-6.72,6.4-13.12,6.4-9.46,0-16-5.58-16-14.5s6.45-14.49,15.91-14.49c6.13,0,11,2.24,13.18,6.18V30.06a2.49,2.49,0,0,1,5,0v24A2.35,2.35,0,0,1,182.26,56.59Zm-2.47-15c-.27-6.84-6-10.28-12.25-10.28-6.67,0-11.7,3.94-11.7,10.77s5,10.72,11.7,10.72c6.4,0,12.25-3.61,12.25-10.72Z"></path><path class="cls-1" d="M199.1,38.26V54a2.63,2.63,0,0,1-5.25,0V20.38A2.39,2.39,0,0,1,196.42,18h28a1.93,1.93,0,0,1,2.08,2,2,2,0,0,1-2.08,2H199.1v12.3h22.75a2,2,0,0,1,2.08,2,2,2,0,0,1-2.08,2Z"></path><path class="cls-1" d="M233,20.87a3,3,0,0,1,3.06-3.17,3.06,3.06,0,0,1,3.07,3.23A2.92,2.92,0,0,1,236.07,24,3,3,0,0,1,233,20.87Zm.55,9.19A2.37,2.37,0,0,1,236,27.6a2.42,2.42,0,0,1,2.51,2.46v18.6c0,2.79.71,3.66,2.19,3.93a1.92,1.92,0,0,1,1.59,2,2,2,0,0,1-2.14,2c-4.92,0-6.61-2.46-6.61-8.1Z"></path><path class="cls-1" d="M251.17,56.59a2.36,2.36,0,0,1-2.52-2.52v-24a2.52,2.52,0,0,1,5,0v3.56c2.9-4.11,7.5-6,12.36-6,9.74,0,13.13,5.69,13.13,12.42v14a2.49,2.49,0,1,1-5,0V41.49c0-5.3-1.75-10.12-9-10.12-6.07,0-11.27,3.94-11.49,9.52V54.07A2.38,2.38,0,0,1,251.17,56.59Z"></path><rect class="cls-1" x="20.07" y="25.65" width="31.51" height="18.06" rx="2.19" transform="translate(-12.28 47.78) rotate(-59.3)"></rect><rect class="cls-2" x="35.54" y="29.25" width="37.88" height="17.35" rx="2.63" transform="translate(-5.95 65.41) rotate(-59.3)"></rect></svg>