<svg xmlns="http://www.w3.org/2000/svg" xml:space="preserve" id="Слой_1" x="0" y="0" version="1.1" viewBox="1 1.2 178 37.9"><style>.st0{fill:#d73434}</style><path d="M11.6 1.6H15l6.7 17.7H18l-1.5-4.5H10l-1.5 4.5H4.9l6.7-17.7zm4 10.5-2.3-6.9-2.3 6.9h4.6zM21.1 6.9h3.6l3.3 8.9 3.4-8.9h3.4l-5.3 12.4h-3.2L21.1 6.9zM47.6 17.5l-.4.4c-.2.2-.6.5-1 .7-.5.3-1 .5-1.7.7s-1.5.3-2.5.3-1.9-.2-2.7-.5-1.5-.8-2.1-1.4-1-1.3-1.3-2.1c-.3-.8-.5-1.8-.5-2.7s.2-1.8.5-2.6.7-1.5 1.3-2.1 1.2-1 2-1.4c.8-.3 1.6-.5 2.6-.5 1.1 0 2.1.2 2.9.6.8.4 1.4 1 1.9 1.6.5.7.8 1.4 1 2.3.2.9.3 1.7.3 2.6v.6h-9.3c0 .5.1.9.3 1.3.2.4.5.7.8 1s.7.5 1.1.6c.4.1.8.2 1.2.2.6 0 1.1-.1 1.6-.2s.8-.2 1.1-.4.6-.3.8-.5c.2-.2.3-.3.5-.4l1.6 1.9zm-3-5.7c0-.3-.1-.6-.2-1-.1-.3-.3-.6-.5-.9-.2-.3-.5-.5-.9-.6-.4-.2-.8-.2-1.3-.2s-1 .1-1.4.2c-.4.2-.7.4-1 .6-.3.3-.5.5-.6.9-.1.3-.2.6-.2 1h6.1zM50.2 6.9h3l.1 1.4c.2-.2.3-.4.6-.6.2-.2.5-.4.8-.5.3-.2.7-.3 1-.4.3-.1.8-.2 1.3-.2 1.5 0 2.7.5 3.5 1.4s1.2 2.2 1.2 3.8v7.5h-3.1v-7.5c0-.8-.2-1.4-.6-1.8-.4-.4-1-.6-1.7-.6-.4 0-.8.1-1.2.2-.4.2-.7.4-1 .7s-.5.6-.6 1c-.2.4-.2.8-.2 1.3v6.7h-3.1V6.9zM65.8 9.4h-2.1V6.9h2.1v-4h3.1v4h3.3v2.5h-3.3v5.4c0 .7.1 1.3.3 1.6.2.4.6.6 1.1.6s.9-.1 1.2-.2c.3-.1.6-.3.8-.5l1.3 1.9c-.6.5-1.2.9-1.8 1.1-.6.2-1.3.3-2 .3-.8 0-1.4-.1-1.9-.3-.5-.2-1-.5-1.3-.9s-.6-.9-.7-1.5-.2-1.2-.2-1.9l.1-5.6zM75.1 6.9h3.1v7.5c0 .8.2 1.4.6 1.8s1 .6 1.7.6c.4 0 .8-.1 1.2-.2.4-.2.7-.4 1-.7s.5-.6.6-1c.2-.4.2-.8.2-1.3V6.9h3.1v12.4h-3l-.1-1.4c-.2.2-.3.4-.6.6-.2.2-.5.4-.8.5-.3.2-.6.3-1 .4s-.8.2-1.3.2c-1.5 0-2.7-.5-3.5-1.4s-1.2-2.2-1.2-3.8V6.9zM91 15.7c.4.4.9.7 1.5 1 .6.2 1.3.4 2 .4s1.2-.1 1.6-.3c.4-.2.6-.5.6-.9 0-.2 0-.3-.1-.5s-.2-.3-.5-.4c-.2-.1-.6-.3-1-.4-.4-.1-1-.3-1.7-.5-.4-.1-.9-.2-1.3-.4-.5-.2-.9-.4-1.3-.7s-.7-.7-1-1.1c-.3-.4-.4-1-.4-1.5 0-.6.2-1.2.5-1.7s.7-.9 1.2-1.2c.5-.3 1-.6 1.7-.7.6-.2 1.2-.3 1.8-.3 1.1 0 2 .1 2.8.3.8.2 1.5.6 2.1 1L98 10c-.3-.2-.8-.5-1.3-.7-.6-.2-1.2-.3-1.9-.3s-1.3.1-1.5.3c-.3.2-.4.5-.4.8 0 .4.2.7.7.9s1.3.5 2.3.7c.6.1 1.2.3 1.7.5s.9.5 1.3.8.6.7.8 1.1c.2.4.3 1 .3 1.5 0 .6-.1 1.1-.4 1.6s-.7.9-1.1 1.2c-.5.3-1 .6-1.7.8-.6.2-1.3.3-2.1.3-1.2 0-2.2-.2-3.1-.5s-1.7-.8-2.3-1.4l1.7-1.9z" class="st0"/><path d="M116.9 9.9h6.3v7.3c-.7.7-1.6 1.2-2.7 1.7s-2.6.7-4.3.7c-1.4 0-2.7-.2-3.9-.7-1.1-.5-2.1-1.1-2.9-1.9s-1.4-1.8-1.8-2.9-.6-2.3-.6-3.6.2-2.5.7-3.6 1.1-2.1 1.9-3 1.8-1.5 2.9-2 2.3-.7 3.7-.7c.9 0 1.7.1 2.4.3.7.2 1.4.4 2 .7s1.1.7 1.6 1.1.9.9 1.2 1.4l-2.3 2.1c-.6-.8-1.2-1.5-2-2s-1.7-.7-2.8-.7c-.9 0-1.7.2-2.3.5-.7.3-1.3.8-1.8 1.4s-.9 1.3-1.1 2c-.3.8-.4 1.6-.4 2.4 0 1 .2 1.8.5 2.6.3.7.7 1.4 1.3 2 .5.6 1.2 1 1.9 1.3.7.3 1.5.4 2.3.4 1.6 0 2.9-.4 3.8-1.2v-2.7h-3.1l-.5-2.9zM126.4 6.9h3l.1 1.6c.1-.2.3-.4.5-.6.2-.2.5-.4.8-.6s.6-.3 1-.5.9-.2 1.4-.2c.3 0 .6 0 .8.1s.5.1.7.2l-.6 2.9c-.2-.1-.4-.2-.6-.2-.2 0-.5-.1-.8-.1-.4 0-.8.1-1.2.2s-.7.3-1 .6-.5.6-.7 1-.2.8-.2 1.3v6.7h-3.1l-.1-12.4zM136 13c0-.9.2-1.8.5-2.6s.8-1.5 1.4-2.1c.6-.6 1.3-1.1 2.1-1.4s1.7-.5 2.7-.5 1.9.2 2.7.5 1.5.8 2.1 1.4 1 1.3 1.4 2.1c.3.8.5 1.7.5 2.6 0 .9-.2 1.8-.5 2.6s-.8 1.5-1.4 2.1c-.6.6-1.3 1.1-2.1 1.4s-1.7.5-2.7.5-1.9-.2-2.7-.5-1.5-.8-2.1-1.4-1-1.3-1.4-2.1c-.4-.8-.5-1.7-.5-2.6zm6.6 4c.6 0 1.1-.1 1.6-.3.5-.2.8-.6 1.1-.9.3-.4.5-.8.6-1.3s.2-.9.2-1.4c0-.4-.1-.9-.2-1.4-.1-.5-.3-.9-.6-1.3s-.7-.7-1.1-.9c-.5-.2-1-.3-1.6-.3s-1.1.1-1.6.3-.8.6-1.1.9-.5.8-.6 1.3-.2.9-.2 1.4.1.9.2 1.4c.1.5.3.9.6 1.3s.7.7 1.1.9c.5.2 1 .3 1.6.3zM151.7 6.9h3.1v7.5c0 .8.2 1.4.6 1.8.4.4 1 .6 1.7.6.4 0 .8-.1 1.2-.2.4-.2.7-.4 1-.7s.5-.6.6-1c.2-.4.2-.8.2-1.3V6.9h3.1v12.4h-3l-.1-1.4c-.2.2-.3.4-.6.6-.2.2-.5.4-.8.5-.3.2-.6.3-1 .4s-.8.2-1.3.2c-1.5 0-2.7-.5-3.5-1.4s-1.2-2.2-1.2-3.8V6.9zM166.4 6.9h3l.1 1.4c.2-.2.3-.4.6-.6.2-.2.5-.4.9-.5.3-.2.7-.3 1.1-.4.4-.1.9-.2 1.4-.2 1 0 1.8.2 2.5.6s1.3.9 1.7 1.5c.5.6.8 1.3 1 2.1s.3 1.6.3 2.4c0 1-.1 1.8-.4 2.5-.3.7-.6 1.3-1.1 1.8-.7.9-1.5 1.4-2.3 1.8-.9.3-1.7.5-2.6.5-.4 0-.7 0-1-.1-.3 0-.6-.1-.8-.2s-.5-.1-.7-.2-.4-.2-.6-.2v5.5h-3.1V6.9zm3.1 9.3c.6.5 1.5.8 2.8.8.6 0 1.1-.1 1.5-.3s.8-.5 1.1-.9.5-.8.7-1.2c.2-.5.2-.9.2-1.4s-.1-1-.2-1.5-.3-.9-.6-1.2-.6-.6-1-.8-.9-.3-1.5-.3c-.5 0-.9.1-1.3.3-.4.2-.7.5-1 .8s-.5.7-.6 1c-.2.4-.2.7-.2 1.1v3.6h.1z"/><path d="M6.1 12.1 1 14.8h4.1z" class="st0"/><path d="M6.2 36c-.7-.2-1.2-.5-1.5-.9l.4-.8c.4.4.8.6 1.4.9.6.2 1.2.3 1.8.3.9 0 1.5-.2 2-.5.4-.3.7-.7.7-1.3 0-.4-.1-.7-.4-.9-.2-.2-.5-.4-.9-.5-.3-.1-.8-.3-1.4-.4-.7-.2-1.3-.4-1.8-.5-.4-.2-.8-.4-1.1-.8-.3-.4-.5-.8-.5-1.4 0-.5.1-.9.4-1.4.3-.4.7-.7 1.2-1 .5-.2 1.2-.4 2-.4.6 0 1.1.1 1.6.2.5.2 1 .4 1.4.6l-.3.8c-.4-.3-.8-.5-1.3-.6-.5-.1-.9-.2-1.4-.2-.9 0-1.5.2-1.9.5-.4.3-.7.8-.7 1.3 0 .4.1.7.4.9.2.2.5.4.9.5s.8.4 1.4.6c.7.2 1.3.4 1.7.5s.8.4 1.1.8c.3.3.5.8.5 1.4 0 .5-.1.9-.4 1.4-.3.4-.7.7-1.2 1-.6.2-1.2.4-2 .4-.7-.1-1.4-.2-2.1-.5zM14 27.1c-.1-.1-.2-.3-.2-.5s.1-.3.2-.5c.1-.1.3-.2.5-.2s.4.1.5.2c.1.1.2.3.2.5s-.1.4-.2.5c-.1.1-.3.2-.5.2s-.4 0-.5-.2zm0 1.8h1v7.4h-1v-7.4zM23.7 29.7c.5.5.8 1.3.8 2.3v4.3h-1v-4.2c0-.8-.2-1.3-.6-1.8s-.9-.6-1.6-.6c-.8 0-1.4.2-1.9.7-.5.5-.7 1.1-.7 2v3.9h-1v-7.4h1v1.4c.3-.4.6-.8 1.1-1s1-.4 1.7-.4c.9 0 1.7.2 2.2.8zM28.4 35.9c-.6-.3-1-.8-1.4-1.3-.3-.6-.5-1.2-.5-1.9s.2-1.4.5-1.9c.3-.6.8-1 1.4-1.3.6-.3 1.2-.5 2-.5.6 0 1.2.1 1.7.4.5.2.9.6 1.2 1.1l-.7.5c-.2-.4-.6-.6-.9-.8-.4-.2-.8-.3-1.2-.3-.5 0-1 .1-1.4.4-.4.2-.8.6-1 1-.2.4-.4.9-.4 1.5s.1 1.1.4 1.5c.2.4.6.8 1 1s.9.4 1.4.4c.4 0 .8-.1 1.2-.3.4-.2.7-.4.9-.8l.7.5c-.3.5-.7.8-1.2 1.1s-1.1.4-1.7.4c-.8-.2-1.5-.4-2-.7zM41.4 32.9h-6.2c.1.8.4 1.4.9 1.9s1.2.7 2 .7c.5 0 .9-.1 1.3-.2s.7-.4 1-.7l.6.6c-.3.4-.7.7-1.2.9-.5.2-1 .3-1.6.3-.8 0-1.4-.2-2-.5s-1-.8-1.4-1.3c-.3-.6-.5-1.2-.5-1.9s.2-1.4.5-1.9c.3-.6.7-1 1.3-1.3.5-.3 1.2-.5 1.8-.5.7 0 1.3.2 1.8.5s1 .8 1.3 1.3c.3.6.5 1.2.5 1.9l-.1.2zm-5.3-2.5c-.5.5-.8 1-.8 1.8h5.2c-.1-.7-.3-1.3-.8-1.8s-1.1-.7-1.8-.7-1.3.3-1.8.7zM53.2 35.4v.9h-6.9v-.7l4.1-4c.5-.5.9-.9 1-1.3.2-.4.3-.7.3-1.1 0-.6-.2-1-.6-1.4-.4-.3-1-.5-1.7-.5-1.1 0-2 .4-2.7 1.1l-.7-.6c.4-.4.9-.8 1.5-1 .6-.2 1.3-.4 2-.4 1 0 1.8.2 2.4.7.6.5.9 1.1.9 1.9 0 .5-.1 1-.3 1.5-.2.5-.6 1-1.3 1.6l-3.3 3.3h5.3zM56.3 35.8c-.6-.4-1.1-1-1.4-1.7-.3-.8-.5-1.6-.5-2.7 0-1 .2-1.9.5-2.7.3-.8.8-1.3 1.4-1.7.6-.4 1.3-.6 2-.6s1.4.2 2 .6 1.1 1 1.4 1.7.5 1.6.5 2.7c0 1-.2 1.9-.5 2.7-.3.8-.8 1.3-1.4 1.7s-1.3.6-2 .6-1.4-.2-2-.6zm3.5-.8c.4-.3.8-.8 1-1.4.2-.6.4-1.3.4-2.2 0-.9-.1-1.6-.4-2.2-.2-.6-.6-1.1-1-1.4-.4-.3-.9-.5-1.5-.5s-1.1.2-1.5.5c-.4.3-.8.8-1 1.4-.2.6-.4 1.3-.4 2.2 0 .9.1 1.6.4 2.2.2.6.6 1.1 1 1.4.4.3.9.5 1.5.5s1.1-.2 1.5-.5zM65.5 35.8c-.6-.4-1.1-1-1.4-1.7-.3-.8-.5-1.6-.5-2.7 0-1 .2-1.9.5-2.7.3-.8.8-1.3 1.4-1.7.6-.4 1.3-.6 2-.6s1.4.2 2 .6 1.1 1 1.4 1.7.5 1.6.5 2.7c0 1-.2 1.9-.5 2.7-.3.8-.8 1.3-1.4 1.7s-1.3.6-2 .6-1.4-.2-2-.6zm3.6-.8c.4-.3.8-.8 1-1.4.2-.6.4-1.3.4-2.2 0-.9-.1-1.6-.4-2.2-.2-.6-.6-1.1-1-1.4-.4-.3-.9-.5-1.5-.5s-1.1.2-1.5.5c-.4.3-.8.8-1 1.4-.2.6-.4 1.3-.4 2.2 0 .9.1 1.6.4 2.2.2.6.6 1.1 1 1.4.4.3.9.5 1.5.5s1-.2 1.5-.5zM79 27.7c.7.9 1 2.1 1 3.6 0 1.1-.2 2-.6 2.8-.4.8-.9 1.3-1.6 1.7-.7.4-1.5.6-2.4.6-1 0-1.7-.2-2.3-.5l.4-.8c.5.3 1.1.5 1.9.5 1.1 0 1.9-.3 2.5-1 .6-.7.9-1.7.9-3v-.8c-.2.5-.6.9-1.2 1.2-.5.3-1.1.4-1.8.4-.6 0-1.2-.1-1.7-.4-.5-.2-.9-.6-1.2-1-.3-.4-.4-1-.4-1.5 0-.6.1-1.1.4-1.6.3-.5.7-.8 1.2-1.1.5-.2 1.1-.4 1.7-.4 1.5 0 2.5.4 3.2 1.3zm-1.6 3.5c.4-.2.7-.4.9-.8s.3-.7.3-1.1c0-.4-.1-.7-.3-1-.2-.3-.5-.6-.9-.8-.4-.2-.9-.3-1.4-.3-.7 0-1.3.2-1.7.6-.4.4-.7.9-.7 1.5s.2 1.2.7 1.5c.4.4 1 .6 1.8.6.5.1.9 0 1.3-.2zM89.7 35.9c-.2.2-.4.3-.7.4-.3.1-.6.1-.9.1-.7 0-1.2-.2-1.6-.6-.4-.4-.6-.9-.6-1.6v-4.5h-1.3v-.8h1.3v-1.6h1v1.6h2.2v.8h-2.2v4.4c0 .4.1.8.3 1 .2.2.5.3.9.3.2 0 .4 0 .6-.1s.4-.2.5-.3l.5.9zM92.3 35.9c-.6-.3-1-.8-1.3-1.3-.3-.6-.5-1.2-.5-1.9s.2-1.4.5-1.9c.3-.6.8-1 1.3-1.3.6-.3 1.2-.5 1.9-.5s1.3.2 1.9.5c.6.3 1 .8 1.3 1.3.3.6.5 1.2.5 1.9s-.2 1.4-.5 1.9c-.3.6-.8 1-1.3 1.3-.6.3-1.2.5-1.9.5s-1.3-.2-1.9-.5zm3.3-.8c.4-.2.7-.6 1-1 .2-.4.3-.9.3-1.5s-.1-1.1-.3-1.5c-.2-.4-.6-.8-1-1-.4-.2-.9-.4-1.4-.4-.5 0-1 .1-1.4.4-.4.2-.7.6-1 1-.2.4-.4.9-.4 1.5s.1 1.1.4 1.5c.2.4.6.8 1 1 .4.2.9.4 1.4.4.5 0 1-.1 1.4-.4zM106.8 28.9v6.5c0 1.3-.3 2.2-.9 2.8-.6.6-1.5.9-2.8.9-.7 0-1.3-.1-1.9-.3-.6-.2-1.1-.5-1.5-.8l.5-.8c.4.3.8.6 1.3.7.5.2 1 .3 1.6.3.9 0 1.6-.2 2.1-.7s.7-1.1.7-2v-.9c-.3.5-.7.8-1.2 1.1-.5.2-1.1.4-1.7.4-.7 0-1.3-.2-1.9-.5-.6-.3-1-.7-1.3-1.3s-.5-1.2-.5-1.9.2-1.3.5-1.8.8-1 1.3-1.3c.6-.3 1.2-.4 1.9-.4.6 0 1.2.1 1.7.4s.9.6 1.2 1.1V29h.9zm-2.3 5.9c.4-.2.8-.5 1-1s.4-.9.4-1.4c0-.5-.1-1-.4-1.4s-.6-.7-1-1-.9-.3-1.4-.3c-.5 0-1 .1-1.4.3-.4.2-.8.5-1 1-.2.4-.4.9-.4 1.4 0 .5.1 1 .4 1.4.2.4.6.7 1 1s.9.3 1.4.3c.5 0 .9-.1 1.4-.3zM116 32.9h-6.2c.1.8.4 1.4.9 1.9s1.2.7 2 .7c.5 0 .9-.1 1.3-.2s.7-.4 1-.7l.6.6c-.3.4-.7.7-1.2.9-.5.2-1 .3-1.6.3-.8 0-1.4-.2-2-.5s-1-.8-1.4-1.3c-.3-.6-.5-1.2-.5-1.9s.2-1.4.5-1.9c.3-.6.7-1 1.3-1.3.5-.3 1.2-.5 1.8-.5.7 0 1.3.2 1.8.5s1 .8 1.3 1.3c.3.6.5 1.2.5 1.9l-.1.2zm-5.4-2.5c-.5.5-.8 1-.8 1.8h5.2c-.1-.7-.3-1.3-.8-1.8s-1.1-.7-1.8-.7-1.3.3-1.8.7zM121.9 35.9c-.2.2-.4.3-.7.4-.3.1-.6.1-.9.1-.7 0-1.2-.2-1.6-.6-.4-.4-.6-.9-.6-1.6v-4.5h-1.3v-.8h1.3v-1.6h1v1.6h2.2v.8h-2.2v4.4c0 .4.1.8.3 1 .2.2.5.3.9.3.2 0 .4 0 .6-.1s.4-.2.5-.3l.5.9zM129.7 29.7c.5.5.8 1.3.8 2.3v4.3h-1v-4.2c0-.8-.2-1.3-.6-1.8s-.9-.6-1.6-.6c-.8 0-1.4.2-1.9.7-.5.5-.7 1.1-.7 2v3.9h-1V25.9h1v4.3c.3-.4.6-.8 1.1-1 .5-.2 1-.3 1.6-.3 1 0 1.7.2 2.3.8zM139.6 32.9h-6.2c.1.8.4 1.4.9 1.9s1.2.7 2 .7c.5 0 .9-.1 1.3-.2s.7-.4 1-.7l.6.6c-.3.4-.7.7-1.2.9-.5.2-1 .3-1.6.3-.8 0-1.4-.2-2-.5s-1-.8-1.4-1.3c-.3-.6-.5-1.2-.5-1.9s.2-1.4.5-1.9c.3-.6.7-1 1.3-1.3.5-.3 1.2-.5 1.8-.5.7 0 1.3.2 1.8.5s1 .8 1.3 1.3c.3.6.5 1.2.5 1.9l-.1.2zm-5.3-2.5c-.5.5-.8 1-.8 1.8h5.2c-.1-.7-.3-1.3-.8-1.8s-1.1-.7-1.8-.7-1.3.3-1.8.7zM143.7 29.3c.5-.3 1-.4 1.7-.4v1h-.2c-.8 0-1.4.2-1.8.7-.4.5-.7 1.1-.7 2v3.8h-1V29h1v1.4c.2-.5.5-.9 1-1.1z"/></svg>