<svg xmlns="http://www.w3.org/2000/svg" viewBox="0 0 96 24.827"><path fill="#99df2b" d="m5.14 10.486 3.832 1.928 3.833-1.928c2.826-1.632 2.826-4.302 0-5.935L5.139.697C2.313-.935 0 .4 0 3.664v7.71a5.87 5.87 0 0 0 .09 1.04c.446-2.49 2.546-3.374 5.05-1.928z" class="icon-top"/><path fill="#82bfe9" d="m12.805 14.34-3.833-1.927-3.832 1.928c-2.504 1.446-4.604.562-5.05-1.928a5.87 5.87 0 0 0-.09 1.04v7.71c0 3.264 2.313 4.6 5.14 2.967l7.665-3.855c2.827-1.631 2.827-4.302 0-5.934z" class="icon-bottom"/><path fill="#4ea727" d="m5.14 14.34 3.832-1.927-3.833-1.927C2.636 9.04.536 9.924.09 12.413c.447 2.49 2.547 3.374 5.05 1.928z" class="icon-middle"/><path d="M64.617 4.945a.848.848 0 0 0-.847.847v4.567c-.244-.387-.997-1.037-2.727-1.037-2.87 0-4.904 2.258-4.904 5.27 0 3.113 2.157 5.31 5.006 5.31a3.261 3.261 0 0 0 2.707-1.202c0 .057.002.114.004.17a.844.844 0 0 0 .845.809h1.295a.846.846 0 0 0 .848-.885c-.012-.266-.022-.58-.022-.928V5.792a.848.848 0 0 0-.847-.847zM23.35 5.25a.848.848 0 0 0-.848.848v12.73a.848.848 0 0 0 .848.848h4.972c2.727 0 4.518-1.73 4.518-4.09a3.376 3.376 0 0 0-2.565-3.377 3.23 3.23 0 0 0 2.118-3.094c0-2.218-1.65-3.865-4.498-3.865zm2.287 2.664h1.709c1.262 0 1.892.61 1.892 1.547 0 .977-.732 1.567-1.851 1.567h-1.75zm13.45 1.344a5.372 5.372 0 0 0-5.544 5.352 5.372 5.372 0 1 0 10.744 0 5.372 5.372 0 0 0-5.2-5.352zm34.505 0a5.372 5.372 0 0 0-5.545 5.352 5.372 5.372 0 1 0 10.744 0 5.372 5.372 0 0 0-5.2-5.352zm17.906 0c-2.308 0-3.634 1.155-4.168 2.348a.854.854 0 0 0 .606 1.19l1.062.216a.834.834 0 0 0 .916-.438 1.662 1.662 0 0 1 1.565-.894c.977 0 1.484.51 1.484 1.1 0 .346-.183.609-.732.69l-2.381.366c-1.669.244-2.99 1.262-2.99 3.053 0 1.607 1.281 3.072 3.5 3.072a3.192 3.192 0 0 0 2.849-1.424c0 .122.002.233.006.334a.845.845 0 0 0 .848.807h1.09a.846.846 0 0 0 .845-.9c-.013-.204-.021-.431-.021-.668v-4.944c0-2.075-1.202-3.908-4.479-3.908zm-40.17.041a3.314 3.314 0 0 0-2.828 1.424v-.31a.848.848 0 0 0-.848-.848h-1.296a.848.848 0 0 0-.848.847v8.416a.848.848 0 0 0 .848.85h1.398a.848.848 0 0 0 .848-.85v-4.95a1.746 1.746 0 0 1 1.812-1.766 1.56 1.56 0 0 1 1.504 1.746v4.97a.848.848 0 0 0 .848.848h1.398a.848.848 0 0 0 .848-.848v-5.5c0-2.218-1.14-4.029-3.684-4.029zm34.278.162a2.857 2.857 0 0 0-2.602 1.465v-.514a.848.848 0 0 0-.848-.847H80.86a.848.848 0 0 0-.847.847v8.416a.848.848 0 0 0 .847.848h1.399a.848.848 0 0 0 .848-.848v-3.566c0-2.015 1.118-2.748 2.359-2.748h.117a.847.847 0 0 0 .861-.846v-1.4a.806.806 0 0 0-.804-.807h-.01a2.857 2.857 0 0 0-.024 0zM38.914 12.11c1.18 0 2.28.792 2.28 2.502 0 1.71-1.1 2.523-2.28 2.523-1.16 0-2.28-.834-2.28-2.523 0-1.71 1.12-2.502 2.28-2.502zm22.617 0c1.2 0 2.28.813 2.28 2.502 0 1.668-1.08 2.523-2.28 2.523-1.2 0-2.277-.855-2.277-2.523 0-1.69 1.077-2.502 2.277-2.502zm11.887 0c1.18 0 2.28.792 2.28 2.502 0 1.71-1.1 2.523-2.28 2.523-1.16 0-2.28-.834-2.28-2.523 0-1.71 1.12-2.502 2.28-2.502zm-47.781 1.566h2.013c1.262 0 1.995.69 1.995 1.688 0 1.038-.754 1.689-1.995 1.689h-2.013zm67.328 1.588v.447c0 1.567-.938 2.014-1.854 2.014-.854 0-1.199-.508-1.199-1.037 0-.712.488-1.018 1.139-1.12z"/></svg>