<svg xmlns="http://www.w3.org/2000/svg" xml:space="preserve" viewBox="1 4.8 153.9 24.013"><path fill="#324b96" d="M44.6 17c-.7-1.5-2.2-2.4-3.9-2.4-2.5 0-4.4 1.9-4.4 4.5s1.9 4.5 4.4 4.5c1.8 0 3.3-1 3.9-2.4l2.8.8c-1.1 2.6-3.6 4.4-6.7 4.4-4.2 0-7.3-3.1-7.3-7.3s3.1-7.3 7.3-7.3c3.1 0 5.6 1.7 6.7 4.4l-2.8.8zm5.2-4.9h2.8v2c.6-.9 1.9-2.4 4.6-2.4h.4v3.1c-.4-.2-.8-.2-1.2-.2-2.1 0-3.7 1.5-3.7 3.6V26h-2.8V12.1zm11.7 8c.4 2.1 2.2 3.7 4.6 3.7 1.5 0 2.9-.7 3.7-1.7l2.7.8c-1.3 2.1-3.6 3.5-6.4 3.5-4.2 0-7.4-3.1-7.4-7.3s3.1-7.3 7.2-7.3 7.2 3.1 7.2 7.3c0 .3 0 .7-.1 1H61.5zm4.3-5.7c-2.1 0-3.8 1.4-4.3 3.5h8.7c-.5-2.1-2.2-3.5-4.4-3.5zm15.9-2.6c1.7 0 3.4.6 4.6 1.8V6h2.8v20h-2.8v-1.5c-1.2 1.2-2.9 1.8-4.6 1.8-3.9 0-6.8-3.1-6.8-7.3s2.9-7.2 6.8-7.2zm-3.9 7.3c0 2.6 1.9 4.5 4.2 4.5 2.4 0 4.3-1.9 4.3-4.5s-1.9-4.5-4.3-4.5c-2.3 0-4.2 1.9-4.2 4.5zM93.9 6.9c1 0 1.8.8 1.8 1.8s-.8 1.8-1.8 1.8-1.8-.8-1.8-1.8.8-1.8 1.8-1.8zm-1.4 5.2h2.8V26h-2.8V12.1zm4.7 0h2.1V9.4h2.8v2.7h3.7v2.4H102v6.8c0 1.1.8 1.9 1.9 1.9h1.8V26h-2c-2.5 0-4.4-1.8-4.4-4.2v-7.2h-2.1v-2.5zm18.2 3.6c-.3-.9-1.2-1.5-2.7-1.5-1.3 0-2.3.5-2.3 1.5 0 .6.4 1.1 1.3 1.4l3.1 1.1c2.4.9 3.4 2.1 3.4 4 0 2.9-2.4 4.2-5.3 4.2-3.2 0-5.2-1.5-5.6-3.9l2.6-.4c.2 1.1 1.3 1.8 3 1.8 1.4 0 2.6-.6 2.6-1.7 0-.7-.5-1.2-1.7-1.6l-3.1-1c-2.2-.7-3.1-1.9-3.1-3.7 0-2.9 2.3-4.1 5.2-4.1 2.9 0 4.7 1.4 5.1 3.5l-2.5.4zm4.2-3.6h2.1V9.4h2.8v2.7h3.7v2.4h-3.7v6.8c0 1.1.8 1.9 1.9 1.9h1.8V26h-2c-2.5 0-4.4-1.8-4.4-4.2v-7.2h-2.1l-.1-2.5zm16.7-.3c1.7 0 3.4.6 4.6 1.8v-1.5h2.8V26h-2.8v-1.5c-1.2 1.2-2.9 1.8-4.6 1.8-3.9 0-6.8-3.1-6.8-7.3s2.9-7.2 6.8-7.2zm-4 7.3c0 2.6 1.9 4.5 4.2 4.5 2.4 0 4.3-1.9 4.3-4.5s-1.9-4.5-4.3-4.5c-2.3 0-4.2 1.9-4.2 4.5zm14.8-7h2.8v2c.6-.9 1.9-2.4 4.6-2.4h.4v3.1c-.4-.2-.8-.2-1.2-.2-2.1 0-3.7 1.5-3.7 3.6V26h-2.8V12.1z"/><linearGradient id="a" x1="10.166" x2="18.231" y1="7.627" y2="15.691" gradientTransform="matrix(1 0 0 -1 0 36)" gradientUnits="userSpaceOnUse"><stop offset="0" stop-color="#324b96"/><stop offset=".5" stop-color="#3296c8"/><stop offset="1" stop-color="#00e6d2"/></linearGradient><path fill="url(#a)" d="m17.2 20.9-7.9 2.6c1.7 2.2 3.3 4.3 3.3 4.3.7.9 1.8 1.2 2.9.9.8-.2 1.7-1 1.8-2.5l-.1-5.3z"/><linearGradient id="b" x1="6.342" x2="16.95" y1="18.262" y2="28.87" gradientTransform="matrix(1 0 0 -1 0 36)" gradientUnits="userSpaceOnUse"><stop offset="0" stop-color="#324b96"/><stop offset=".5" stop-color="#3296c8"/><stop offset="1" stop-color="#00e6d2"/></linearGradient><path fill="url(#b)" d="M17.2 12.7V7.4c0-1.4-1.2-2.6-2.6-2.6-.9 0-1.7.4-2.2 1.1L9.2 10l8 2.7z"/><path fill="#00e6d2" d="M24 16.8c0-1.2-.8-2.2-1.9-2.5L4.4 8.5c-1.4-.4-2.8.3-3.3 1.7-.2.7-.1 1.6.3 2.2l2 3.3c.4.6.4 1.4 0 2.1l-1.9 3.3c-.8 1.2-.5 2.8.7 3.6.7.5 1.6.6 2.3.3l17.8-5.8c1-.4 1.7-1.3 1.7-2.4z"/></svg>