<?xml version="1.0" encoding="utf-8"?>
<!-- Generator: Adobe Illustrator 24.3.0, SVG Export Plug-In . SVG Version: 6.00 Build 0)  -->
<svg version="1.1" id="Layer_1" xmlns="http://www.w3.org/2000/svg" xmlns:xlink="http://www.w3.org/1999/xlink" x="0px" y="0px"
	 viewBox="0 0 156 34" style="enable-background:new 0 0 156 34;" xml:space="preserve">
<style type="text/css">
	.st0{fill:#324B96;}
	.st1{fill:url(#SVGID_1_);}
	.st2{fill:url(#SVGID_2_);}
	.st3{fill:#00E6D2;}
</style>
<desc>Created with Sketch.</desc>
<g>
	<path class="st0" d="M44.6,17c-0.7-1.5-2.2-2.4-3.9-2.4c-2.5,0-4.4,1.9-4.4,4.5s1.9,4.5,4.4,4.5c1.8,0,3.3-1,3.9-2.4l2.8,0.8
		c-1.1,2.6-3.6,4.4-6.7,4.4c-4.2,0-7.3-3.1-7.3-7.3s3.1-7.3,7.3-7.3c3.1,0,5.6,1.7,6.7,4.4L44.6,17z M49.8,12.1h2.8v2
		c0.6-0.9,1.9-2.4,4.6-2.4h0.4v3.1c-0.4-0.2-0.8-0.2-1.2-0.2c-2.1,0-3.7,1.5-3.7,3.6V26h-2.8V12.1z M61.5,20.1
		c0.4,2.1,2.2,3.7,4.6,3.7c1.5,0,2.9-0.7,3.7-1.7l2.7,0.8c-1.3,2.1-3.6,3.5-6.4,3.5c-4.2,0-7.4-3.1-7.4-7.3s3.1-7.3,7.2-7.3
		c4.1,0,7.2,3.1,7.2,7.3c0,0.3,0,0.7-0.1,1L61.5,20.1z M65.8,14.4c-2.1,0-3.8,1.4-4.3,3.5h8.7C69.7,15.8,68,14.4,65.8,14.4
		L65.8,14.4z M81.7,11.8c1.7,0,3.4,0.6,4.6,1.8V6h2.8v20h-2.8v-1.5c-1.2,1.2-2.9,1.8-4.6,1.8c-3.9,0-6.8-3.1-6.8-7.3
		S77.8,11.8,81.7,11.8L81.7,11.8z M77.8,19.1c0,2.6,1.9,4.5,4.2,4.5c2.4,0,4.3-1.9,4.3-4.5s-1.9-4.5-4.3-4.5
		C79.7,14.6,77.8,16.5,77.8,19.1L77.8,19.1z M93.9,6.9c1,0,1.8,0.8,1.8,1.8c0,1-0.8,1.8-1.8,1.8c-1,0-1.8-0.8-1.8-1.8
		S92.9,6.9,93.9,6.9L93.9,6.9z M92.5,12.1h2.8V26h-2.8V12.1z M97.2,12.1h2.1V9.4h2.8v2.7h3.7v2.4H102v6.8c0,1.1,0.8,1.9,1.9,1.9h1.8
		V26h-2c-2.5,0-4.4-1.8-4.4-4.2v-7.2h-2.1L97.2,12.1z M115.4,15.7c-0.3-0.9-1.2-1.5-2.7-1.5c-1.3,0-2.3,0.5-2.3,1.5
		c0,0.6,0.4,1.1,1.3,1.4l3.1,1.1c2.4,0.9,3.4,2.1,3.4,4c0,2.9-2.4,4.2-5.3,4.2c-3.2,0-5.2-1.5-5.6-3.9l2.6-0.4
		c0.2,1.1,1.3,1.8,3,1.8c1.4,0,2.6-0.6,2.6-1.7c0-0.7-0.5-1.2-1.7-1.6l-3.1-1c-2.2-0.7-3.1-1.9-3.1-3.7c0-2.9,2.3-4.1,5.2-4.1
		c2.9,0,4.7,1.4,5.1,3.5L115.4,15.7z M119.6,12.1h2.1V9.4h2.8v2.7h3.7v2.4h-3.7v6.8c0,1.1,0.8,1.9,1.9,1.9h1.8V26h-2
		c-2.5,0-4.4-1.8-4.4-4.2v-7.2h-2.1L119.6,12.1z M136.3,11.8c1.7,0,3.4,0.6,4.6,1.8v-1.5h2.8V26h-2.8v-1.5c-1.2,1.2-2.9,1.8-4.6,1.8
		c-3.9,0-6.8-3.1-6.8-7.3S132.4,11.8,136.3,11.8L136.3,11.8z M132.3,19.1c0,2.6,1.9,4.5,4.2,4.5c2.4,0,4.3-1.9,4.3-4.5
		s-1.9-4.5-4.3-4.5C134.2,14.6,132.3,16.5,132.3,19.1L132.3,19.1z M147.1,12.1h2.8v2c0.6-0.9,1.9-2.4,4.6-2.4h0.4v3.1
		c-0.4-0.2-0.8-0.2-1.2-0.2c-2.1,0-3.7,1.5-3.7,3.6V26h-2.8V12.1z"/>
	<g>
		
			<linearGradient id="SVGID_1_" gradientUnits="userSpaceOnUse" x1="10.1663" y1="7.6266" x2="18.231" y2="15.6912" gradientTransform="matrix(1 0 0 -1 0 36)">
			<stop  offset="0" style="stop-color:#324B96"/>
			<stop  offset="0.5" style="stop-color:#3296C8"/>
			<stop  offset="1" style="stop-color:#00E6D2"/>
		</linearGradient>
		<path class="st1" d="M17.2,20.9l-7.9,2.6c1.7,2.2,3.3,4.3,3.3,4.3l0,0c0.7,0.9,1.8,1.2,2.9,0.9c0.8-0.2,1.7-1,1.8-2.5L17.2,20.9z"
			/>
		
			<linearGradient id="SVGID_2_" gradientUnits="userSpaceOnUse" x1="6.342" y1="18.262" x2="16.95" y2="28.8701" gradientTransform="matrix(1 0 0 -1 0 36)">
			<stop  offset="0" style="stop-color:#324B96"/>
			<stop  offset="0.5" style="stop-color:#3296C8"/>
			<stop  offset="1" style="stop-color:#00E6D2"/>
		</linearGradient>
		<path class="st2" d="M17.2,12.7l0-5.3c0-1.4-1.2-2.6-2.6-2.6c-0.9,0-1.7,0.4-2.2,1.1l-3.2,4.1L17.2,12.7z"/>
		<path class="st3" d="M24,16.8c0-1.2-0.8-2.2-1.9-2.5L4.4,8.5C3,8.1,1.6,8.8,1.1,10.2c-0.2,0.7-0.1,1.6,0.3,2.2l2,3.3
			c0.4,0.6,0.4,1.4,0,2.1l-1.9,3.3c-0.8,1.2-0.5,2.8,0.7,3.6c0.7,0.5,1.6,0.6,2.3,0.3l17.8-5.8C23.3,18.8,24,17.9,24,16.8z"/>
	</g>
</g>
</svg>
