<svg xmlns="http://www.w3.org/2000/svg" fill="none" viewBox="0 0 197 43.66"><path fill="#D2DE38" d="m37.188 6.237-.765-.765C33.304 2.707 29.362.765 25.007.177 24.008.059 21.184 0 20.83 0H.588c-.353 0-.53.177-.53.53v3.295c0 .353.177.588.53.588h8.12C7.12 5.65 5.648 7.061 4.413 8.708A21.748 21.748 0 0 0 0 21.83v5.296c0 .353.235.588.588.588H3.884c.353 0 .53-.176.53-.588V21.83c.058-9.297 7.354-16.887 16.533-17.417h1.001c4.354 0 8.355 1.648 11.415 4.295l.647.648c.059.059.177.117.236.176.176.06.411 0 .588-.176l2.354-2.354c.235-.176.235-.47 0-.765Z"/><path fill="#2C3043" d="M17.652 36.423c2.472 0 5.414-.53 7.65-1.354.294-.117.412-.294.412-.647V9.415c0-.353-.177-.589-.589-.589H21.89c-.353 0-.588.177-.588.589v7.296a10.913 10.913 0 0 0-4.12-.824c-4.766 0-8.296 3.119-8.296 8.061v4.178c.059 5.708 3.766 8.297 8.767 8.297Zm-4.236-12.534c0-2.883 1.53-4.118 4.295-4.118 1.471 0 2.707.353 3.648 1v11.297c-.882.354-2.295.53-3.589.53-2.707 0-4.354-1.177-4.354-4.413V23.89ZM37.6 36.423c3.236 0 5.707-1 7.708-2.648.294-.236.353-.53.117-.824l-1.53-2.06c-.176-.293-.47-.293-.765-.117-1.412.941-3 1.765-5.354 1.765-2.413 0-4.001-1.177-4.001-3.471v-1.06h11.533c.353 0 .588-.176.588-.53v-3.824c0-5.59-4.06-7.767-8.179-7.767-4.178 0-8.355 2.177-8.355 7.767v5.414c-.06 5.001 3.942 7.355 8.238 7.355Zm-3.884-12.828c0-2.824 1.648-3.883 3.883-3.883 2.119 0 3.884 1.118 3.884 3.883v1h-7.767v-1ZM55.546 36.423c.765 0 1.53-.06 2.177-.118.294-.059.412-.294.412-.588v-2.825c0-.353-.176-.588-.588-.588-.471.059-1 .059-1.471.059-1.707 0-2.53-1-2.53-3.472V9.415c0-.353-.177-.589-.589-.589h-3.236c-.353 0-.589.177-.589.589v19.652c.118 4.649 2.354 7.356 6.414 7.356ZM65.902 35.422V20.477h4.354c.353 0 .589-.177.589-.589v-2.706c0-.353-.236-.589-.589-.589h-4.354v-.882c0-2.178 1.06-3.472 3.06-3.472.647 0 1.236.059 1.706.118.294 0 .471-.177.471-.589V9.12c0-.353-.177-.588-.53-.588-.647-.118-1.412-.177-2.294-.177-3.707 0-6.767 2.413-6.767 7.356v19.711c0 .353.176.589.588.589h3.236c.354 0 .53-.236.53-.589ZM76.905 13.651c1.471 0 2.472-1.118 2.472-2.53 0-1.471-1-2.471-2.472-2.471-1.412 0-2.53 1-2.53 2.471a2.511 2.511 0 0 0 2.53 2.53ZM75.199 16.3c-.353 0-.588.176-.588.529v18.535c0 .353.235.588.588.588h3.295c.353 0 .53-.176.53-.588V16.829c0-.353-.177-.53-.53-.53H75.2ZM91.91 15.887c-2.707 0-5.355.53-7.532 1.471-.294.177-.412.353-.412.706v17.358c0 .354.177.589.589.589h3.236c.353 0 .588-.177.588-.589v-15.18c.883-.236 2.295-.412 3.59-.412 2.765 0 4.413 1.059 4.413 4.648v10.944c0 .354.235.589.588.589h3.295c.353 0 .53-.177.53-.589V24.36c-.118-6.06-3.648-8.473-8.885-8.473ZM121.566 17.3c-2.06-.883-4.766-1.472-7.591-1.472-4.825 0-8.767 2.178-8.767 8.12v3.59c0 5.354 3.707 7.884 8.238 7.884 1.353 0 3.001-.294 4.236-.823.118 3.824-1.235 5.119-4.119 5.119-2 0-3.707-.706-5.119-1.707-.294-.235-.588-.176-.765.177l-1.588 2.354c-.177.353-.177.588.117.765 2.001 1.588 4.296 2.353 7.414 2.353 6.002 0 8.473-3.236 8.473-8.885V17.947c-.117-.295-.235-.53-.529-.648Zm-4.001 13.239c-.707.588-2.295.941-3.766.941-2.295 0-4.178-1-4.178-4.001v-3.59c0-3.294 1.765-4.177 4.413-4.177 1.118 0 2.766.176 3.531.412v10.415ZM137.159 16.123a23.752 23.752 0 0 0-3.884-.295c-2.295 0-4.707.471-6.649 1.471-.294.118-.412.353-.412.648v17.476c0 .352.177.588.589.588h3.295c.353 0 .588-.177.588-.589v-15.18c.706-.295 2.001-.53 3.354-.53 1 0 2.118 0 3.06.176.353.06.588-.117.588-.47v-2.766c-.059-.294-.235-.53-.529-.53ZM147.397 15.77c-5.237 0-8.65 3.059-8.65 7.825v5.12c0 4.707 3.413 7.707 8.65 7.707s8.65-2.941 8.65-7.708v-5.119c.058-4.766-3.354-7.826-8.65-7.826Zm4.237 12.944c0 2.413-1.53 3.707-4.237 3.707-2.766 0-4.237-1.294-4.237-3.707v-5.119c0-2.53 1.471-3.883 4.237-3.883 2.707 0 4.237 1.353 4.237 3.883v5.12ZM175.464 16.24h-3.295c-.353 0-.53.177-.53.53v15.24c-.882.294-2.177.47-3.471.47-2.707 0-4.296-1.118-4.296-4.707V16.77c0-.353-.176-.53-.529-.53h-3.295c-.353 0-.589.177-.589.53v11.062c0 6.06 3.531 8.59 8.709 8.59 2.648 0 5.296-.588 7.473-1.53.294-.117.412-.352.412-.705V16.77c-.059-.353-.236-.53-.589-.53ZM188.174 15.77c-2.471 0-5.414.47-7.708 1.353-.295.117-.412.294-.412.588v24.831c0 .353.176.588.588.588h3.295c.353 0 .589-.176.589-.588v-6.943c1.118.47 2.53.824 4.06.824 4.825 0 8.414-3.12 8.414-8.12v-4.178c-.059-5.767-3.825-8.356-8.826-8.356Zm4.236 12.591c0 2.883-1.588 4.178-4.295 4.178-1.471 0-2.707-.412-3.648-1.06V20.183c.941-.353 2.295-.53 3.589-.53 2.766 0 4.354 1.119 4.354 4.414v4.295Z"/></svg>