<svg xmlns="http://www.w3.org/2000/svg" xml:space="preserve" id="Layer_1" x="0" y="0" version="1.1" viewBox="4 4 328 81.1"><style>.st0{fill:#eb5d26}.st1{fill:#503691}</style><path d="m280.4 61-4.7-9.5c-1-2.1-2.5-3.5-6.4-3.5H264v13h-8.1V25.1h16.4c3.5 0 6.8 1 9.1 2.8 2.7 2.1 4.1 5.1 4.1 8.7 0 3.8-2.1 6.8-4.7 8.5.9.8 1.6 1.9 2.2 3l6.3 12.9h-8.9zM272 40.2c3.3 0 5.3-1.4 5.3-3.7 0-1.8-.6-3.8-4.9-3.8H264v7.4l8 .1zm35.1-15.1h-6.8l-12.1 26.7 4.5 9.2h.1l3.6-8H311l3.6 8h8.8l-16.3-35.9zM300 45.3l3.7-8.2 3.7 8.2H300zM192.9 61l13.5-17.9L177.6 4h10.2l24.3 33.2 4.4 5.9-6.2 8.3L203 61zm45 24.1L214.1 53l5-6.7L248 85.1zM214.1 33l8.5-11.4h10.2l-13.7 18.1z" class="st0"/><path d="M236.3 61V32.8H229l5.4-7.7h21.5v7.7h-11.5V61z" class="st0"/><path d="M17.7 59.3c-4.3 0-7.9-1.5-10.3-4.2C5.2 52.5 4 48.9 4 44.7c0-4.3 1.2-7.9 3.4-10.5 2.4-2.8 6-4.3 10.3-4.3 2.2 0 4.4.5 6.1 1.5v-9.6h8V59h-8v-1c-1.7.8-3.8 1.3-6.1 1.3m.4-22c-4 0-6.1 2.5-6.1 7.3 0 7.2 4.6 7.2 6.1 7.2s6.1 0 6.1-7.2c0-7.3-4.6-7.3-6.1-7.3m17.7-7.1h8v28.7h-8V30.2zm4-3.6c-2.6 0-4.4-1.9-4.4-4.6s1.9-4.6 4.4-4.6c2.6 0 4.4 1.9 4.4 4.6.1 2.7-1.8 4.6-4.4 4.6m86 3.6h8v28.7h-8V30.2zm4-3.6c-2.6 0-4.4-1.9-4.4-4.6s1.9-4.6 4.4-4.6c2.6 0 4.4 1.9 4.4 4.6s-1.9 4.6-4.4 4.6M66.4 58.9v-17c0-3.1-.7-4.6-5-4.6-1.3 0-5.7.4-5.7 5v16.6h-8V30.2h8v1.2c1.8-1 4-1.6 6.3-1.6 7.6 0 12.4 4.4 12.4 11.4v17.7h-8zm24.8.4c-4.6 0-8.4-1.5-10.9-4.2-2.3-2.5-3.5-6.1-3.5-10.3 0-4.3 1.3-8 3.7-10.6 2.6-2.8 6.2-4.3 10.5-4.3 8.7 0 14.1 5.7 14.1 14.9 0 .7 0 1.3-.1 2.1l-.2 1.4H85.3c.9 2.4 2.8 3.6 5.9 3.6 2.2 0 4-.8 5.8-2.4l1.1-1.1 5.5 5.5-1.1 1.1c-3.1 2.8-6.9 4.3-11.3 4.3m5.4-18.4c-.9-2.4-2.7-3.6-5.5-3.6s-4.6 1.2-5.6 3.6h11.1zm11.1 18V30.2h8v1.6c1.8-1.2 3.9-1.9 6.3-1.9h2.7v8h-3.2c-3.8 0-5.8 2.3-5.8 6.7v14.2l-8 .1zm40 .4c-5.8 0-9.3-3.8-9.3-9.9V37.5h-2.9v-7.3h2.9v-3.6l8-4.3v7.9h7.8v7.3h-7.8v11.9c0 2.4 1.1 2.4 1.6 2.4 1 0 1.8-.2 3.3-1.5l1.1-1 5.5 5.5-1.5 1.1c-3.1 2.4-5.7 3.4-8.7 3.4" class="st1"/><path d="M170.5 59.3c-4.5 0-8.1-1.5-10.6-4.3-2.3-2.6-3.5-6.2-3.5-10.5 0-4.2 1.2-7.9 3.5-10.5 2.5-2.8 6.1-4.3 10.6-4.3 8.7 0 14.2 5.6 14.2 14.7 0 4.2-1.2 7.8-3.6 10.4-2.5 3-6.2 4.5-10.6 4.5m0-22c-2.1 0-3.7.6-4.7 1.9-1 1.2-1.5 3.1-1.5 5.3 0 6 3.4 7.3 6.2 7.3 5.1 0 6.2-4 6.2-7.3s-1.1-7.2-6.2-7.2" class="st1"/><path d="M327.7 52.1c2.4 0 4.3 1.9 4.3 4.2 0 2.4-1.9 4.3-4.3 4.3s-4.4-1.9-4.4-4.3c.1-2.3 2-4.2 4.4-4.2zm0 .8c-1.9 0-3.3 1.5-3.3 3.4s1.4 3.4 3.3 3.4 3.2-1.5 3.2-3.4c.1-1.8-1.3-3.4-3.2-3.4zm-.7 5.6h-1v-4.2c.4-.1.9-.2 1.6-.2.8 0 1.2.1 1.5.3.2.2.4.5.4.9 0 .5-.4.9-.9 1v.1c.4.1.6.5.8 1 .1.6.2.9.3 1h-1.1c-.1-.2-.2-.5-.3-1-.1-.5-.3-.7-.9-.7h-.4v1.8zm.1-2.4h.5c.5 0 1-.2 1-.6 0-.4-.3-.6-.9-.6-.3 0-.4 0-.5.1v1.1h-.1z" class="st0"/><path d="M187.8 52.1c2.4 0 4.3 1.9 4.3 4.2 0 2.4-1.9 4.3-4.3 4.3s-4.4-1.9-4.4-4.3c0-2.3 2-4.2 4.4-4.2zm0 .8c-1.9 0-3.3 1.5-3.3 3.4s1.4 3.4 3.3 3.4 3.2-1.5 3.2-3.4c0-1.8-1.3-3.4-3.2-3.4zm-.7 5.6h-1v-4.2c.4-.1.9-.2 1.6-.2.8 0 1.2.1 1.5.3.2.2.4.5.4.9 0 .5-.4.9-.9 1v.1c.4.1.6.5.8 1 .1.6.2.9.3 1h-1.1c-.1-.2-.2-.5-.3-1s-.3-.7-.9-.7h-.5l.1 1.8zm0-2.4h.5c.5 0 1-.2 1-.6 0-.4-.3-.6-.9-.6-.3 0-.4 0-.5.1v1.1h-.1z" class="st1"/></svg>