<svg xmlns="http://www.w3.org/2000/svg" fill="none" viewBox="0 -0.001 175 31.326"><g fill="#002E22" clip-path="url(#a)"><path d="M22.485 9.3h-1.543v-.18c0-2.7-.035-4.77-1.193-6-.737-.737-1.824-1.158-4.034-1.158h-8.91v9.158h4.42c2.7 0 3.192-.877 3.192-4.525v-.351h1.368V17.82h-1.368v-.456c0-3.543-.491-4.736-3.192-4.736h-4.42v10.1h8.77a6.243 6.243 0 0 0 3.613-.737c1.719-1.158 1.754-3.473 1.754-7.086v-.175h1.543v9.506H0v-1.505h2.876a1.61 1.61 0 0 0 1.224-.35c.246-.247.246-.562.246-1.3V3.612c0-.737 0-1.052-.246-1.3a1.607 1.607 0 0 0-1.228-.351H0V.456h22.485V9.3ZM29.081 3.543c0-.737 0-1.053-.246-1.3a1.6 1.6 0 0 0-1.228-.35h-2.28V.455h6v20.7c0 .737 0 1.052.245 1.3a1.601 1.601 0 0 0 1.228.344h2.28v1.438h-9.753V22.8h2.28a1.601 1.601 0 0 0 1.228-.35c.246-.247.246-.562.246-1.3V3.542ZM39.464 15.82c.105 5.192 2.07 7.472 5.717 7.472 3.4 0 5.016-1.86 5.753-4.49h1.894c-.947 3.543-3.367 6-7.752 6-4.946 0-8.1-3.122-8.1-8.875 0-5.437 3.087-8.944 8.278-8.944 5.613 0 7.612 4.244 7.612 8.734v.105l-13.402-.002Zm10.91-1.438c-.1-3.93-1.93-6.034-5.123-6.034-3.683 0-5.437 2.456-5.717 6.034h10.84ZM64.685 7.4h8.068v1.44h-.175a2.193 2.193 0 0 0-2.526 1.754L64.16 24.52H62.44L56.758 10.7c-.558-1.3-.772-1.86-2.458-1.86h-.35V7.4h9.014v1.44h-2.909a1.341 1.341 0 0 0-.842.175.732.732 0 0 0-.316.667 5.84 5.84 0 0 0 .6 1.929l3.262 8.068c.245.666.631 1.473.912 2.28h.03c.28-.737.6-1.368.981-2.315l3.227-8a6.48 6.48 0 0 0 .6-1.964.823.823 0 0 0-.176-.562 1.326 1.326 0 0 0-.947-.28h-2.7V7.4ZM78.05 10.488c0-.736 0-1.052-.245-1.3a1.611 1.611 0 0 0-1.228-.35H74.3V7.4h6v13.752c0 .737 0 1.052.246 1.3a1.6 1.6 0 0 0 1.228.351h2.28v1.438H74.3v-1.44h2.28a1.605 1.605 0 0 0 1.228-.352c.245-.246.245-.56.245-1.3l-.003-10.66ZM79.068 0a1.68 1.68 0 0 1 1.719 1.72 1.678 1.678 0 0 1-1.72 1.718A1.658 1.658 0 0 1 77.35 1.72 1.658 1.658 0 0 1 79.068 0ZM100.676 12.628c0-2.49-1.088-3.93-3.894-3.93a5.234 5.234 0 0 0-5.367 5.368v7.086c0 .737 0 1.052.246 1.3a1.599 1.599 0 0 0 1.228.35h2.28v1.439h-9.752V22.8H87.7a1.605 1.605 0 0 0 1.228-.351c.245-.246.245-.561.245-1.3V10.488c0-.736 0-1.052-.245-1.3A1.61 1.61 0 0 0 87.7 8.84h-2.28V7.4h5.928V10h.105a7.13 7.13 0 0 1 6.139-3.016c3.683 0 5.332 2 5.332 5.33v8.84c0 .738 0 1.053.246 1.3a1.595 1.595 0 0 0 1.227.352h2.21v1.438h-9.685V22.8H99.2a1.6 1.6 0 0 0 1.227-.351c.246-.246.246-.561.246-1.3l.003-8.521ZM121.653 8.875a5.167 5.167 0 0 1 4.034-2 3.433 3.433 0 0 1 2.35.737 2.502 2.502 0 0 1 .842 1.964 1.758 1.758 0 0 1-.513 1.381 1.767 1.767 0 0 1-1.381.514 1.547 1.547 0 0 1-1.596-.935 1.532 1.532 0 0 1-.123-.644 1.51 1.51 0 0 1 1.368-1.508v-.036a1.85 1.85 0 0 0-1.087-.28 4.334 4.334 0 0 0-3.087 1.543 6.27 6.27 0 0 1 1.087 3.578c0 3.368-1.859 6.244-6.945 6.244a7.961 7.961 0 0 1-3.929-.842 1.87 1.87 0 0 0-1.614 1.719c0 .947.421 1.719 3.613 1.719h6c2.946 0 5.788.491 5.788 3.508 0 3.4-3.157 5.788-9.647 5.788-6 0-8.559-1.719-8.559-4.069 0-1.649 1.508-2.736 3.578-3.157v-.141c-1.579-.28-3.087-1.017-3.087-2.771 0-1.789 1.368-2.6 3.087-3.052a5.733 5.733 0 0 1-2.245-4.946c0-4.139 3.192-6.208 7.016-6.208a6.9 6.9 0 0 1 5.05 1.894Zm-7.822 15.189a2.889 2.889 0 0 0-2.763 1.695 2.88 2.88 0 0 0-.254 1.111c0 1.964 2.069 3.192 6.244 3.192 4.595 0 7.156-1.158 7.156-3.683 0-1.965-1.684-2.315-4.561-2.315h-5.822Zm7.155-10.91c0-3.332-1.578-4.981-4.384-4.981-2.912 0-4.455 1.649-4.455 4.981 0 3.368 1.543 5.122 4.455 5.122 2.806 0 4.384-1.754 4.384-5.122ZM138.85 6.691a2.5 2.5 0 0 0 2.294-1.164l.091 1h.607V3.432h-2.893v.682h2.162v.074a1.928 1.928 0 0 1-.675 1.378 1.926 1.926 0 0 1-1.47.443 2.231 2.231 0 0 1-2.327-2.427 2.215 2.215 0 0 1 .6-1.753 2.23 2.23 0 0 1 1.719-.69 1.888 1.888 0 0 1 2 1.3l.823-.134A2.619 2.619 0 0 0 139 .456a2.953 2.953 0 0 0-3.192 3.117 2.913 2.913 0 0 0 1.837 2.92c.383.15.794.218 1.205.198ZM149.124 6.524h.956l-1.613-2.535a1.616 1.616 0 0 0 1.405-1.629c0-.84-.441-1.738-2.02-1.738h-2.876v5.9h.814V4.1h1.78l1.554 2.424ZM145.79 1.3h1.954c.964 0 1.272.49 1.272 1.047 0 .557-.308 1.073-1.28 1.073h-1.946V1.3ZM155.483 6.69a2.968 2.968 0 0 0 3.2-3.117 3.2 3.2 0 0 0-6.392 0 2.965 2.965 0 0 0 .892 2.28 2.972 2.972 0 0 0 2.3.838Zm0-.681a2.234 2.234 0 0 1-2.336-2.436 2.349 2.349 0 0 1 .654-1.707 2.336 2.336 0 0 1 3.866.787c.112.293.164.606.153.92a2.236 2.236 0 0 1-1.4 2.282c-.298.118-.617.17-.937.154ZM161.424.622v3.566a2.719 2.719 0 0 0 5.419 0V.622h-.823v3.525a1.892 1.892 0 0 1-3.782 0V.622h-.814ZM172.922.622h-2.81v5.9h.815v-2.3h1.912c1.313 0 2.161-.707 2.161-1.812 0-1.089-.807-1.788-2.078-1.788Zm-.116 2.918h-1.879V1.3h1.887c.814 0 1.33.424 1.33 1.106 0 .702-.515 1.134-1.338 1.134Z"/></g><defs><clipPath id="a"><path fill="#fff" d="M0 0h175v31.325H0z"/></clipPath></defs></svg>