<svg width="156" height="40" viewBox="0 0 190 40" fill="none" xmlns="http://www.w3.org/2000/svg">
  <path fill-rule="evenodd" clip-rule="evenodd" d="M83.6721 17.5412C83.8108 16.7529 84.0196 16.0203 84.2997 15.3433C84.8545 14.0033 85.6707 12.9586 86.7499 12.2103C87.8283 11.4622 89.1842 11.0881 90.8181 11.0881C92.4203 11.0881 93.7379 11.4315 94.7707 12.1168C95.8028 12.8028 96.5807 13.7614 97.1053 14.9927C97.4276 15.7506 97.6498 16.6007 97.7737 17.5412H83.6721ZM97.5446 8.37591C95.772 7.19155 93.5297 6.59881 90.8181 6.59881C88.7529 6.59881 86.95 6.96558 85.4092 7.69776C83.8678 8.43061 82.5892 9.41253 81.5723 10.6437C80.5553 11.8758 79.7922 13.2624 79.2838 14.8055C78.7754 16.3487 78.5212 17.9467 78.5212 19.5987V20.4405C78.5212 22.0616 78.7754 23.6436 79.2838 25.1867C79.7922 26.73 80.5553 28.1174 81.5723 29.3486C82.5892 30.5805 83.8908 31.5696 85.4786 32.3179C87.0655 33.066 88.9378 33.4402 91.0956 33.4402C93.0984 33.4402 94.8784 33.1048 96.4349 32.4347C97.9907 31.7647 99.2853 30.7908 100.318 29.5121C101.35 28.2342 102.052 26.7378 102.422 25.023H97.5676C97.2901 26.0832 96.5887 27.0032 95.4641 27.782C94.3387 28.5615 92.8826 28.9509 91.0956 28.9509C89.3387 28.9509 87.8977 28.5696 86.7729 27.8054C85.6477 27.0418 84.8155 25.9816 84.2767 24.6256C83.8578 23.5728 83.6038 22.4109 83.5103 21.142H102.838V19.0376C102.838 16.8866 102.398 14.8685 101.52 12.982C100.642 11.0959 99.3163 9.56094 97.5446 8.37591ZM75.1677 7.44062H69.7127L59.5421 19.7944V0H54.3183V32.5984H59.5421V20.8613H62.5935L71.5618 32.5984H77.5254L66.2958 18.1848L75.1677 7.44062ZM46.7837 20.0664C45.1499 18.8199 42.9466 18.0554 40.1729 17.775L37.6765 17.4945C36.2585 17.3387 35.2414 17.0036 34.6253 16.4891C34.0085 15.9748 33.7007 15.2814 33.7007 14.408C33.7007 13.4108 34.1169 12.5845 34.9489 11.9299C35.7811 11.275 36.9983 10.9477 38.6011 10.9477C40.2341 10.9477 41.4743 11.2912 42.3225 11.9765C43.1698 12.6627 43.6089 13.4729 43.6401 14.408H48.4477C48.3859 11.883 47.4539 9.96581 45.651 8.65636C43.848 7.34714 41.4976 6.6923 38.6011 6.6923C36.6898 6.6923 35.0103 7.00458 33.5621 7.62759C32.1131 8.25149 30.9733 9.14015 30.1411 10.2931C29.3088 11.4468 28.8928 12.8497 28.8928 14.5017C28.8928 16.622 29.6399 18.2976 31.1351 19.5285C32.6295 20.7604 34.6404 21.5159 37.1678 21.7966L39.6643 22.0302C41.3589 22.2174 42.5767 22.5842 43.3163 23.1294C44.0561 23.675 44.4258 24.4312 44.4258 25.3972C44.4258 26.4574 43.9327 27.3377 42.9466 28.0392C41.9599 28.7407 40.5579 29.0913 38.7396 29.0913C36.7057 29.0913 35.2414 28.694 34.3478 27.8988C33.4535 27.1039 32.9611 26.239 32.8684 25.3037H28.1069C28.1683 27.8287 29.124 29.8008 30.9733 31.219C32.8223 32.6372 35.4112 33.3467 38.7396 33.3467C40.8041 33.3467 42.6301 33.0111 44.2179 32.3413C45.8048 31.6712 47.0379 30.728 47.9162 29.5121C48.7946 28.2963 49.2338 26.8936 49.2338 25.3037C49.2338 23.059 48.4169 21.3135 46.7837 20.0664ZM114.395 0.0522345H109.448V7.44062H105.287V11.3685H109.448V23.7138C109.448 26.0211 109.81 27.8448 110.534 29.1848C111.258 30.5256 112.321 31.4761 113.724 32.0373C115.126 32.5984 116.845 32.8791 118.879 32.8791H122.577V28.2963H118.417C117.122 28.2963 116.128 27.9383 115.435 27.2209C114.741 26.504 114.395 25.4907 114.395 24.1815V11.3685H122.577V7.44062H114.395V0.0522345ZM156 11.3685V7.44062H147.818V0.0522345H142.871V7.44062H138.71V11.3685H142.871V23.7138C142.871 26.0211 143.233 27.8448 143.957 29.1848C144.681 30.5256 145.744 31.4761 147.147 32.0373C148.549 32.5984 150.268 32.8791 152.302 32.8791H156V28.2963H151.84C150.545 28.2963 149.551 27.9383 148.858 27.2209C148.164 26.504 147.818 25.4907 147.818 24.1815V11.3685H156ZM126.044 11.5089H129.742V32.5984H134.966V7.44062H126.044V11.5089ZM36.3793 3.80819H41.2902V0.0434914H36.3793V3.80819ZM129.966 3.80819H134.877V0.0434914H129.966V3.80819ZM5.15113 17.5412C5.28965 16.7529 5.49865 16.0203 5.77879 15.3433C6.33353 14.0033 7.14957 12.9586 8.22891 12.2103C9.30714 11.4622 10.6631 11.0881 12.2972 11.0881C13.8993 11.0881 15.2167 11.4315 16.2497 12.1168C17.2818 12.8028 18.0598 13.7614 18.5841 14.9927C18.9064 15.7506 19.1287 16.6007 19.2528 17.5412H5.15113ZM19.0234 8.37591C17.2508 7.19155 15.0088 6.59881 12.2972 6.59881C10.2318 6.59881 8.42882 6.96558 6.88827 7.69776C5.34683 8.43061 4.06802 9.41253 3.05118 10.6437C2.03412 11.8758 1.27127 13.2624 0.762851 14.8055C0.254432 16.3487 0 17.9467 0 19.5987V20.4405C0 22.0616 0.254432 23.6436 0.762851 25.1867C1.27127 26.73 2.03412 28.1174 3.05118 29.3486C4.06802 30.5805 5.36988 31.5696 6.95742 32.3179C8.54451 33.066 10.4166 33.4402 12.5744 33.4402C14.5775 33.4402 16.3572 33.1048 17.9139 32.4347C19.4698 31.7647 20.7641 30.7908 21.7971 29.5121C22.8292 28.2342 23.5307 26.7378 23.9006 25.023H19.0465C18.7692 26.0832 18.0677 27.0032 16.943 27.782C15.8175 28.5615 14.3616 28.9509 12.5744 28.9509C10.8178 28.9509 9.37651 28.5696 8.25196 27.8054C7.12652 27.0418 6.29452 25.9816 5.75552 24.6256C5.33663 23.5728 5.08265 22.4109 4.98912 21.142H24.3168V19.0376C24.3168 16.8866 23.8776 14.8685 22.999 12.982C22.1207 11.0959 20.7953 9.56094 19.0234 8.37591ZM36.3793 40H41.2902V36.3537H36.3793V40Z" fill="rgb(11, 5, 43)"/>
</svg>
