<svg xmlns="http://www.w3.org/2000/svg" fill="none" viewBox="0 0 156 40"><path fill="#0B052B" fill-rule="evenodd" d="M83.672 17.541c.139-.788.348-1.52.628-2.198.555-1.34 1.37-2.384 2.45-3.133 1.078-.748 2.434-1.122 4.068-1.122 1.602 0 2.92.344 3.953 1.029 1.032.686 1.81 1.644 2.334 2.876.323.758.545 1.608.669 2.548H83.672Zm13.873-9.165c-1.773-1.184-4.015-1.777-6.727-1.777-2.065 0-3.868.367-5.409 1.099-1.541.733-2.82 1.715-3.837 2.946a12.738 12.738 0 0 0-2.288 4.162 15.221 15.221 0 0 0-.763 4.793v.841c0 1.622.254 3.204.763 4.747a12.727 12.727 0 0 0 2.288 4.162c1.017 1.232 2.319 2.22 3.907 2.969 1.587.748 3.459 1.122 5.617 1.122 2.002 0 3.782-.335 5.339-1.005 1.556-.67 2.85-1.644 3.883-2.923 1.032-1.278 1.734-2.774 2.104-4.489h-4.854c-.278 1.06-.98 1.98-2.104 2.759-1.125.78-2.581 1.169-4.368 1.169-1.757 0-3.198-.381-4.323-1.146-1.125-.763-1.957-1.823-2.496-3.18-.42-1.052-.673-2.214-.767-3.483h19.328v-2.104c0-2.151-.44-4.17-1.318-6.056-.878-1.886-2.204-3.421-3.975-4.606ZM75.168 7.44h-5.455l-10.17 12.353V0h-5.225v32.598h5.224V20.861h3.051l8.969 11.737h5.963l-11.23-14.413L75.169 7.44ZM46.784 20.066c-1.634-1.246-3.837-2.01-6.611-2.291l-2.497-.28c-1.418-.156-2.435-.491-3.05-1.006-.617-.514-.925-1.208-.925-2.081 0-.997.416-1.823 1.248-2.478.832-.655 2.05-.982 3.652-.982 1.633 0 2.873.343 3.721 1.028.848.687 1.287 1.497 1.318 2.432h4.808c-.062-2.525-.994-4.442-2.797-5.752-1.803-1.309-4.153-1.964-7.05-1.964-1.911 0-3.59.313-5.039.936-1.449.623-2.589 1.512-3.42 2.665-.833 1.154-1.25 2.557-1.25 4.209 0 2.12.748 3.796 2.243 5.027 1.494 1.231 3.505 1.987 6.033 2.268l2.496.233c1.695.187 2.913.554 3.652 1.1.74.545 1.11 1.301 1.11 2.267 0 1.06-.493 1.94-1.48 2.642-.986.702-2.388 1.052-4.206 1.052-2.034 0-3.499-.397-4.392-1.192-.895-.795-1.387-1.66-1.48-2.595h-4.761c.061 2.525 1.017 4.497 2.866 5.915 1.85 1.418 4.438 2.128 7.767 2.128 2.064 0 3.89-.336 5.478-1.006 1.587-.67 2.82-1.613 3.698-2.829.879-1.216 1.318-2.618 1.318-4.208 0-2.245-.817-3.99-2.45-5.238ZM114.395.052h-4.947v7.389h-4.161v3.927h4.161v12.346c0 2.307.362 4.13 1.086 5.47.724 1.342 1.787 2.292 3.19 2.853 1.402.561 3.121.842 5.155.842h3.698v-4.583h-4.16c-1.295 0-2.289-.358-2.982-1.075-.694-.717-1.04-1.73-1.04-3.04V11.368h8.182V7.441h-8.182V.052ZM156 11.368V7.441h-8.182V.052h-4.947v7.389h-4.161v3.927h4.161v12.346c0 2.307.362 4.13 1.086 5.47.724 1.342 1.787 2.292 3.19 2.853 1.402.561 3.121.842 5.155.842H156v-4.583h-4.16c-1.295 0-2.289-.358-2.982-1.075-.694-.717-1.04-1.73-1.04-3.04V11.368H156Zm-29.956.14h3.698v21.09h5.224V7.441h-8.922v4.068Zm-89.665-7.7h4.911V.043h-4.91v3.765Zm93.587 0h4.911V.043h-4.911v3.765ZM5.151 17.541c.139-.788.348-1.52.628-2.198.555-1.34 1.37-2.384 2.45-3.133 1.078-.748 2.434-1.122 4.068-1.122 1.602 0 2.92.344 3.953 1.029 1.032.686 1.81 1.644 2.334 2.876.322.758.545 1.608.669 2.548H5.15Zm13.872-9.165c-1.772-1.184-4.014-1.777-6.726-1.777-2.065 0-3.868.367-5.409 1.099-1.541.733-2.82 1.715-3.837 2.946a12.737 12.737 0 0 0-2.288 4.162A15.22 15.22 0 0 0 0 19.599v.841c0 1.622.254 3.204.763 4.747a12.726 12.726 0 0 0 2.288 4.162c1.017 1.232 2.319 2.22 3.906 2.969 1.588.748 3.46 1.122 5.617 1.122 2.004 0 3.783-.335 5.34-1.005 1.556-.67 2.85-1.644 3.883-2.923 1.032-1.278 1.734-2.774 2.104-4.489h-4.854c-.278 1.06-.98 1.98-2.104 2.759-1.126.78-2.581 1.169-4.369 1.169-1.756 0-3.197-.381-4.322-1.146-1.125-.763-1.957-1.823-2.496-3.18-.42-1.052-.673-2.214-.767-3.483h19.328v-2.104c0-2.151-.44-4.17-1.318-6.056-.878-1.886-2.204-3.421-3.976-4.606ZM36.38 40h4.911v-3.646h-4.91V40Z" clip-rule="evenodd"/></svg>