<svg xmlns="http://www.w3.org/2000/svg" fill="none" viewBox="0 0 123.955 25"><path fill="#11ACDD" d="M21.444 20.52h-2.22v-6.27l-6.283-6.354-6.287 6.355v6.267H4.439v-6.711c0-.293.113-.574.315-.785l7.392-7.485a1.167 1.167 0 0 1 1.585 0l7.393 7.47c.2.212.315.492.32.784v6.729Z"/><path fill="#11ACDD" d="M17.01 20.52h-2.215v-4.362l-1.848-1.936-1.848 1.936v4.362H8.88v-5.24l4.068-4.274 4.063 4.274v5.24Z"/><path fill="#11ACDD" d="M22.554 24.954H3.33A3.33 3.33 0 0 1 0 21.63V12.93a3.37 3.37 0 0 1 .976-2.348L10.588.97a3.335 3.335 0 0 1 4.703 0l9.612 9.612c.62.626.97 1.469.976 2.35v8.698a3.33 3.33 0 0 1-3.325 3.324Zm-9.612-22.74c-.294 0-.576.118-.785.325l-9.612 9.613a1.11 1.11 0 0 0-.325.78v8.698a1.11 1.11 0 0 0 1.11 1.11h19.224a1.11 1.11 0 0 0 1.105-1.11V12.93a1.11 1.11 0 0 0-.325-.78L13.722 2.54a1.1 1.1 0 0 0-.78-.325ZM41.668 7.621v2.141h-5.671v3.162h5.061v2.136H36.02v3.308h5.672v2.155h-7.907V7.621h7.883ZM42.443 17.526h2.041c.076.818.88 1.352 1.929 1.352s1.64-.435 1.64-1.087c0-2.004-5.397-.378-5.397-3.927 0-1.626 1.351-2.864 3.525-2.864 1.928 0 3.61 1.03 3.819 2.92h-2.136a1.576 1.576 0 0 0-1.72-1.148c-.837 0-1.419.364-1.419.945 0 1.89 5.416.156 5.416 4.045 0 1.683-1.545 2.94-3.605 2.94-2.297.01-3.9-1.172-4.093-3.176ZM54.825 13.212v3.781a1.536 1.536 0 0 0 1.758 1.659c.23.004.46-.022.685-.076v1.947c-.376.076-.76.114-1.143.114-2.061 0-3.436-1.262-3.436-3.625v-3.78h-1.773V11.19h1.773v-2.5h2.136v2.5h2.443v2.022h-2.443ZM67.75 11.189v9.334h-2.117V19.26a3.571 3.571 0 0 1-2.977 1.45 4.634 4.634 0 0 1-4.485-4.867A4.613 4.613 0 0 1 62.656 11a3.572 3.572 0 0 1 2.977 1.45V11.19h2.118Zm-2.117 6.106v-2.86a2.958 2.958 0 0 0-2.538-1.417 2.835 2.835 0 1 0 0 5.671 3.01 3.01 0 0 0 2.538-1.394ZM72.84 13.212v3.781a1.536 1.536 0 0 0 1.759 1.659c.23.004.46-.022.685-.076v1.947c-.377.077-.76.115-1.144.114-2.06 0-3.436-1.262-3.436-3.625v-3.78h-1.772V11.19h1.772v-2.5h2.137v2.5h2.443v2.022H72.84ZM85.592 16.553h-7.136a2.59 2.59 0 0 0 2.731 2.23c1.144 0 2.042-.534 2.23-1.332h2.128c-.34 1.961-2.118 3.26-4.405 3.26a4.796 4.796 0 0 1-4.859-4.905A4.749 4.749 0 0 1 81.088 11a4.513 4.513 0 0 1 4.56 4.655c.003.3-.016.6-.056.898Zm-2.25-1.815a2.24 2.24 0 0 0-2.363-1.81 2.396 2.396 0 0 0-2.481 1.81h4.844ZM96.414 11.17v9.577c0 2.613-2.022 4.253-4.693 4.253-1.852 0-4.522-.818-4.655-3.53h2.136c.057 1.03 1.144 1.626 2.444 1.626a2.439 2.439 0 0 0 2.651-2.363V19.09a3.624 3.624 0 0 1-2.977 1.418 4.758 4.758 0 0 1 0-9.5 3.58 3.58 0 0 1 2.977 1.418V11.17h2.117Zm-2.117 5.993v-2.836a2.968 2.968 0 0 0-2.538-1.375 2.778 2.778 0 1 0 0 5.553 3.024 3.024 0 0 0 2.533-1.342h.005ZM106.881 16.208a4.354 4.354 0 0 1-1.225 3.176 4.367 4.367 0 0 1-4.836.982 4.355 4.355 0 0 1-2.368-2.445 4.363 4.363 0 0 1-.29-1.713V11.19h2.136v5.02c0 1.507.86 2.462 2.236 2.462 1.375 0 2.23-.946 2.23-2.463V11.19h2.117v5.02ZM114.051 11.152v2.003a4.503 4.503 0 0 0-1.181-.189 2.747 2.747 0 0 0-2.217 1.602v5.955h-2.117V11.19h2.117v1.281A2.893 2.893 0 0 1 113.04 11c.344-.014.687.037 1.011.152ZM123.953 16.19a4.355 4.355 0 0 1-1.226 3.175 4.367 4.367 0 0 1-4.836.982 4.357 4.357 0 0 1-2.368-2.446 4.372 4.372 0 0 1-.29-1.712V11.17h2.136v5.02c0 1.507.861 2.461 2.236 2.461 1.375 0 2.23-.945 2.23-2.462V11.17h2.118v5.02Z"/></svg>