<svg width="124" height="25" viewBox="0 0 124 25" fill="none" xmlns="http://www.w3.org/2000/svg"><path d="M21.4438 20.52H19.224V14.2508L12.9414 7.89591L6.65361 14.2508V20.5179H4.43896V13.8068C4.43904 13.5145 4.55183 13.2334 4.75388 13.0221L12.1464 5.5367C12.362 5.33716 12.645 5.22632 12.9388 5.22632C13.2326 5.22632 13.5156 5.33716 13.7312 5.5367L21.1237 13.0066C21.3249 13.2188 21.4392 13.4989 21.4439 13.7913L21.4438 20.52Z" fill="rgb(17, 172, 221)"/><path d="M17.0101 20.52H14.7954V16.1579L12.9473 14.222L11.0992 16.1579V20.52H8.87939V15.2803L12.9473 11.0059L17.0101 15.2803V20.52Z" fill="rgb(17, 172, 221)"/><path d="M22.5544 24.9544H3.32972C2.44753 24.9544 1.60139 24.6043 0.977097 23.981C0.352801 23.3577 0.00137905 22.5121 0 21.6299V12.9313C0.00604763 12.051 0.356228 11.208 0.975683 10.5825L10.588 0.970111C11.2129 0.34877 12.0583 0 12.9395 0C13.8207 0 14.6661 0.34877 15.2909 0.970111L24.9032 10.5824C25.5227 11.2079 25.8729 12.051 25.879 12.9313V21.6299C25.8776 22.5112 25.5268 23.356 24.9036 23.9792C24.2805 24.6023 23.4356 24.953 22.5544 24.9544V24.9544ZM12.942 2.21425C12.6478 2.21488 12.3658 2.33179 12.1574 2.53947L2.54504 12.1518C2.33814 12.3586 2.22126 12.6388 2.21981 12.9313V21.6299C2.2198 21.7757 2.24851 21.92 2.30428 22.0547C2.36006 22.1893 2.44181 22.3117 2.54488 22.4148C2.64795 22.5178 2.77031 22.5996 2.90497 22.6553C3.03963 22.7111 3.18397 22.7398 3.32972 22.7398H22.5544C22.8478 22.7385 23.1288 22.6209 23.3359 22.4129C23.5429 22.2049 23.6591 21.9234 23.6591 21.6299V12.9313C23.6577 12.6388 23.5408 12.3586 23.3339 12.1518L13.7216 2.53947C13.6195 2.43656 13.498 2.35484 13.3643 2.29903C13.2305 2.24321 13.087 2.2144 12.942 2.21425Z" fill="rgb(17, 172, 221)"/><path d="M41.6681 7.62109V9.76196H35.9969V12.9236H41.0584V15.0598H36.0205V18.368H41.6917V20.523H33.7852V7.62109H41.6681Z" fill="rgb(17, 172, 221)"/><path d="M42.4429 17.5263H44.4845C44.5602 18.344 45.3636 18.8779 46.4128 18.8779C47.462 18.8779 48.0527 18.4432 48.0527 17.791C48.0527 15.7872 42.6555 17.4129 42.6555 13.8637C42.6555 12.238 44.0073 10.9998 46.1812 10.9998C48.1094 10.9998 49.7919 12.03 49.9998 13.9204H47.8636C47.7636 13.5537 47.5345 13.2354 47.2183 13.0243C46.9022 12.8133 46.5204 12.7237 46.1433 12.772C45.3068 12.772 44.7255 13.1359 44.7255 13.7172C44.7255 15.6076 50.1415 13.8731 50.1415 17.7625C50.1415 19.4451 48.5961 20.7021 46.5356 20.7021C44.2388 20.7116 42.6367 19.5302 42.4429 17.5263Z" fill="rgb(17, 172, 221)"/><path d="M54.8249 13.2122V16.993C54.8038 17.2248 54.8357 17.4584 54.9181 17.6761C55.0006 17.8938 55.1314 18.09 55.3007 18.2497C55.47 18.4095 55.6734 18.5287 55.8956 18.5983C56.1177 18.668 56.3527 18.6862 56.583 18.6517C56.8137 18.6557 57.0439 18.6303 57.2682 18.5762V20.5232C56.8918 20.5991 56.5086 20.6371 56.1246 20.6367C54.064 20.6367 52.6888 19.3748 52.6888 17.0119V13.2311H50.9165V11.1895H52.6888V8.68945H54.8249V11.1895H57.2682V13.2122L54.8249 13.2122Z" fill="rgb(17, 172, 221)"/><path d="M67.7506 11.1888V20.5226H65.6333V19.2608C65.2911 19.7251 64.8415 20.0996 64.323 20.3523C63.8045 20.605 63.2325 20.7282 62.656 20.7116C62.0399 20.6925 61.4338 20.5508 60.8732 20.2946C60.3126 20.0384 59.8088 19.673 59.3911 19.2197C58.9735 18.7664 58.6504 18.2344 58.4409 17.6547C58.2314 17.075 58.1397 16.4594 58.171 15.8438C58.14 15.2295 58.2322 14.6152 58.4421 14.0371C58.652 13.4589 58.9754 12.9286 59.3933 12.4772C59.8112 12.0259 60.3151 11.6627 60.8754 11.4089C61.4357 11.1552 62.0411 11.0161 62.656 10.9998C63.2325 10.9832 63.8045 11.1065 64.323 11.3591C64.8415 11.6118 65.2911 11.9863 65.6333 12.4507V11.1888H67.7506ZM65.6333 17.2948V14.4356C65.3681 14.0008 64.9952 13.6418 64.5506 13.3934C64.1059 13.145 63.6047 13.0157 63.0954 13.0178C62.3434 13.0178 61.6222 13.3165 61.0904 13.8483C60.5586 14.3801 60.2598 15.1013 60.2598 15.8534C60.2598 16.6054 60.5586 17.3267 61.0904 17.8585C61.6222 18.3902 62.3434 18.689 63.0954 18.689C63.6016 18.6887 64.0994 18.5608 64.543 18.3171C64.9866 18.0734 65.3616 17.7218 65.6333 17.2948V17.2948Z" fill="rgb(17, 172, 221)"/><path d="M72.8405 13.2122V16.993C72.8195 17.2248 72.8513 17.4584 72.9338 17.6761C73.0162 17.8938 73.147 18.09 73.3163 18.2497C73.4857 18.4095 73.6891 18.5287 73.9112 18.5983C74.1333 18.668 74.3684 18.6862 74.5986 18.6517C74.8293 18.6557 75.0596 18.6303 75.2839 18.5762V20.5232C74.9075 20.5997 74.5243 20.6377 74.1402 20.6367C72.0797 20.6367 70.7044 19.3748 70.7044 17.0119V13.2311H68.9321V11.1895H70.7045V8.68945H72.8405V11.1895H75.2839V13.2122L72.8405 13.2122Z" fill="rgb(17, 172, 221)"/><path d="M85.5918 16.5529H78.4556C78.545 17.201 78.8763 17.7912 79.383 18.205C79.8897 18.6188 80.5343 18.8254 81.1871 18.7835C82.3308 18.7835 83.2287 18.2495 83.4179 17.4508H85.5446C85.2043 19.4121 83.4273 20.7118 81.1399 20.7118C80.4956 20.7202 79.8561 20.5987 79.2598 20.3545C78.6634 20.1103 78.1224 19.7485 77.669 19.2907C77.2155 18.8328 76.859 18.2883 76.6206 17.6896C76.3822 17.0909 76.2669 16.4504 76.2815 15.8062C76.2739 15.1729 76.393 14.5444 76.6319 13.9579C76.8708 13.3713 77.2245 12.8384 77.6724 12.3906C78.1202 11.9428 78.6531 11.589 79.2397 11.3502C79.8262 11.1114 80.4547 10.9922 81.0879 10.9999C81.6967 10.9932 82.3005 11.1098 82.8631 11.3426C83.4256 11.5754 83.9352 11.9195 84.3613 12.3544C84.7874 12.7893 85.121 13.3059 85.3422 13.8731C85.5634 14.4403 85.6676 15.0464 85.6484 15.6549C85.6509 15.9552 85.6319 16.2553 85.5918 16.5529ZM83.3421 14.7381C83.2383 14.1994 82.9404 13.7175 82.5048 13.3838C82.0693 13.0502 81.5264 12.888 80.9792 12.9281C80.4192 12.8914 79.864 13.0525 79.4105 13.3833C78.9571 13.7141 78.6342 14.1936 78.498 14.7381H83.3421Z" fill="rgb(17, 172, 221)"/><path d="M96.4142 11.1701V20.7467C96.4142 23.3601 94.3916 25.0001 91.7214 25.0001C89.8688 25.0001 87.1986 24.1824 87.0662 21.4698H89.2025C89.2591 22.5001 90.3462 23.0956 91.6458 23.0956C91.9772 23.1247 92.3111 23.0857 92.6268 22.981C92.9426 22.8763 93.2336 22.7081 93.482 22.4868C93.7303 22.2654 93.9308 21.9956 94.0709 21.6939C94.2111 21.3922 94.2881 21.065 94.2971 20.7325V19.0909C93.9484 19.5459 93.4966 19.9117 92.979 20.1582C92.4614 20.4047 91.8927 20.5248 91.3196 20.5087C90.1071 20.439 88.9671 19.9083 88.1333 19.0252C87.2995 18.1421 86.835 16.9736 86.835 15.7591C86.835 14.5445 87.2995 13.376 88.1333 12.4929C88.9671 11.6098 90.1071 11.0791 91.3196 11.0094C91.8932 10.9897 92.4632 11.1083 92.9814 11.355C93.4996 11.6018 93.9508 11.9695 94.2971 12.4272V11.1701H96.4142ZM94.2971 17.1626V14.327C94.0261 13.9008 93.6507 13.5508 93.2066 13.3101C92.7625 13.0695 92.2643 12.9461 91.7593 12.9518C91.385 12.9362 91.0114 12.9966 90.661 13.1291C90.3106 13.2616 89.9906 13.4636 89.7203 13.723C89.4499 13.9823 89.2348 14.2937 89.0879 14.6383C88.9409 14.9829 88.8652 15.3536 88.8652 15.7283C88.8652 16.1029 88.9409 16.4737 89.0879 16.8183C89.2348 17.1629 89.4499 17.4742 89.7203 17.7335C89.9906 17.9929 90.3106 18.1949 90.661 18.3274C91.0114 18.46 91.385 18.5203 91.7593 18.5048C92.2595 18.508 92.7528 18.3871 93.1949 18.1528C93.637 17.9186 94.014 17.5783 94.2923 17.1626L94.2971 17.1626Z" fill="rgb(17, 172, 221)"/><path d="M106.881 16.2082C106.9 16.7926 106.802 17.375 106.591 17.9205C106.381 18.466 106.063 18.9637 105.656 19.3838C105.249 19.804 104.762 20.1381 104.224 20.3662C103.685 20.5944 103.106 20.712 102.522 20.712C101.937 20.712 101.358 20.5944 100.82 20.3662C100.281 20.1381 99.7943 19.804 99.3876 19.3838C98.9809 18.9637 98.6628 18.466 98.4522 17.9205C98.2417 17.375 98.143 16.7926 98.162 16.2082V11.1892H100.298V16.2082C100.298 17.7158 101.158 18.6705 102.534 18.6705C103.909 18.6705 104.764 17.7252 104.764 16.2082V11.1892H106.881V16.2082Z" fill="rgb(17, 172, 221)"/><path d="M114.051 11.1516V13.1554C113.668 13.0402 113.27 12.9766 112.87 12.9664C112.393 13.0165 111.937 13.1907 111.548 13.4718C111.159 13.7529 110.851 14.131 110.653 14.5684V20.5232H108.536V11.1893H110.653V12.4701C110.894 12.0429 111.239 11.6839 111.657 11.4268C112.074 11.1696 112.55 11.0229 113.04 11.0003C113.384 10.9855 113.727 11.0368 114.051 11.1516Z" fill="rgb(17, 172, 221)"/><path d="M123.953 16.1892C123.972 16.7736 123.873 17.3559 123.662 17.9015C123.452 18.4471 123.134 18.9447 122.727 19.3649C122.32 19.7851 121.833 20.1192 121.295 20.3473C120.757 20.5755 120.178 20.6931 119.593 20.6931C119.008 20.6931 118.429 20.5755 117.891 20.3473C117.353 20.1192 116.865 19.7851 116.459 19.3649C116.052 18.9447 115.734 18.4471 115.523 17.9015C115.313 17.3559 115.214 16.7736 115.233 16.1892V11.1702H117.369V16.1892C117.369 17.6967 118.23 18.6514 119.605 18.6514C120.98 18.6514 121.835 17.7061 121.835 16.1892V11.1702H123.953V16.1892Z" fill="rgb(17, 172, 221)"/></svg>