<svg xmlns="http://www.w3.org/2000/svg" fill="none" viewBox="0 0 80 27.907"><path fill="#122A72" d="M69.124 5.254c2.922 0 5.62 1.14 7.687 3.285C78.877 10.681 80 13.505 80 16.559c0 3.052-1.124 5.922-3.189 8.063-2.068 2.145-4.765 3.285-7.687 3.285-2.923 0-5.576-1.14-7.644-3.285-2.11-2.186-3.233-5.011-3.233-8.064 0-3.052 1.123-5.832 3.233-8.019 2.068-2.144 4.721-3.285 7.644-3.285Zm0 4.129c-1.784 0-3.407.783-4.578 2.073-1.161 1.278-1.879 3.052-1.879 5.058 0 2.01.72 3.797 1.885 5.087 1.17 1.297 2.79 2.088 4.572 2.088 1.78 0 3.4-.791 4.572-2.088 1.164-1.29 1.884-3.078 1.884-5.087 0-2.006-.718-3.78-1.878-5.058-1.172-1.29-2.794-2.073-4.578-2.073ZM10.55 5.235c1.83 0 3.466.407 4.91 1.214a9.16 9.16 0 0 1 3.462 3.372c.853 1.433 1.285 3.081 1.285 4.948 0 .314-.019 1.394-.056 3.238l-.003.124-15.55-.002c.334 1.634 1.037 2.813 2.135 3.692 1.159.927 2.739 1.413 4.724 1.5l.158.005.495.008h6.902v4.178h-6.941c-3.795 0-6.738-1.014-8.853-2.989C1.086 22.534 0 20.008 0 16.206c0-1.924.435-3.714 1.304-5.37a10.707 10.707 0 0 1 3.664-4.04c1.576-1.035 3.435-1.56 5.582-1.56Zm.205 4.326c-1.708 0-3.1.455-4.411 1.618-.79.782-1.32 1.75-1.63 3.046l11.444-.094-.005-.138-.011-.125a4.56 4.56 0 0 0-.621-1.867c-.435-.735-1.051-1.322-1.843-1.767-.81-.455-1.785-.673-2.923-.673Zm27.657-3.906V9.74h-9.033c-.653 0-1.172.14-1.525.423-.33.264-.5.653-.5 1.142 0 .376.148.69.442.978.35.343.891.648 1.628.966l3.87 1.6c2.116.878 3.724 1.698 4.762 2.79.921.969 1.41 2.15 1.41 3.774 0 2.075-.747 3.587-2.237 4.592-1.466.99-3.678 1.483-6.663 1.502H23.33v-4.173h9.032c.865 0 1.547-.172 2.011-.496.44-.306.671-.75.671-1.291 0-.483-.174-.857-.521-1.188-.43-.412-1.106-.76-2.024-1.154l-3.701-1.513c-2.016-.833-3.476-1.647-4.415-2.682-.882-.973-1.318-2.14-1.318-3.705 0-1.785.644-3.201 1.894-4.174 1.195-.93 2.962-1.454 5.288-1.474h8.164ZM42.891 0h4.288v5.655h8.318v4.129h-8.318v8.867c0 1.607.35 2.78 1.137 3.547.79.77 2.005 1.12 3.676 1.135h3.505v4.173h-3.441c-3.015 0-5.28-.675-6.804-2.005-1.532-1.336-2.33-3.336-2.36-6.022l-.001-.16V0Z"/></svg>