<svg xmlns="http://www.w3.org/2000/svg" width="161.802" height="50" viewBox="0 0 230 50">
  <g id="Group_1" data-name="Group 1" transform="translate(-42.613 -504.288)">
    <path id="Path_1" data-name="Path 1" d="M115.744,521.724a12.638,12.638,0,0,1-18.763,4.805H94.039V523.59a12.637,12.637,0,0,1,1.344-16.307,12.759,12.759,0,0,1,3.459-2.461,11.121,11.121,0,0,0-4.174,9.591,12.11,12.11,0,0,0,11.91,11.6,11.5,11.5,0,0,0,8.311-3.33,10.648,10.648,0,0,0,.855-.958m-.229-9.359a6.63,6.63,0,0,1-6.9,6.9,7.5,7.5,0,0,1-7.239-7.054,6.553,6.553,0,0,1,6.828-7.163,7.414,7.414,0,0,1,2.757.626,9.908,9.908,0,0,0-4.417-1.372A7.827,7.827,0,0,0,98,513.279a10.71,10.71,0,0,0,9.75,9.521,7.918,7.918,0,0,0,8.644-8.641,10.089,10.089,0,0,0-1.7-4.942,7.254,7.254,0,0,1,.813,3.148" transform="translate(88 0)" fill="rgb(252, 198, 77)"/>
    <path id="Path_2" data-name="Path 2" d="M99.273,507.487h0a.538.538,0,0,1-.707-.277l-.349-.793a.537.537,0,0,1,.983-.43l.349.793a.539.539,0,0,1-.277.707" transform="translate(99.658 2.47)" fill="rgb(252, 198, 77)"/>
    <path id="Path_3" data-name="Path 3" d="M97.67,508.189h0a.538.538,0,0,1-.707-.277l-.346-.791a.537.537,0,1,1,.983-.433l.346.793a.538.538,0,0,1-.277.707" transform="translate(96.785 3.729)" fill="rgb(252, 198, 77)"/>
    <path id="Path_4" data-name="Path 4" d="M51.8,520.36H51.8v-1.377a3.615,3.615,0,0,1,3.612-3.612h3.565v-5.9H55.408a9.521,9.521,0,0,0-9.513,9.51v1.377H42.613V525.3H45.9v10.826h0v8.306h5.9V525.3h7.219V520.36Z" transform="translate(0 9.301)" fill="#1f1f1f"/>
    <rect id="Rectangle_1" data-name="Rectangle 1" width="5.853" height="24.068" transform="translate(62.303 529.659)" fill="#1f1f1f"/>
    <path id="Path_5" data-name="Path 5" d="M73.96,516.251a11.848,11.848,0,0,1,2.9,8.4v13.281H71.007V525c0-4.224-2.238-6.565-5.9-6.565-2.238,0-4.325,1.171-6.208,3.459v16.03H53V513.86h5.9v1.983a11.3,11.3,0,0,1,7.429-2.746,9.93,9.93,0,0,1,7.632,3.154" transform="translate(18.624 15.801)" fill="#1f1f1f"/>
    <path id="Path_6" data-name="Path 6" d="M84.492,523.51a12.222,12.222,0,0,1,3.562,8.909,12.4,12.4,0,0,1-3.562,8.954,11.393,11.393,0,0,1-8.549,3.662,12.177,12.177,0,0,1-7.325-2.238v1.679h-5.9v-35.03h5.9v12.642a12.159,12.159,0,0,1,7.325-2.238,11.39,11.39,0,0,1,8.549,3.66m-4.325,14.248a7.528,7.528,0,0,0,2.034-5.339,7.381,7.381,0,0,0-2.034-5.244,6.666,6.666,0,0,0-5.087-2.238,7.547,7.547,0,0,0-6.462,3.3v8.348a7.352,7.352,0,0,0,6.462,3.358,6.615,6.615,0,0,0,5.087-2.19" transform="translate(36.057 9.252)" fill="#1f1f1f"/>
    <path id="Path_7" data-name="Path 7" d="M100.7,531.139c-.866,1.469-2.489,2.232-4.875,2.232-3.869,0-6.261-2.09-7.023-5.294h18.469a17.634,17.634,0,0,0,.154-2.7,12.267,12.267,0,0,0-3.408-8.806,11.06,11.06,0,0,0-8.345-3.405,12.488,12.488,0,0,0-9.261,3.613,12.577,12.577,0,0,0,9.261,21.573c4.2,0,7.772-1.64,9.837-4.389ZM95.36,518.154c3.461,0,5.649,2.087,6.107,5.548H88.744a6.439,6.439,0,0,1,6.616-5.548" transform="translate(72.253 15.932)" fill="#1f1f1f"/>
    <path id="Path_8" data-name="Path 8" d="M90.85,531.131h-.092c-.866,1.475-2.492,2.241-4.883,2.241-3.869,0-6.261-2.09-7.021-5.294H97.324a17.639,17.639,0,0,0,.154-2.7,12.269,12.269,0,0,0-3.411-8.806,11.052,11.052,0,0,0-8.345-3.405,12.481,12.481,0,0,0-9.258,3.613,12.577,12.577,0,0,0,9.258,21.573c4.227,0,7.814-1.659,9.873-4.437Zm-5.434-12.977c3.459,0,5.646,2.087,6.107,5.548H78.8a6.433,6.433,0,0,1,6.613-5.548" transform="translate(54.418 15.932)" fill="#1f1f1f"/>
    <path id="Path_9" data-name="Path 9" d="M52.825,509.446a3.248,3.248,0,0,1,3.3,3.252,3.3,3.3,0,0,1-6.6,0,3.245,3.245,0,0,1,3.3-3.252" transform="translate(12.404 9.252)" fill="#1f1f1f"/>
  </g>
</svg>
