<svg xmlns="http://www.w3.org/2000/svg" viewBox="0 -0.027 161.818 50.033"><g data-name="Group 1"><path fill="#FCC64D" d="M161.131 17.436a12.638 12.638 0 0 1-18.763 4.805h-2.942v-2.939a12.637 12.637 0 0 1 1.344-16.307 12.759 12.759 0 0 1 3.459-2.461 11.121 11.121 0 0 0-4.174 9.591 12.11 12.11 0 0 0 11.91 11.6 11.5 11.5 0 0 0 8.311-3.33 10.648 10.648 0 0 0 .855-.958m-.229-9.359a6.63 6.63 0 0 1-6.9 6.9 7.5 7.5 0 0 1-7.239-7.054 6.553 6.553 0 0 1 6.828-7.163 7.414 7.414 0 0 1 2.757.626 9.908 9.908 0 0 0-4.417-1.372 7.827 7.827 0 0 0-8.544 8.976 10.71 10.71 0 0 0 9.75 9.521 7.918 7.918 0 0 0 8.644-8.641 10.089 10.089 0 0 0-1.7-4.942 7.254 7.254 0 0 1 .813 3.148" data-name="Path 1"/><path fill="#FCC64D" d="M156.318 5.669a.538.538 0 0 1-.707-.277l-.349-.793a.537.537 0 0 1 .983-.43l.349.793a.539.539 0 0 1-.277.707" data-name="Path 2"/><path fill="#FCC64D" d="M151.842 7.63a.538.538 0 0 1-.707-.277l-.346-.791a.537.537 0 1 1 .983-.433l.346.793a.538.538 0 0 1-.277.707" data-name="Path 3"/><path fill="#1f1f1f" d="M9.187 25.373v-1.377a3.615 3.615 0 0 1 3.612-3.612h3.565v-5.9h-3.569a9.521 9.521 0 0 0-9.513 9.51v1.377H0v4.942h3.287V49.445h5.9V30.313h7.219v-4.94Z" data-name="Path 4"/><path fill="#1f1f1f" d="M19.69 25.371h5.853v24.068H19.69z" data-name="Rectangle 1"/><path fill="#1f1f1f" d="M49.971 27.764a11.848 11.848 0 0 1 2.9 8.4v13.281h-5.853V36.513c0-4.224-2.238-6.565-5.9-6.565-2.238 0-4.325 1.171-6.208 3.459v16.03h-5.899V25.373h5.9v1.983a11.3 11.3 0 0 1 7.429-2.746 9.93 9.93 0 0 1 7.632 3.154" data-name="Path 5"/><path fill="#1f1f1f" d="M77.936 28.474a12.222 12.222 0 0 1 3.562 8.909 12.4 12.4 0 0 1-3.562 8.954 11.393 11.393 0 0 1-8.549 3.662 12.177 12.177 0 0 1-7.325-2.238v1.679h-5.9V14.41h5.9v12.642a12.159 12.159 0 0 1 7.325-2.238 11.39 11.39 0 0 1 8.549 3.66m-4.325 14.248a7.528 7.528 0 0 0 2.034-5.339 7.381 7.381 0 0 0-2.034-5.244 6.666 6.666 0 0 0-5.087-2.238 7.547 7.547 0 0 0-6.462 3.3v8.348a7.352 7.352 0 0 0 6.462 3.358 6.615 6.615 0 0 0 5.087-2.19" data-name="Path 6"/><path fill="#1f1f1f" d="M130.34 42.783c-.866 1.469-2.489 2.232-4.875 2.232-3.869 0-6.261-2.09-7.023-5.294h18.469a17.634 17.634 0 0 0 .154-2.7 12.267 12.267 0 0 0-3.408-8.806 11.06 11.06 0 0 0-8.345-3.405 12.488 12.488 0 0 0-9.261 3.613 12.577 12.577 0 0 0 9.261 21.573c4.2 0 7.772-1.64 9.837-4.389ZM125 29.798c3.461 0 5.649 2.087 6.107 5.548h-12.723A6.439 6.439 0 0 1 125 29.798" data-name="Path 7"/><path fill="#1f1f1f" d="M102.655 42.775h-.092c-.866 1.475-2.492 2.241-4.883 2.241-3.869 0-6.261-2.09-7.021-5.294h18.47a17.639 17.639 0 0 0 .154-2.7 12.269 12.269 0 0 0-3.411-8.806 11.052 11.052 0 0 0-8.345-3.405 12.481 12.481 0 0 0-9.258 3.613 12.577 12.577 0 0 0 9.258 21.573c4.227 0 7.814-1.659 9.873-4.437Zm-5.434-12.977c3.459 0 5.646 2.087 6.107 5.548H90.605a6.433 6.433 0 0 1 6.613-5.548" data-name="Path 8"/><path fill="#1f1f1f" d="M22.616 14.41a3.248 3.248 0 0 1 3.3 3.252 3.3 3.3 0 0 1-6.6 0 3.245 3.245 0 0 1 3.3-3.252" data-name="Path 9"/></g></svg>