<svg xmlns="http://www.w3.org/2000/svg" viewBox="0 0.3 200 35.1"><defs><style>.f5ab3754-cfa5-4083-abe7-42403c1fcf03{fill:#6f7271}.a257fca7-0b2d-4370-a158-fbee5cfada0d{fill:#6abf4b}</style></defs><g id="ad3b8857-45ac-4c21-8f23-6dde5a5c865f" data-name="Layer 2"><g id="b611f187-a5f7-49e7-81fb-16ce40175340" data-name="Layer 1"><path d="M77.7 18A15.6 15.6 0 0 1 93.6 2a15.8 15.8 0 0 1 10.5 3.5 2.6 2.6 0 0 1 1.1 2.1 2.7 2.7 0 0 1-2.7 2.7 3 3 0 0 1-1.6-.5A10.8 10.8 0 0 0 93.5 7c-5.8 0-10.1 4.8-10.1 10.9 0 6.1 4.2 11 10.1 11a10.9 10.9 0 0 0 7.7-3 2.9 2.9 0 0 1 1.7-.6 2.5 2.5 0 0 1 2.5 2.5 2.5 2.5 0 0 1-.9 1.9A16 16 0 0 1 77.7 18M107.6 12.5a2.7 2.7 0 1 1 5.3 0v2.4c1.3-2.9 3.6-5.1 5.9-5.1a2.4 2.4 0 0 1 2.6 2.6 2.5 2.5 0 0 1-2.1 2.6c-3.8.7-6.4 3.6-6.4 9.1v6.8a2.7 2.7 0 1 1-5.3 0ZM132.3 33.9c-6.7 0-11.9-4.9-11.9-12.1 0-6.6 4.7-12.1 11.4-12.1s11 6.1 11 11.5a2.4 2.4 0 0 1-2.5 2.5h-14.6a6.5 6.5 0 0 0 6.7 5.9 8.4 8.4 0 0 0 5.5-2 2.2 2.2 0 0 1 1.4-.5 2.1 2.1 0 0 1 2.1 2.2 2.4 2.4 0 0 1-.7 1.6 12 12 0 0 1-8.4 3.1m5.3-13.8c-.3-3.4-2.4-6.1-5.9-6.1s-5.5 2.5-6 6.1ZM167.8 30.9a2.7 2.7 0 1 1-5.3 0v-1.4a9.4 9.4 0 0 1-7.9 4.3c-5.5 0-10.8-4.3-10.8-12S149 9.7 154.6 9.7a9.5 9.5 0 0 1 7.9 4.1V3.6a2.7 2.7 0 0 1 5.3 0Zm-18.6-9.2c0 4.5 3 7.4 6.6 7.4s6.8-3 6.8-7.4c0-4.5-3.2-7.5-6.8-7.5s-6.6 2.9-6.6 7.5M171.5 12.5a2.6 2.6 0 0 1 2.6-2.7 2.7 2.7 0 0 1 2.7 2.7v18.4a2.7 2.7 0 1 1-5.3 0ZM181.6 26.9V14.7h-.9a2.3 2.3 0 1 1 0-4.6h.9v-4a2.7 2.7 0 0 1 5.3 0v4h4.2a2.3 2.3 0 1 1 0 4.6h-4.2v11.4a2.6 2.6 0 0 0 2.9 2.9h1.3a2.1 2.1 0 0 1 2.2 2.1 2.2 2.2 0 0 1-1.4 2.1 10.1 10.1 0 0 1-3.6.6c-3.9 0-6.7-1.7-6.7-6.8" class="f5ab3754-cfa5-4083-abe7-42403c1fcf03"/><path d="M55.1.7a17.2 17.2 0 1 0 17.1 17.2A17.2 17.2 0 0 0 55.1.7m0 26.3a9.1 9.1 0 1 1 9.1-9.1 9.1 9.1 0 0 1-9.1 9.1M36.3 16.5c0-.1-.1-.2-.2-.3l-.4-.3-.7-.2H20.3a3.9 3.9 0 0 0-3.5 3.8 4 4 0 0 0 3.5 3.9H24c-.2.1-.3.3-.4.4h-.1l-1.8 1.5a10.9 10.9 0 0 1-2.3.9 8.5 8.5 0 0 1-2.3.3 8.8 8.8 0 0 1-2.4-.3 8.5 8.5 0 0 1-2.2-.9 17.3 17.3 0 0 1-2-1.5 7.2 7.2 0 0 1-1.4-1.9 10.2 10.2 0 0 1-.9-2.2 9.3 9.3 0 0 1-.3-2.4 9.9 9.9 0 0 1 .3-2.4 12.8 12.8 0 0 1 .9-2.2 8.6 8.6 0 0 1 1.4-1.8 10.1 10.1 0 0 1 2-1.4 8.8 8.8 0 0 1 2.2-1 8.8 8.8 0 0 1 2.4-.3 8.5 8.5 0 0 1 2.3.3 11.5 11.5 0 0 1 2.3 1l1.6 1.1a3.7 3.7 0 0 0 2.5.9 3.9 3.9 0 0 0 3.9-3.9 4 4 0 0 0-1.2-2.8l-.6-.5a16 16 0 0 0-2.3-1.6A18.3 18.3 0 0 0 21.5.8a21.2 21.2 0 0 0-4.4-.5 21.4 21.4 0 0 0-4.5.5 18.3 18.3 0 0 0-4.1 1.8A18.7 18.7 0 0 0 5 5.2a15.4 15.4 0 0 0-2.7 3.6 18.3 18.3 0 0 0-1.8 4.1 20.4 20.4 0 0 0-.5 4.4 20.4 20.4 0 0 0 .5 4.4 16.5 16.5 0 0 0 1.8 4.1A12.2 12.2 0 0 0 5 29.4 15.2 15.2 0 0 0 8.5 32a17.8 17.8 0 0 0 4.1 1.7 16.3 16.3 0 0 0 4.5.6 16.1 16.1 0 0 0 4.4-.6 17.8 17.8 0 0 0 4.1-1.7 15 15 0 0 0 3.3-2.3v1.9a3.8 3.8 0 0 0 3.8 3.8 4 4 0 0 0 3.9-3.8V17.3a1.3 1.3 0 0 0-.3-.8M178.1 3.9a4 4 0 0 1-7.9 0 4 4 0 0 1 7.9 0" class="a257fca7-0b2d-4370-a158-fbee5cfada0d"/><path d="M200 31.2a2.5 2.5 0 0 1-2.6 2.5 2.5 2.5 0 1 1 0-5 2.5 2.5 0 0 1 2.6 2.5Zm-4.4 0a1.8 1.8 0 0 0 1.8 1.9 1.8 1.8 0 0 0 1.8-1.9 1.8 1.8 0 0 0-1.8-1.9 1.9 1.9 0 0 0-1.8 1.9Zm1.5 1.2h-.7v-2.3h1a1.4 1.4 0 0 1 .9.2.5.5 0 0 1 .3.5c0 .2-.2.4-.6.5.3.1.4.3.5.6s.1.5.2.6h-.8c-.1-.1-.1-.3-.2-.5a.4.4 0 0 0-.4-.4h-.2Zm0-1.3h.2c.3 0 .5-.1.5-.3s-.2-.3-.5-.3h-.2Z" class="f5ab3754-cfa5-4083-abe7-42403c1fcf03"/></g></g></svg>