<svg xmlns="http://www.w3.org/2000/svg" xml:space="preserve" viewBox="0 0 109.6 26.6"><path d="M5.5 26.1V9H1v17.1h4.5zM.5 3.4c0 1.5 1.3 2.8 2.8 2.8C4.8 6.2 6 4.9 6 3.4 6 1.8 4.8.5 3.2.5 1.7.5.5 1.8.5 3.4zM14.1 16.2c0-2 1.1-3.5 3.1-3.5 2.2 0 3.1 1.5 3.1 3.4v10h4.5V15.3c0-3.8-1.9-6.8-6-6.8-1.8 0-3.8.8-4.8 2.6V9H9.6v17.1h4.5v-9.9zM36.1 12.7c2.2 0 3.3 1.5 3.7 2.9l4-1.4c-.7-2.9-3.3-5.8-7.8-5.8-4.8 0-8.6 3.8-8.6 9.1s3.9 9.1 8.8 9.1c4.4 0 7-2.9 7.8-5.8l-4-1.4c-.4 1.3-1.5 2.9-3.8 2.9s-4.3-1.7-4.3-4.8 1.9-4.8 4.2-4.8zM53.9 22.4c-2.2 0-4.2-1.7-4.2-4.9s2-4.9 4.2-4.9 4.2 1.6 4.2 4.9-2 4.9-4.2 4.9zm0-14c-5 0-8.7 3.8-8.7 9.1s3.8 9.1 8.7 9.1c5 0 8.7-3.8 8.7-9.1s-3.8-9.1-8.7-9.1zM69.7 26.1v-10c0-1.9 1.1-3.4 3.1-3.4s2.9 1.4 2.9 3.2v10.2h4.5v-10c0-1.8 1.1-3.4 3.1-3.4 2.1 0 2.9 1.4 2.9 3.2v10.2h4.4V15c0-4.6-2.9-6.5-6-6.5-2.2 0-4 .8-5.3 2.9-.8-1.8-2.7-2.9-4.9-2.9-1.8 0-4 .9-4.9 2.6V9h-4.3v17.1h4.5zM97.7 15.6c.1-1.6 1.4-3.4 3.7-3.4 2.6 0 3.7 1.7 3.7 3.4h-7.4zm7.9 4.4c-.5 1.5-1.7 2.6-3.8 2.6-2.2 0-4.1-1.6-4.2-3.9h11.9c0-.1.1-.8.1-1.4 0-5.5-3.1-8.9-8.2-8.9-4.3 0-8.2 3.5-8.2 9 0 5.8 4 9.1 8.6 9.1 4.1 0 6.7-2.5 7.6-5.4l-3.8-1.1z"/><path fill="#30a7fe" d="M6.6 3.4c0 1.9-1.5 3.4-3.3 3.4C1.5 6.8 0 5.3 0 3.4S1.5 0 3.3 0c1.8 0 3.3 1.5 3.3 3.4z"/></svg>