<?xml version="1.0" encoding="utf-8"?>
<svg version="1.1" id="Layer_1" xmlns="http://www.w3.org/2000/svg" xmlns:xlink="http://www.w3.org/1999/xlink" x="0px" y="0px"
     viewBox="0 0 140 30" style="enable-background:new 0 0 110 40;" xml:space="preserve">
<style type="text/css">
	.st0{fill:#30A7FE;}
</style>
    <path d="M5.5,26.1V9H1v17.1H5.5z M0.5,3.4c0,1.5,1.3,2.8,2.8,2.8C4.8,6.2,6,4.9,6,3.4c0-1.6-1.2-2.9-2.8-2.9
	C1.7,0.5,0.5,1.8,0.5,3.4z"/>
    <path d="M14.1,16.2c0-2,1.1-3.5,3.1-3.5c2.2,0,3.1,1.5,3.1,3.4v10h4.5V15.3c0-3.8-1.9-6.8-6-6.8C17,8.5,15,9.3,14,11.1V9H9.6v17.1
	h4.5V16.2z"/>
    <path d="M36.1,12.7c2.2,0,3.3,1.5,3.7,2.9l4-1.4c-0.7-2.9-3.3-5.8-7.8-5.8c-4.8,0-8.6,3.8-8.6,9.1c0,5.3,3.9,9.1,8.8,9.1
	c4.4,0,7-2.9,7.8-5.8l-4-1.4c-0.4,1.3-1.5,2.9-3.8,2.9c-2.3,0-4.3-1.7-4.3-4.8S33.8,12.7,36.1,12.7z"/>
    <path d="M53.9,22.4c-2.2,0-4.2-1.7-4.2-4.9c0-3.2,2-4.9,4.2-4.9c2.2,0,4.2,1.6,4.2,4.9S56.1,22.4,53.9,22.4z M53.9,8.4
	c-5,0-8.7,3.8-8.7,9.1c0,5.3,3.8,9.1,8.7,9.1c5,0,8.7-3.8,8.7-9.1C62.6,12.2,58.8,8.4,53.9,8.4z"/>
    <path d="M69.7,26.1v-10c0-1.9,1.1-3.4,3.1-3.4c2,0,2.9,1.4,2.9,3.2v10.2h4.5v-10c0-1.8,1.1-3.4,3.1-3.4c2.1,0,2.9,1.4,2.9,3.2v10.2
	h4.4V15c0-4.6-2.9-6.5-6-6.5c-2.2,0-4,0.8-5.3,2.9c-0.8-1.8-2.7-2.9-4.9-2.9c-1.8,0-4,0.9-4.9,2.6V9h-4.3v17.1H69.7z"/>
    <path d="M97.7,15.6c0.1-1.6,1.4-3.4,3.7-3.4c2.6,0,3.7,1.7,3.7,3.4H97.7z M105.6,20c-0.5,1.5-1.7,2.6-3.8,2.6
	c-2.2,0-4.1-1.6-4.2-3.9h11.9c0-0.1,0.1-0.8,0.1-1.4c0-5.5-3.1-8.9-8.2-8.9c-4.3,0-8.2,3.5-8.2,9c0,5.8,4,9.1,8.6,9.1
	c4.1,0,6.7-2.5,7.6-5.4L105.6,20z"/>
    <path class="st0" d="M6.6,3.4c0,1.9-1.5,3.4-3.3,3.4C1.5,6.8,0,5.3,0,3.4C0,1.5,1.5,0,3.3,0C5.1,0,6.6,1.5,6.6,3.4z"/>
</svg>
