<svg xmlns="http://www.w3.org/2000/svg" viewBox="0 0 401.9 77.4"><path fill="black" d="M0 3.5h22.6v70.3H0zm77.4 31.9L31.7 0v73.9h21.1V42l45.7 35.4V3.5H77.4zm78.8-27.7c-5.9-2.8-12.9-4.2-21.1-4.2h-27.6v70.3h27.6c8.2 0 15.2-1.4 21.1-4.2s10.3-6.8 13.5-12.1c3.1-5.3 4.7-11.5 4.7-18.8 0-7.4-1.6-13.7-4.7-18.9-3.2-5.2-7.6-9.2-13.5-12.1m-6.5 39.6c-1 2.1-2.4 3.8-4.1 4.8-1.7 1.1-3.5 1.8-5.5 2.1s-4 .5-5.9.5h-3.6V22.6h3.6c1.9 0 3.9.2 5.9.5s3.9 1 5.5 2.1c1.7 1.1 3 2.7 4.1 4.8 1 2.1 1.6 5 1.6 8.6-.1 3.7-.6 6.6-1.6 8.7m50.8-43.8h-21.1v70.4h50.7V56.3h-29.6V46.2h27.6V29.1h-27.6v-8h29.6V3.5zM278.3 38 247.2 0l-13.1 73.9h23.6l3.6-28.8 17 22.2 17-22.2 3.6 28.8h23.6L309.5 0zM399 23.4c-1.9-4.6-4.7-8.5-8.2-11.8-3.6-3.3-7.7-5.8-12.5-7.5s-9.9-2.6-15.6-2.6c-5.5 0-10.6.9-15.4 2.6s-8.9 4.3-12.5 7.5c-3.6 3.3-6.3 7.2-8.3 11.8s-3 9.6-3 15.3c0 5.6 1 10.8 2.9 15.4 1.9 4.7 4.6 8.7 8.1 12.1s7.6 6 12.4 7.9c4.8 1.8 10.1 2.8 15.8 2.8 5.8 0 11-.9 15.8-2.8 4.8-1.8 8.9-4.5 12.4-7.9s6.2-7.5 8.1-12.1c1.9-4.7 2.9-9.8 2.9-15.4s-1-10.7-2.9-15.3m-22.4 24.3c-1.3 2.6-3.1 4.6-5.4 6.1-2.3 1.4-5.2 2.2-8.4 2.2-3.3 0-6.1-.7-8.4-2.2-2.3-1.4-4.2-3.5-5.4-6.1-1.3-2.6-1.9-5.6-1.9-9 0-3.5.6-6.5 1.9-9.1q1.95-3.9 5.4-6c2.3-1.4 5.2-2.2 8.4-2.2 3.5 0 6.4.7 8.7 2.2 2.3 1.4 4.1 3.5 5.3 6 1.2 2.6 1.8 5.6 1.8 9.1-.1 3.4-.7 6.4-2 9"/></svg>