<?xml version="1.0" encoding="UTF-8"?> <svg xmlns="http://www.w3.org/2000/svg" xmlns:xlink="http://www.w3.org/1999/xlink" version="1.1" id="Layer_1" x="0px" y="0px" viewBox="0 0 340.2 117.6" style="enable-background:new 0 0 340.2 117.6;" xml:space="preserve"> <style type="text/css"> .st0{fill:#2D2D2D;} .st1{fill:#D9262B;} .st2{fill:#D6262B;} .st3{fill:#D4262B;} .st4{fill:#D1262B;} .st5{fill:#CF262B;} .st6{fill:#CC262B;} .st7{fill:#C9262B;} .st8{fill:#C7262B;} .st9{fill:#C4262B;} .st10{fill:#C2262B;} .st11{fill:#BF262B;} .st12{fill:#BD262B;} .st13{fill:#BA262B;} .st14{fill:#B8262B;} .st15{fill:#B5262B;} .st16{fill:#B2262B;} .st17{fill:#B0262B;} .st18{fill:#AD262B;} .st19{fill:#AB262B;} .st20{fill:#A8262B;} .st21{fill:#A6262B;} .st22{fill:#A3262B;} .st23{fill:#A1262B;} .st24{fill:#9E262B;} .st25{fill:#FFFFFF;} </style> <rect x="151.5" y="39.1" class="st0" width="17.2" height="54.9"></rect> <g> <path class="st0" d="M183.2,39.1h17.1v28.4c0,3.2-0.4,14.1,9,14.1c2.8,0,8.6-2.8,8.6-10.2V39.1H235v38.5c0,5.5-0.1,7,0.4,16.4 h-14.7c0-0.8-0.5-3.9-0.8-8c-3.8,5.2-8.2,9.3-17.8,9.3c-19.8,0-18.9-24.2-18.9-20.4V39.1z"></path> </g> <g> <path class="st0" d="M281,51.9V39.1h-12.2V24.3L252,29v10.1h-7.2v12.8h7.2v23.8c0,20.6,16.8,19.7,18.7,19.7c1.9,0,5.3,0,9.8-1.3 V80.7c-11.8,2.8-11.7-4.5-11.7-8.6V51.9H281z"></path> </g> <g> <path class="st0" d="M304.5,60.4c0.2-4.5,3.4-11.1,10.7-11.1c8.2,0,9.3,8.4,9.6,11.1H304.5z M316,37.9c-12.4,0-27.7,9.1-27.7,29.2 c0,27.4,24.8,28.2,30.2,28.2c5.5,0,10.9-0.6,19-3.6L335,80.2c-21.8,6.6-29.5-1.2-30.4-8.1h35C344,39.1,319.1,37.9,316,37.9"></path> </g> <g> <path class="st0" d="M169.4,21.7c0,5.3-4.3,9.5-9.5,9.5c-5.3,0-9.5-4.3-9.5-9.5c0-5.3,4.3-9.5,9.5-9.5 C165.2,12.2,169.4,16.5,169.4,21.7"></path> </g> <g> <path class="st1" d="M117.6,58.8c0,32.5-26.3,58.8-58.8,58.8C26.3,117.6,0,91.3,0,58.8S26.3,0,58.8,0C91.3,0,117.6,26.3,117.6,58.8 "></path> </g> <g> <path class="st1" d="M40.3,95.2c-4.6,0-9.4-0.8-13.7-2.5c-2.6-1-5.1-2.7-6.3-5.2c-2-4,0.3-7.3,3.4-9.8c9.1-7.3,18.5-15,25.2-24.7 c2.9-4.2,5.6-8.7,8-13.3c2.2-4.3,4.5-8.2,8.5-11.1c3.8-2.7,8.4-4.2,13.1-4.1c2.6,0,5.1,0.5,7.6,1.4c9.5,3.5,17.7,13.2,12.5,29.7 c-5.1,16.2-20.8,30.2-41,36.7C51.4,94.2,45.6,95.2,40.3,95.2"></path> </g> <g> <path class="st2" d="M65.2,29.1c2.7-1.9,5.7-3.2,8.9-3.9c1.4-0.3,2.7-0.4,4.1-0.4c1.4,0,2.9,0.2,4.3,0.4c1.1,0.2,2.2,0.5,3.2,0.9 c9.4,3.6,17.5,13.2,12.4,29.5c-5.1,16-20.7,30-40.7,36.4c-6,1.9-11.7,2.9-17,2.9c-0.4,0-0.7,0-1.1,0c-4.3-0.1-8.6-0.9-12.6-2.4 c-1-0.4-2-0.9-2.9-1.5c-0.6-0.4-1.3-0.9-1.8-1.5c-0.6-0.6-1.1-1.3-1.5-2.1C18.7,83.4,21,80,24,77.6c9-7.2,18.3-14.9,24.9-24.5 c2.9-4.2,5.5-8.6,7.9-13.1C59,35.8,61.3,31.9,65.2,29.1"></path> </g> <g> <path class="st2" d="M65.2,29.5c2.6-1.9,5.6-3.3,8.8-3.9c1.3-0.3,2.7-0.4,4.1-0.4c1.4,0,2.9,0.1,4.3,0.4c1.1,0.2,2.2,0.5,3.2,0.9 C95,30,103,39.6,97.9,55.7c-5.1,15.9-20.6,29.8-40.4,36.1c-5.9,1.9-11.6,2.8-16.9,2.8c-0.4,0-0.7,0-1.1,0 c-4.2-0.1-8.5-0.9-12.5-2.4c-1-0.4-2-0.9-2.9-1.5c-0.6-0.4-1.2-0.9-1.8-1.5c-0.6-0.6-1.1-1.3-1.5-2.1c-1.9-3.9,0.4-7.2,3.4-9.6 c8.9-7.2,18.1-14.7,24.7-24.2c2.9-4.2,5.5-8.5,7.8-13C59,36.2,61.3,32.3,65.2,29.5"></path> </g> <g> <path class="st2" d="M65.1,29.9c2.6-1.9,5.6-3.4,8.7-4c1.3-0.3,2.7-0.4,4.1-0.5c1.4,0,2.9,0.1,4.3,0.4c1.1,0.2,2.2,0.5,3.2,0.9 c9.3,3.6,17.2,13.1,12.1,29C92.5,71.6,77,85.3,57.5,91.5c-5.9,1.9-11.5,2.8-16.8,2.8c-0.4,0-0.7,0-1.1,0c-4.2-0.1-8.5-0.9-12.4-2.4 c-1-0.4-2-0.9-2.8-1.5c-0.6-0.4-1.2-0.9-1.7-1.5c-0.6-0.6-1.1-1.3-1.4-2.1c-1.8-3.8,0.4-7.1,3.4-9.4c8.9-7.1,17.9-14.6,24.4-23.9 c2.9-4.1,5.4-8.4,7.8-12.8C59.1,36.5,61.3,32.7,65.1,29.9"></path> </g> <g> <path class="st3" d="M65.1,30.3c2.6-2,5.5-3.4,8.7-4.1c1.3-0.3,2.7-0.5,4.1-0.5c1.4,0,2.9,0.1,4.3,0.4c1.1,0.2,2.2,0.5,3.2,0.9 c9.3,3.6,17,13,11.9,28.8c-5.1,15.7-20.5,29.3-39.8,35.5c-5.8,1.9-11.5,2.8-16.6,2.8c-0.4,0-0.7,0-1.1,0c-4.2-0.1-8.4-0.9-12.3-2.4 c-1-0.4-2-0.9-2.8-1.5c-0.6-0.4-1.2-0.9-1.7-1.5c-0.6-0.6-1-1.3-1.4-2.1c-1.8-3.8,0.5-7,3.4-9.3c8.8-7,17.7-14.4,24.2-23.7 c2.8-4.1,5.4-8.3,7.7-12.7C59.1,36.9,61.3,33.2,65.1,30.3"></path> </g> <g> <path class="st3" d="M65,30.8c2.6-2,5.5-3.5,8.6-4.2c1.3-0.3,2.7-0.5,4.1-0.5c1.4,0,2.9,0.1,4.3,0.3c1.1,0.2,2.2,0.5,3.2,0.9 c9.3,3.6,16.8,13,11.8,28.6C92,71.4,76.7,85,57.6,91c-5.8,1.8-11.4,2.8-16.5,2.8c-0.3,0-0.7,0-1.1,0c-4.2-0.1-8.4-0.9-12.2-2.4 c-1-0.4-1.9-0.8-2.8-1.5c-0.6-0.4-1.1-0.9-1.6-1.5c-0.5-0.6-1-1.3-1.3-2c-1.7-3.7,0.5-6.9,3.4-9.2C34.2,70.4,43,63,49.4,53.8 c2.8-4,5.3-8.2,7.6-12.6C59.1,37.3,61.3,33.6,65,30.8"></path> </g> <g> <path class="st4" d="M65,31.2c2.6-2,5.4-3.5,8.5-4.3c1.3-0.3,2.7-0.5,4.1-0.6c1.4-0.1,2.9,0.1,4.3,0.3c1.1,0.2,2.2,0.5,3.2,0.9 c9.2,3.6,16.6,12.9,11.6,28.4c-5.1,15.4-20.3,28.9-39.2,34.9c-5.7,1.8-11.3,2.8-16.4,2.8c-0.3,0-0.7,0-1,0 c-4.1-0.1-8.3-0.9-12.1-2.3c-1-0.4-1.9-0.8-2.7-1.4c-0.6-0.4-1.1-0.9-1.6-1.4c-0.5-0.6-1-1.3-1.3-2c-1.6-3.7,0.6-6.8,3.4-9.1 c8.6-6.9,17.3-14.1,23.7-23.2c2.8-4,5.3-8.1,7.5-12.4C59.2,37.6,61.4,34,65,31.2"></path> </g> <g> <path class="st4" d="M65,31.6c2.6-2,5.4-3.6,8.5-4.4c1.3-0.3,2.7-0.6,4-0.6c1.4-0.1,2.9,0,4.3,0.3c1.1,0.2,2.2,0.5,3.3,0.9 c9.2,3.6,16.4,12.9,11.5,28.2c-5.1,15.3-20.2,28.6-38.9,34.6c-5.7,1.8-11.2,2.7-16.3,2.7c-0.3,0-0.7,0-1,0c-4.1-0.1-8.2-0.8-12-2.3 c-1-0.4-1.9-0.8-2.7-1.4c-0.6-0.4-1.1-0.9-1.6-1.4c-0.5-0.6-0.9-1.2-1.3-2c-1.6-3.6,0.6-6.7,3.4-9c8.5-6.8,17.1-14,23.4-23 c2.7-3.9,5.2-8,7.5-12.3C59.2,38,61.4,34.4,65,31.6"></path> </g> <g> <path class="st4" d="M64.9,32c2.6-2,5.3-3.6,8.4-4.5c1.3-0.4,2.7-0.6,4-0.7c1.4-0.1,2.9,0,4.3,0.3c1.2,0.2,2.3,0.5,3.3,0.9 c9.2,3.6,16.3,12.9,11.3,27.9c-5,15.2-20.2,28.4-38.6,34.3C52,92.1,46.6,93,41.5,93c-0.3,0-0.7,0-1,0c-4.1-0.1-8.2-0.8-11.9-2.3 c-1-0.4-1.9-0.8-2.7-1.4c-0.5-0.4-1.1-0.9-1.5-1.4c-0.5-0.6-0.9-1.2-1.2-2c-1.5-3.6,0.6-6.6,3.4-8.9c8.4-6.7,16.9-13.8,23.2-22.7 c2.7-3.9,5.2-7.9,7.4-12.1C59.2,38.4,61.4,34.8,64.9,32"></path> </g> <g> <path class="st5" d="M64.9,32.5c2.6-2,5.3-3.7,8.3-4.6c1.3-0.4,2.6-0.6,4-0.7c1.4-0.1,2.9,0,4.3,0.2c1.2,0.2,2.3,0.5,3.3,0.9 C93.9,32,100.9,41.1,96,56c-5,15-20.1,28.2-38.3,34c-5.6,1.8-11,2.7-16,2.7c-0.3,0-0.7,0-1,0c-4-0.1-8.1-0.8-11.8-2.3 c-0.9-0.4-1.9-0.8-2.6-1.4c-0.5-0.4-1-0.9-1.5-1.4c-0.5-0.6-0.9-1.2-1.2-1.9c-1.5-3.5,0.7-6.5,3.4-8.7c8.3-6.7,16.8-13.7,22.9-22.5 c2.7-3.8,5.1-7.8,7.3-12C59.3,38.7,61.4,35.2,64.9,32.5"></path> </g> <g> <path class="st5" d="M64.8,32.9c2.5-2,5.2-3.7,8.3-4.6c1.3-0.4,2.6-0.6,4-0.7c1.4-0.1,2.9,0,4.3,0.2c1.2,0.2,2.3,0.5,3.3,0.9 c9.1,3.6,15.9,12.8,11,27.5c-5,14.9-20,28-38,33.7c-5.6,1.8-10.9,2.7-15.9,2.7c-0.3,0-0.7,0-1,0c-4-0.1-8.1-0.8-11.7-2.3 c-0.9-0.4-1.9-0.8-2.6-1.4c-0.5-0.4-1-0.9-1.4-1.4c-0.5-0.6-0.9-1.2-1.1-1.9c-1.4-3.5,0.7-6.4,3.4-8.6c8.2-6.6,16.6-13.5,22.6-22.2 c2.7-3.8,5.1-7.8,7.3-11.8C59.3,39.1,61.4,35.6,64.8,32.9"></path> </g> <g> <path class="st6" d="M64.8,33.3c2.5-2,5.2-3.8,8.2-4.7c1.3-0.4,2.6-0.7,4-0.8c1.4-0.1,2.9-0.1,4.3,0.2c1.2,0.2,2.3,0.5,3.3,0.9 c9.1,3.6,15.8,12.7,10.9,27.3c-5,14.8-19.9,27.7-37.7,33.4c-5.5,1.8-10.8,2.7-15.8,2.7c-0.3,0-0.7,0-1,0c-4-0.1-8-0.8-11.6-2.2 c-0.9-0.4-1.8-0.8-2.6-1.4c-0.5-0.4-1-0.9-1.4-1.4c-0.5-0.5-0.8-1.2-1.1-1.9c-1.4-3.4,0.7-6.3,3.4-8.5c8.1-6.5,16.4-13.4,22.4-22 c2.6-3.8,5-7.7,7.2-11.7C59.3,39.4,61.4,36,64.8,33.3"></path> </g> <g> <path class="st6" d="M64.7,33.7c2.5-2.1,5.1-3.8,8.1-4.8c1.3-0.4,2.6-0.7,4-0.8c1.4-0.1,2.9-0.1,4.3,0.2c1.2,0.2,2.3,0.5,3.3,0.9 c9,3.7,15.6,12.7,10.7,27.1c-5,14.6-19.8,27.5-37.4,33.1c-5.5,1.8-10.8,2.6-15.6,2.6c-0.3,0-0.7,0-1,0c-4-0.1-7.9-0.8-11.5-2.2 c-0.9-0.4-1.8-0.8-2.5-1.3c-0.5-0.4-1-0.9-1.4-1.4c-0.4-0.5-0.8-1.2-1.1-1.9c-1.3-3.4,0.8-6.2,3.4-8.4c8-6.4,16.2-13.2,22.1-21.7 c2.6-3.7,5-7.6,7.1-11.6C59.3,39.8,61.4,36.4,64.7,33.7"></path> </g> <g> <path class="st6" d="M64.7,34.2c2.5-2.1,5.1-3.9,8.1-4.9c1.3-0.4,2.6-0.7,4-0.8c1.4-0.1,2.9-0.1,4.3,0.1c1.2,0.2,2.3,0.5,3.3,0.9 c9,3.7,15.4,12.6,10.5,26.8c-5,14.5-19.8,27.3-37.1,32.8c-5.4,1.7-10.7,2.6-15.5,2.6c-0.3,0-0.7,0-1,0c-3.9-0.1-7.9-0.8-11.5-2.2 c-0.9-0.4-1.8-0.7-2.5-1.3c-0.5-0.4-0.9-0.9-1.3-1.4c-0.4-0.5-0.8-1.2-1-1.8c-1.3-3.3,0.8-6.1,3.4-8.3c7.9-6.4,16-13.1,21.9-21.5 c2.6-3.7,4.9-7.5,7.1-11.4C59.4,40.2,61.4,36.8,64.7,34.2"></path> </g> <g> <path class="st7" d="M64.7,34.6c2.5-2.1,5-3.9,8-5c1.3-0.4,2.6-0.7,4-0.9c1.4-0.1,2.9-0.1,4.3,0.1c1.2,0.2,2.3,0.5,3.3,0.9 c8.9,3.7,15.2,12.6,10.4,26.6c-5,14.4-19.7,27.1-36.8,32.5c-5.4,1.7-10.6,2.6-15.4,2.6c-0.3,0-0.7,0-1,0c-3.9-0.1-7.8-0.8-11.4-2.2 c-0.9-0.4-1.8-0.7-2.4-1.3c-0.5-0.4-0.9-0.9-1.3-1.3c-0.4-0.5-0.7-1.1-1-1.8c-1.2-3.2,0.8-6,3.4-8.1c7.8-6.3,15.8-12.9,21.6-21.2 c2.6-3.6,4.9-7.4,7-11.3C59.4,40.5,61.5,37.2,64.7,34.6"></path> </g> <g> <path class="st7" d="M64.6,35c2.5-2.1,5-4,7.9-5.1c1.3-0.5,2.6-0.8,3.9-0.9c1.4-0.2,2.9-0.1,4.3,0.1c1.2,0.2,2.3,0.4,3.3,0.8 c8.9,3.7,15.1,12.5,10.2,26.4c-5,14.3-19.6,26.8-36.5,32.2c-5.4,1.7-10.5,2.6-15.2,2.6c-0.3,0-0.6,0-1,0c-3.9-0.1-7.8-0.8-11.3-2.2 c-0.9-0.4-1.8-0.7-2.4-1.3c-0.4-0.4-0.9-0.9-1.2-1.3c-0.4-0.5-0.7-1.1-0.9-1.8c-1.1-3.2,0.9-5.9,3.4-8c7.7-6.2,15.6-12.8,21.4-21 c2.5-3.6,4.8-7.3,6.9-11.1C59.4,40.9,61.5,37.6,64.6,35"></path> </g> <g> <path class="st8" d="M64.6,35.4c2.5-2.1,4.9-4,7.9-5.2c1.2-0.5,2.6-0.8,3.9-1c1.4-0.2,2.9-0.2,4.3,0.1c1.2,0.2,2.3,0.4,3.3,0.8 c8.9,3.7,14.9,12.5,10.1,26.2c-5,14.1-19.5,26.6-36.2,31.9c-5.3,1.7-10.4,2.6-15.1,2.6c-0.3,0-0.6,0-1,0c-3.9-0.1-7.7-0.8-11.2-2.1 c-0.9-0.3-1.7-0.7-2.4-1.3c-0.4-0.4-0.9-0.9-1.2-1.3c-0.4-0.5-0.7-1.1-0.9-1.7c-1.1-3.1,0.9-5.9,3.4-7.9 c7.6-6.1,15.4-12.7,21.1-20.7c2.5-3.5,4.8-7.2,6.8-11C59.5,41.3,61.5,38,64.6,35.4"></path> </g> <g> <path class="st8" d="M64.5,35.8c2.5-2.1,4.9-4.1,7.8-5.2c1.2-0.5,2.6-0.8,3.9-1c1.4-0.2,2.9-0.2,4.3,0c1.2,0.2,2.3,0.4,3.3,0.8 c8.8,3.7,14.7,12.5,9.9,26c-5,14-19.5,26.4-35.9,31.6c-5.3,1.7-10.3,2.5-15,2.6c-0.3,0-0.6,0-1,0c-3.8-0.1-7.6-0.8-11.1-2.1 c-0.9-0.3-1.7-0.7-2.3-1.3c-0.4-0.4-0.8-0.9-1.2-1.3c-0.4-0.5-0.6-1.1-0.9-1.7c-1-3.1,0.9-5.8,3.5-7.8c7.6-6.1,15.2-12.5,20.9-20.5 c2.5-3.5,4.7-7.1,6.8-10.9C59.5,41.6,61.5,38.5,64.5,35.8"></path> </g> <g> <path class="st8" d="M64.5,36.3c2.4-2.1,4.8-4.2,7.7-5.3c1.2-0.5,2.6-0.9,3.9-1c1.4-0.2,2.9-0.2,4.3,0c1.2,0.2,2.4,0.4,3.3,0.8 c8.8,3.7,14.5,12.4,9.8,25.7c-4.9,13.9-19.4,26.2-35.6,31.3c-5.2,1.7-10.2,2.5-14.9,2.5c-0.3,0-0.6,0-0.9,0 c-3.8-0.1-7.6-0.8-11-2.1c-0.9-0.3-1.7-0.7-2.3-1.3c-0.4-0.4-0.8-0.9-1.1-1.3c-0.4-0.5-0.6-1.1-0.8-1.7c-1-3,1-5.7,3.5-7.7 c7.5-6,15-12.4,20.6-20.2c2.4-3.4,4.7-7,6.7-10.7C59.5,42,61.5,38.9,64.5,36.3"></path> </g> <g> <path class="st9" d="M64.4,36.7c2.4-2.1,4.8-4.2,7.7-5.4c1.2-0.5,2.5-0.9,3.9-1.1c1.4-0.2,2.9-0.2,4.3,0c1.2,0.2,2.4,0.4,3.3,0.8 c8.8,3.7,14.4,12.4,9.6,25.5C88.3,70.3,74,82.4,58,87.6c-5.2,1.7-10.2,2.5-14.7,2.5c-0.3,0-0.6,0-0.9,0c-3.8-0.1-7.5-0.7-10.9-2.1 c-0.9-0.3-1.7-0.7-2.3-1.2c-0.4-0.4-0.8-0.9-1.1-1.3c-0.3-0.5-0.6-1.1-0.8-1.7c-0.9-3,1-5.6,3.5-7.5c7.4-5.9,14.8-12.2,20.3-20 c2.4-3.4,4.6-6.9,6.6-10.6C59.6,42.3,61.5,39.3,64.4,36.7"></path> </g> <g> <path class="st9" d="M64.4,37.1c2.4-2.2,4.7-4.3,7.6-5.5c1.2-0.5,2.5-0.9,3.9-1.1c1.4-0.2,2.9-0.2,4.3,0c1.2,0.2,2.4,0.4,3.3,0.8 C92.2,35,97.7,43.6,93,56.6c-4.9,13.6-19.2,25.7-35,30.8c-5.1,1.6-10.1,2.5-14.6,2.5c-0.3,0-0.6,0-0.9,0c-3.8-0.1-7.4-0.7-10.8-2.1 c-0.8-0.3-1.7-0.6-2.2-1.2c-0.4-0.4-0.7-0.9-1-1.3c-0.3-0.5-0.6-1-0.7-1.6c-0.9-2.9,1-5.5,3.5-7.4c7.3-5.9,14.6-12.1,20.1-19.7 c2.4-3.3,4.6-6.8,6.6-10.4C59.6,42.7,61.5,39.7,64.4,37.1"></path> </g> <g> <path class="st10" d="M64.4,37.5c2.4-2.2,4.7-4.3,7.5-5.6c1.2-0.5,2.5-0.9,3.9-1.2c1.4-0.2,2.9-0.3,4.3-0.1 c1.2,0.2,2.4,0.4,3.3,0.8c8.7,3.8,14,12.3,9.3,25.1C87.8,70.1,73.6,82.1,58,87.1c-5.1,1.6-10,2.5-14.5,2.5c-0.3,0-0.6,0-0.9,0 c-3.7-0.1-7.4-0.7-10.7-2c-0.8-0.3-1.6-0.6-2.2-1.2c-0.4-0.4-0.7-0.8-1-1.3c-0.3-0.5-0.5-1-0.7-1.6c-0.8-2.9,1.1-5.4,3.5-7.3 c7.2-5.8,14.4-11.9,19.8-19.5c2.4-3.3,4.5-6.7,6.5-10.3C59.6,43.1,61.5,40.1,64.4,37.5"></path> </g> <g> <path class="st10" d="M64.3,38c2.4-2.2,4.6-4.4,7.5-5.7c1.2-0.6,2.5-1,3.9-1.2c1.4-0.2,2.9-0.3,4.3-0.1c1.3,0.2,2.4,0.4,3.3,0.8 c8.6,3.8,13.8,12.2,9.2,24.9C87.5,70,73.4,81.9,58,86.8c-5,1.6-9.9,2.4-14.4,2.5c-0.3,0-0.6,0-0.9,0c-3.7-0.1-7.3-0.7-10.6-2 c-0.8-0.3-1.6-0.6-2.1-1.2c-0.3-0.4-0.7-0.8-1-1.3c-0.3-0.5-0.5-1-0.6-1.6c-0.8-2.8,1.1-5.3,3.5-7.2c7.1-5.7,14.2-11.8,19.6-19.2 c2.3-3.3,4.5-6.6,6.4-10.1C59.6,43.4,61.6,40.5,64.3,38"></path> </g> <g> <path class="st10" d="M64.3,38.4c2.4-2.2,4.6-4.4,7.4-5.8c1.2-0.6,2.5-1,3.9-1.2c1.4-0.3,2.9-0.3,4.3-0.1c1.3,0.1,2.4,0.4,3.3,0.8 c8.6,3.8,13.7,12.2,9,24.6c-4.9,13.2-19,25-34.1,29.9c-5,1.6-9.8,2.4-14.2,2.4c-0.3,0-0.6,0-0.9,0c-3.7-0.1-7.3-0.7-10.5-2 c-0.8-0.3-1.6-0.6-2.1-1.2c-0.3-0.4-0.7-0.8-0.9-1.2c-0.3-0.5-0.5-1-0.6-1.6c-0.7-2.8,1.1-5.2,3.5-7.1c7-5.6,14-11.6,19.3-19 c2.3-3.2,4.4-6.5,6.4-10C59.7,43.8,61.6,40.9,64.3,38.4"></path> </g> <g> <path class="st11" d="M64.2,38.8c2.4-2.2,4.5-4.5,7.3-5.9c1.2-0.6,2.5-1,3.8-1.3c1.4-0.3,2.9-0.3,4.3-0.2c1.3,0.1,2.4,0.4,3.3,0.8 c8.6,3.8,13.5,12.1,8.9,24.4C87,69.9,73,81.6,58.1,86.3c-5,1.6-9.7,2.4-14.1,2.4c-0.3,0-0.6,0-0.9,0c-3.6-0.1-7.2-0.7-10.4-2 c-0.8-0.3-1.6-0.6-2.1-1.2c-0.3-0.4-0.6-0.8-0.9-1.2c-0.3-0.5-0.4-1-0.6-1.5c-0.6-2.7,1.2-5.1,3.5-7c6.9-5.6,13.9-11.5,19.1-18.7 c2.3-3.2,4.4-6.5,6.3-9.9C59.7,44.1,61.6,41.3,64.2,38.8"></path> </g> <g> <path class="st11" d="M64.2,39.2c2.4-2.2,4.4-4.5,7.3-5.9c1.2-0.6,2.5-1,3.8-1.3c1.4-0.3,2.9-0.3,4.3-0.2c1.3,0.1,2.4,0.4,3.3,0.8 c8.5,3.8,13.3,12.1,8.7,24.2c-4.9,13-18.8,24.6-33.5,29.3c-4.9,1.6-9.6,2.4-14,2.4c-0.3,0-0.6,0-0.9,0c-3.6-0.1-7.2-0.7-10.3-1.9 c-0.8-0.3-1.6-0.6-2-1.2c-0.3-0.4-0.6-0.8-0.8-1.2c-0.3-0.4-0.4-1-0.5-1.5c-0.6-2.7,1.2-5,3.5-6.8c6.8-5.5,13.7-11.3,18.8-18.5 c2.3-3.1,4.3-6.4,6.2-9.7C59.7,44.5,61.6,41.7,64.2,39.2"></path> </g> <g> <path class="st11" d="M64.1,39.7c2.3-2.2,4.4-4.6,7.2-6c1.2-0.6,2.5-1.1,3.8-1.3c1.4-0.3,2.9-0.4,4.3-0.2c1.3,0.1,2.4,0.4,3.3,0.8 c8.5,3.8,13.1,12.1,8.6,24c-4.9,12.9-18.8,24.4-33.2,29c-4.9,1.6-9.6,2.4-13.9,2.4c-0.3,0-0.6,0-0.9,0c-3.6-0.1-7.1-0.7-10.2-1.9 c-0.8-0.3-1.5-0.6-2-1.1c-0.3-0.4-0.6-0.8-0.8-1.2c-0.2-0.4-0.4-0.9-0.5-1.5c-0.5-2.6,1.3-4.9,3.5-6.7c6.7-5.4,13.5-11.2,18.6-18.2 c2.2-3.1,4.3-6.3,6.1-9.6C59.8,44.9,61.6,42.1,64.1,39.7"></path> </g> <g> <path class="st12" d="M64.1,40.1c2.3-2.3,4.3-4.6,7.1-6.1c1.2-0.6,2.5-1.1,3.8-1.4c1.4-0.3,2.9-0.4,4.3-0.2 c1.3,0.1,2.4,0.4,3.3,0.8c8.5,3.8,12.9,12,8.4,23.8C86.2,69.6,72.4,81,58.2,85.6c-4.8,1.5-9.5,2.3-13.7,2.4c-0.3,0-0.6,0-0.9,0 c-3.6-0.1-7-0.7-10.2-1.9c-0.8-0.3-1.5-0.5-2-1.1c-0.3-0.4-0.6-0.8-0.8-1.2c-0.2-0.4-0.3-0.9-0.4-1.5c-0.5-2.6,1.3-4.8,3.5-6.6 c6.6-5.3,13.3-11,18.3-18c2.2-3,4.2-6.2,6.1-9.4C59.8,45.2,61.6,42.5,64.1,40.1"></path> </g> <g> <path class="st12" d="M64,40.5c2.3-2.3,4.3-4.7,7-6.2c1.2-0.6,2.4-1.1,3.8-1.4c1.4-0.3,2.9-0.4,4.3-0.3c1.3,0.1,2.5,0.4,3.3,0.8 c8.4,3.8,12.8,12,8.3,23.5C86,69.5,72.2,80.8,58.2,85.3c-4.8,1.5-9.4,2.3-13.6,2.3c-0.3,0-0.6,0-0.9,0c-3.5-0.1-7-0.7-10.1-1.9 c-0.8-0.3-1.5-0.5-1.9-1.1c-0.3-0.4-0.5-0.8-0.7-1.2c-0.2-0.4-0.3-0.9-0.4-1.4c-0.4-2.5,1.3-4.7,3.5-6.5 c6.5-5.3,13.1-10.9,18.1-17.7c2.2-3,4.2-6.1,6-9.3C59.8,45.6,61.6,42.9,64,40.5"></path> </g> <g> <path class="st13" d="M64,40.9c2.3-2.3,4.2-4.7,7-6.3c1.2-0.7,2.4-1.2,3.8-1.5c1.4-0.3,2.9-0.4,4.3-0.3c1.3,0.1,2.5,0.4,3.3,0.8 C90.8,37.5,95,45.6,90.6,57c-4.9,12.5-18.5,23.7-32.3,28.1c-4.7,1.5-9.3,2.3-13.5,2.3c-0.3,0-0.6,0-0.9,0c-3.5-0.1-6.9-0.7-10-1.9 c-0.8-0.3-1.5-0.5-1.9-1.1c-0.2-0.4-0.5-0.8-0.7-1.2c-0.2-0.4-0.3-0.9-0.4-1.4c-0.4-2.5,1.4-4.6,3.5-6.4 c6.4-5.2,12.9-10.7,17.8-17.5c2.2-2.9,4.1-6,5.9-9.2C59.9,46,61.6,43.3,64,40.9"></path> </g> <g> <path class="st13" d="M64,41.3c2.3-2.3,4.2-4.8,6.9-6.4c1.2-0.7,2.4-1.2,3.8-1.5c1.4-0.3,2.9-0.4,4.4-0.3c1.3,0.1,2.5,0.4,3.3,0.8 c8.4,3.8,12.4,11.9,8,23.1c-4.9,12.3-18.4,23.5-32,27.8c-4.7,1.5-9.2,2.3-13.4,2.3c-0.3,0-0.6,0-0.9,0c-3.5-0.1-6.8-0.7-9.9-1.8 c-0.8-0.3-1.6-0.4-1.9-1.1c-0.3-0.3-0.5-0.8-0.6-1.2c-0.2-0.4-0.3-0.9-0.3-1.4c-0.3-2.4,1.4-4.6,3.5-6.2 c6.3-5.1,12.7-10.6,17.5-17.2c2.1-2.9,4.1-5.9,5.9-9C59.9,46.3,61.6,43.7,64,41.3"></path> </g> <g> <path class="st13" d="M63.9,41.8c2.3-2.3,4.1-4.9,6.8-6.5c1.1-0.7,2.4-1.2,3.8-1.5c1.4-0.3,2.9-0.5,4.4-0.3 c1.3,0.1,2.5,0.4,3.3,0.8C90.5,38.1,94.4,46,90,57.1c-4.9,12.2-18.4,23.2-31.7,27.5c-4.7,1.5-9.1,2.2-13.2,2.3c-0.3,0-0.6,0-0.8,0 c-3.5-0.1-6.8-0.6-9.8-1.8c-0.7-0.3-1.6-0.4-1.8-1.1c-0.3-0.3-0.5-0.8-0.6-1.1c-0.2-0.4-0.2-0.9-0.3-1.4c-0.2-2.4,1.4-4.5,3.5-6.1 c6.3-5.1,12.5-10.5,17.3-17c2.1-2.8,4-5.8,5.8-8.9C59.9,46.7,61.6,44.1,63.9,41.8"></path> </g> <g> <path class="st13" d="M63.9,42.2c2.3-2.3,4.1-4.9,6.8-6.5c1.1-0.7,2.4-1.2,3.7-1.6c1.4-0.4,2.9-0.5,4.4-0.4 c1.3,0.1,2.5,0.4,3.3,0.7c8.3,3.9,12.1,11.8,7.7,22.6c-4.9,12.1-18.3,23-31.4,27.2c-4.6,1.5-9,2.2-13.1,2.3c-0.3,0-0.6,0-0.8,0 c-3.4-0.1-6.7-0.6-9.7-1.8c-0.7-0.3-1.5-0.4-1.8-1c-0.3-0.3-0.4-0.8-0.6-1.1c-0.2-0.4-0.2-0.9-0.2-1.3c-0.2-2.3,1.5-4.4,3.5-6 c6.2-5,12.3-10.3,17-16.7c2.1-2.8,4-5.7,5.7-8.7C59.9,47,61.6,44.5,63.9,42.2"></path> </g> <g> <path class="st14" d="M63.8,42.6c2.2-2.4,4-5,6.7-6.6c1.1-0.7,2.4-1.3,3.7-1.6c1.4-0.4,2.9-0.5,4.4-0.4c1.3,0.1,2.5,0.3,3.3,0.7 c8.2,3.9,11.9,11.7,7.5,22.4c-4.9,12-18.2,22.8-31.2,26.9c-4.6,1.5-8.9,2.2-13,2.2c-0.3,0-0.6,0-0.8,0c-3.4-0.1-6.7-0.6-9.6-1.8 c-0.7-0.3-1.5-0.4-1.7-1c-0.2-0.3-0.4-0.8-0.5-1.1c-0.2-0.4-0.2-0.8-0.2-1.3c-0.1-2.3,1.5-4.3,3.5-5.9C42,70.3,48.1,65,52.7,58.7 c2-2.8,3.9-5.6,5.6-8.6C60,47.4,61.7,44.9,63.8,42.6"></path> </g> <g> <path class="st14" d="M63.8,43c2.2-2.4,4-5,6.6-6.7c1.1-0.7,2.4-1.3,3.7-1.7c1.4-0.4,2.9-0.5,4.4-0.4c1.3,0.1,2.5,0.3,3.3,0.7 c8.2,3.9,11.7,11.7,7.4,22.2C84.4,69,71.1,79.8,58.4,83.8c-4.5,1.4-8.9,2.2-12.9,2.2c-0.3,0-0.5,0-0.8,0c-3.4,0-6.6-0.6-9.5-1.8 c-0.7-0.3-1.5-0.4-1.7-1c-0.2-0.3-0.4-0.8-0.5-1.1c-0.1-0.4-0.1-0.8-0.2-1.3c-0.1-2.2,1.5-4.2,3.5-5.8c6-4.8,11.9-10,16.5-16.2 c2-2.7,3.9-5.5,5.6-8.4C60,47.8,61.7,45.3,63.8,43"></path> </g> <g> <path class="st15" d="M63.7,43.5c2.2-2.4,3.9-5.1,6.6-6.8c1.1-0.7,2.4-1.3,3.7-1.7c1.4-0.4,2.9-0.5,4.4-0.4 c1.3,0.1,2.5,0.3,3.3,0.7c8.2,3.9,11.5,11.6,7.2,22C84.1,69,70.9,79.6,58.4,83.6c-4.5,1.4-8.8,2.2-12.7,2.2c-0.3,0-0.5,0-0.8,0 c-3.3,0-6.5-0.6-9.4-1.7c-0.7-0.3-1.5-0.4-1.7-1c-0.2-0.3-0.3-0.8-0.4-1.1c-0.1-0.4-0.1-0.8-0.1-1.3c0-2.2,1.6-4.1,3.5-5.7 c5.9-4.8,11.7-9.9,16.3-16c2-2.7,3.8-5.4,5.5-8.3C60,48.1,61.7,45.7,63.7,43.5"></path> </g> <g> <path class="st15" d="M63.7,43.9c2.2-2.4,3.9-5.1,6.5-6.9c1.1-0.8,2.4-1.3,3.7-1.7c1.4-0.4,2.9-0.6,4.4-0.5 c1.4,0.1,2.5,0.3,3.3,0.7c8.1,3.9,11.3,11.6,7.1,21.8c-4.8,11.6-18,22.1-30.3,26c-4.4,1.4-8.7,2.2-12.6,2.2c-0.3,0-0.5,0-0.8,0 c-3.3,0-6.5-0.6-9.3-1.7c-0.7-0.3-1.5-0.3-1.6-1c-0.2-0.3-0.3-0.8-0.4-1.1c-0.1-0.4-0.1-0.8-0.1-1.2c0-2.1,1.6-4,3.5-5.5 c5.8-4.7,11.5-9.7,16-15.7c2-2.6,3.8-5.3,5.4-8.2C60.1,48.5,61.7,46.1,63.7,43.9"></path> </g> <g> <path class="st15" d="M63.7,44.3c2.2-2.4,3.8-5.2,6.4-7c1.1-0.8,2.4-1.4,3.7-1.8c1.4-0.4,2.9-0.6,4.4-0.5c1.4,0.1,2.5,0.3,3.3,0.7 c8.1,3.9,11.2,11.6,6.9,21.5c-4.8,11.4-17.9,21.9-30,25.7c-4.4,1.4-8.6,2.1-12.5,2.2c-0.3,0-0.5,0-0.8,0c-3.3,0-6.4-0.6-9.2-1.7 c-0.7-0.3-1.5-0.3-1.6-1c-0.2-0.3-0.3-0.8-0.4-1.1c-0.1-0.4-0.1-0.8,0-1.2c0.1-2,1.6-3.9,3.5-5.4c5.7-4.6,11.3-9.6,15.8-15.5 c1.9-2.6,3.7-5.3,5.4-8C60.1,48.9,61.7,46.5,63.7,44.3"></path> </g> <g> <path class="st16" d="M63.6,44.7c2.2-2.4,3.8-5.2,6.4-7.1c1.1-0.8,2.3-1.4,3.7-1.8c1.4-0.4,2.9-0.6,4.4-0.5 c1.4,0.1,2.5,0.3,3.3,0.7c8.1,3.9,11,11.5,6.8,21.3C83.3,68.7,70.3,79,58.5,82.8c-4.4,1.4-8.5,2.1-12.4,2.2c-0.3,0-0.5,0-0.8,0 c-3.3,0-6.4-0.6-9.1-1.7c-0.7-0.3-1.5-0.3-1.6-1c-0.2-0.3-0.3-0.8-0.3-1.1c-0.1-0.4,0-0.8,0-1.2c0.1-2,1.7-3.8,3.5-5.3 c5.6-4.6,11.1-9.4,15.5-15.2c1.9-2.5,3.7-5.2,5.3-7.9C60.1,49.2,61.7,46.9,63.6,44.7"></path> </g> <g> <path class="st16" d="M63.6,45.2c2.1-2.5,3.7-5.3,6.3-7.2c1.1-0.8,2.3-1.4,3.7-1.8c1.4-0.4,2.9-0.6,4.4-0.5 c1.4,0.1,2.6,0.3,3.4,0.7c8,4,10.8,11.5,6.6,21.1C83,68.6,70.1,78.9,58.5,82.6c-4.3,1.4-8.4,2.1-12.2,2.1c-0.3,0-0.5,0-0.8,0 c-3.2,0-6.3-0.6-9-1.7c-0.7-0.3-1.4-0.3-1.5-0.9c-0.2-0.3-0.2-0.8-0.3-1c-0.1-0.4,0-0.7,0-1.2c0.2-1.9,1.7-3.7,3.5-5.2 c5.5-4.5,10.9-9.3,15.3-15c1.9-2.5,3.6-5.1,5.2-7.7C60.1,49.6,61.7,47.3,63.6,45.2"></path> </g> <g> <path class="st17" d="M63.5,45.6c2.1-2.5,3.7-5.3,6.2-7.2c1.1-0.8,2.3-1.5,3.6-1.9c1.4-0.4,2.9-0.6,4.4-0.6 c1.4,0.1,2.6,0.3,3.4,0.7c8,4,10.6,11.4,6.5,20.9c-4.8,11.1-17.7,21.2-29.1,24.8c-4.3,1.4-8.3,2.1-12.1,2.1c-0.3,0-0.5,0-0.8,0 c-3.2,0-6.2-0.6-9-1.6c-0.7-0.3-1.4-0.3-1.5-0.9c-0.2-0.3-0.2-0.8-0.3-1c-0.1-0.3,0-0.7,0.1-1.1c0.2-1.9,1.7-3.6,3.5-5.1 c5.4-4.4,10.8-9.1,15-14.7c1.9-2.4,3.6-5,5.1-7.6C60.2,49.9,61.7,47.7,63.5,45.6"></path> </g> <g> <path class="st17" d="M63.5,46c2.1-2.5,3.6-5.4,6.2-7.3c1.1-0.8,2.3-1.5,3.6-1.9c1.4-0.5,2.9-0.7,4.4-0.6c1.4,0.1,2.6,0.3,3.4,0.7 c7.9,4,10.4,11.4,6.3,20.7c-4.8,10.9-17.6,21-28.8,24.6c-4.2,1.3-8.3,2-12,2.1c-0.3,0-0.5,0-0.8,0c-3.2,0-6.2-0.6-8.9-1.6 c-0.7-0.3-1.4-0.3-1.4-0.9c-0.1-0.2-0.2-0.8-0.2-1c0-0.3,0.1-0.7,0.1-1.1c0.3-1.8,1.8-3.5,3.5-4.9c5.3-4.3,10.6-9,14.7-14.5 c1.8-2.4,3.5-4.9,5.1-7.5C60.2,50.3,61.7,48.1,63.5,46"></path> </g> <g> <path class="st17" d="M63.4,46.4c2.1-2.5,3.6-5.4,6.1-7.4c1.1-0.8,2.3-1.5,3.6-2c1.4-0.5,2.9-0.7,4.4-0.6c1.4,0.1,2.6,0.3,3.4,0.7 c7.9,4,10.3,11.3,6.2,20.4c-4.8,10.8-17.5,20.8-28.5,24.3c-4.2,1.3-8.2,2-11.8,2.1c-0.3,0-0.5,0-0.8,0c-3.2,0-6.1-0.6-8.8-1.6 c-0.6-0.3-1.4-0.3-1.4-0.9c-0.1-0.2-0.2-0.8-0.2-1c0-0.3,0.1-0.7,0.2-1.1c0.4-1.8,1.8-3.4,3.5-4.8c5.2-4.3,10.4-8.8,14.5-14.2 c1.8-2.3,3.5-4.8,5-7.3C60.2,50.7,61.7,48.5,63.4,46.4"></path> </g> <g> <path class="st18" d="M63.4,46.8c2.1-2.5,3.5-5.5,6-7.5c1.1-0.9,2.3-1.5,3.6-2c1.4-0.5,2.9-0.7,4.4-0.6c1.4,0.1,2.6,0.3,3.4,0.7 c7.9,4,10.1,11.3,6,20.2c-4.8,10.7-17.4,20.5-28.2,24c-4.1,1.3-8.1,2-11.7,2.1c-0.3,0-0.5,0-0.7,0c-3.1,0-6.1-0.5-8.7-1.6 c-0.6-0.3-1.4-0.2-1.4-0.9c-0.1-0.2-0.1-0.8-0.1-1c0-0.3,0.1-0.7,0.2-1.1c0.4-1.7,1.9-3.3,3.5-4.7c5.1-4.2,10.2-8.7,14.2-14 c1.8-2.3,3.4-4.7,4.9-7.2C60.3,51,61.7,48.9,63.4,46.8"></path> </g> <g> <path class="st18" d="M63.4,47.3c2.1-2.6,3.5-5.6,6-7.6c1.1-0.9,2.3-1.6,3.6-2c1.4-0.5,2.9-0.7,4.4-0.7c1.4,0.1,2.6,0.3,3.4,0.7 c7.8,4,9.9,11.2,5.9,20C81.7,68.2,69.2,78,58.6,81.3c-4.1,1.3-8,2-11.6,2c-0.2,0-0.5,0-0.7,0c-3.1,0-6-0.5-8.6-1.6 c-0.6-0.2-1.4-0.2-1.3-0.9c-0.1-0.2-0.1-0.8-0.1-1c0-0.3,0.1-0.7,0.2-1c0.5-1.7,1.9-3.2,3.5-4.6c5-4.1,10-8.5,14-13.7 c1.7-2.3,3.4-4.6,4.9-7C60.3,51.4,61.7,49.3,63.4,47.3"></path> </g> <g> <path class="st19" d="M63.3,47.7c2-2.6,3.4-5.6,5.9-7.7c1-0.9,2.3-1.6,3.6-2.1c1.4-0.5,2.9-0.8,4.4-0.7c1.4,0.1,2.6,0.3,3.4,0.7 c7.8,4,9.7,11.2,5.7,19.8C81.4,68.1,69,77.8,58.7,81.1c-4,1.3-7.9,2-11.5,2c-0.2,0-0.5,0-0.7,0c-3.1,0-5.9-0.5-8.5-1.5 c-0.6-0.2-1.3-0.2-1.3-0.9c-0.1-0.2-0.1-0.8-0.1-1c0-0.3,0.2-0.6,0.3-1c0.5-1.6,1.9-3.2,3.5-4.5c5-4,9.8-8.4,13.7-13.5 c1.7-2.2,3.3-4.5,4.8-6.9C60.3,51.8,61.7,49.7,63.3,47.7"></path> </g> <g> <path class="st19" d="M63.3,48.1c2-2.6,3.4-5.7,5.8-7.8c1-0.9,2.3-1.6,3.6-2.1c1.4-0.5,2.9-0.8,4.4-0.7c1.4,0.1,2.6,0.3,3.4,0.7 c7.8,4,9.5,11.1,5.6,19.6C81.2,68,68.8,77.6,58.7,80.8c-4,1.3-7.8,1.9-11.3,2c-0.2,0-0.5,0-0.7,0c-3,0-5.9-0.5-8.4-1.5 c-0.6-0.2-1.3-0.2-1.3-0.8c-0.1-0.2,0-0.8,0-1c0-0.3,0.2-0.6,0.3-1c0.6-1.6,2-3.1,3.5-4.4c4.9-4,9.6-8.3,13.5-13.2 c1.7-2.2,3.3-4.4,4.7-6.7C60.4,52.1,61.7,50.1,63.3,48.1"></path> </g> <g> <path class="st19" d="M63.2,48.5c2-2.6,3.3-5.7,5.8-7.9c1-0.9,2.2-1.6,3.6-2.2c1.4-0.5,2.9-0.8,4.4-0.7c1.4,0.1,2.6,0.3,3.4,0.7 c7.7,4,9.3,11.1,5.4,19.3c-4.8,10.2-17.1,19.6-27,22.8c-4,1.3-7.7,1.9-11.2,2c-0.2,0-0.5,0-0.7,0c-3,0-5.8-0.5-8.3-1.5 c-0.6-0.2-1.3-0.2-1.2-0.8c-0.1-0.2,0-0.8,0-0.9c0.1-0.3,0.2-0.6,0.4-0.9c0.6-1.5,2-3,3.5-4.2c4.8-3.9,9.4-8.1,13.2-13 c1.7-2.1,3.2-4.3,4.7-6.6C60.4,52.5,61.7,50.5,63.2,48.5"></path> </g> <g> <path class="st20" d="M63.2,49c2-2.6,3.3-5.8,5.7-7.9c1-0.9,2.2-1.7,3.5-2.2c1.4-0.5,2.9-0.8,4.4-0.8c1.4,0,2.6,0.3,3.4,0.7 c7.7,4.1,9.2,11,5.3,19.1c-4.8,10-17,19.4-26.7,22.5c-3.9,1.3-7.6,1.9-11.1,2c-0.2,0-0.5,0-0.7,0c-3,0-5.8-0.5-8.2-1.5 c-0.6-0.2-1.3-0.2-1.2-0.8c-0.1-0.2,0-0.7,0.1-0.9c0.1-0.3,0.3-0.6,0.4-0.9c0.7-1.5,2-2.9,3.5-4.1c4.7-3.8,9.2-8,13-12.7 c1.6-2.1,3.2-4.2,4.6-6.5C60.4,52.8,61.7,50.9,63.2,49"></path> </g> <g> <path class="st20" d="M63.1,49.4c2-2.7,3.2-5.8,5.6-8c1-0.9,2.2-1.7,3.5-2.2c1.4-0.6,2.9-0.8,4.4-0.8c1.4,0,2.7,0.3,3.4,0.6 c7.6,4.1,9,11,5.1,18.9c-4.8,9.9-17,19.2-26.4,22.2c-3.9,1.2-7.6,1.9-11,1.9c-0.2,0-0.5,0-0.7,0c-3,0-5.7-0.5-8.1-1.4 c-0.6-0.2-1.3-0.1-1.2-0.8c0-0.2,0-0.7,0.1-0.9c0.1-0.3,0.3-0.6,0.5-0.9c0.7-1.4,2.1-2.8,3.6-4c4.6-3.8,9-7.8,12.7-12.5 c1.6-2,3.1-4.1,4.5-6.3C60.4,53.2,61.8,51.3,63.1,49.4"></path> </g> <g> <path class="st21" d="M63.1,49.8c1.9-2.7,3.2-5.9,5.5-8.1c1-1,2.2-1.7,3.5-2.3c1.4-0.6,2.9-0.9,4.4-0.8c1.5,0,2.7,0.3,3.4,0.6 c7.6,4.1,8.8,10.9,5,18.7c-4.8,9.8-16.9,19-26.1,21.9c-3.8,1.2-7.5,1.9-10.8,1.9c-0.2,0-0.5,0-0.7,0c-2.9,0-5.6-0.5-8-1.4 c-0.6-0.2-1.3-0.1-1.1-0.8c0-0.2,0.1-0.7,0.1-0.9c0.1-0.3,0.3-0.6,0.5-0.9c0.8-1.4,2.1-2.7,3.6-3.9c4.5-3.7,8.8-7.7,12.4-12.2 c1.6-2,3.1-4,4.4-6.2C60.5,53.6,61.8,51.7,63.1,49.8"></path> </g> <g> <path class="st21" d="M63.1,50.2c1.9-2.7,3.1-5.9,5.5-8.2c1-1,2.2-1.8,3.5-2.3c1.4-0.6,2.9-0.9,4.4-0.8c1.5,0,2.7,0.2,3.4,0.6 c7.6,4.1,8.6,10.9,4.8,18.5c-4.8,9.6-16.8,18.7-25.8,21.6c-3.8,1.2-7.4,1.8-10.7,1.9c-0.2,0-0.5,0-0.7,0c-2.9,0-5.6-0.5-7.9-1.4 c-0.6-0.2-1.3-0.1-1.1-0.8c0-0.2,0.1-0.7,0.2-0.9c0.1-0.3,0.4-0.5,0.5-0.8c0.8-1.3,2.1-2.6,3.6-3.8c4.4-3.6,8.6-7.5,12.2-12 c1.6-1.9,3-4,4.4-6C60.5,53.9,61.8,52.1,63.1,50.2"></path> </g> <g> <path class="st21" d="M63,50.7c1.9-2.7,3.1-6,5.4-8.3c1-1,2.2-1.8,3.5-2.3c1.4-0.6,2.9-0.9,4.4-0.9c1.5,0,2.7,0.2,3.4,0.6 c7.5,4.1,8.4,10.9,4.7,18.2c-4.8,9.5-16.7,18.5-25.5,21.3c-3.7,1.2-7.3,1.8-10.6,1.9c-0.2,0-0.5,0-0.7,0c-2.9,0-5.5-0.5-7.8-1.4 c-0.5-0.2-1.1-0.1-1-0.7c0-0.2,0.1-0.7,0.2-0.9c0.1-0.3,0.4-0.5,0.6-0.8c0.9-1.3,2.2-2.5,3.6-3.6c4.3-3.5,8.4-7.4,11.9-11.7 c1.5-1.9,3-3.9,4.3-5.9C60.5,54.3,61.8,52.5,63,50.7"></path> </g> <g> <path class="st22" d="M63,51.1c1.9-2.7,3-6,5.3-8.4c1-1,2.2-1.8,3.5-2.4c1.4-0.6,2.9-0.9,4.4-0.9c1.5,0,2.7,0.2,3.4,0.6 c7.5,4.1,8.2,10.8,4.5,18c-4.8,9.4-16.7,18.3-25.2,21c-3.7,1.2-7.2,1.8-10.5,1.9c-0.2,0-0.4,0-0.7,0c-2.9,0-5.5-0.5-7.7-1.4 c-0.5-0.2-1.1-0.1-1-0.7c0-0.2,0.2-0.7,0.3-0.9c0.2-0.3,0.4-0.5,0.6-0.8c0.9-1.2,2.2-2.4,3.6-3.5c4.2-3.5,8.2-7.2,11.7-11.5 c1.5-1.8,2.9-3.8,4.2-5.7C60.6,54.7,61.8,52.9,63,51.1"></path> </g> <g> <path class="st22" d="M62.9,51.5c1.8-2.8,3-6.1,5.3-8.5c1-1,2.2-1.8,3.5-2.4c1.4-0.6,2.9-0.9,4.4-0.9c1.5,0,2.7,0.2,3.4,0.6 c7.4,4.2,8.1,10.8,4.4,17.8C79,67.4,67.3,76.2,58.9,78.8c-3.7,1.2-7.1,1.8-10.3,1.9c-0.2,0-0.4,0-0.7,0c-2.8,0-5.4-0.5-7.7-1.3 c-0.5-0.2-1.1,0-1-0.7c0-0.2,0.2-0.7,0.3-0.9c0.2-0.3,0.4-0.5,0.7-0.8c1-1.2,2.2-2.3,3.6-3.4c4.1-3.4,8-7.1,11.4-11.2 c1.5-1.8,2.9-3.7,4.2-5.6C60.6,55,61.8,53.3,62.9,51.5"></path> </g> <g> <path class="st22" d="M62.9,51.9c1.8-2.8,2.9-6.1,5.2-8.6c1-1,2.2-1.9,3.5-2.5c1.4-0.6,2.9-1,4.4-0.9c1.5,0,2.7,0.2,3.4,0.6 c7.4,4.2,7.9,10.7,4.2,17.6C78.7,67.3,67.1,76,58.9,78.6c-3.6,1.2-7,1.8-10.2,1.8c-0.2,0-0.4,0-0.7,0c-2.8,0-5.3-0.4-7.6-1.3 c-0.5-0.2-1.1,0-0.9-0.7c0-0.2,0.2-0.7,0.3-0.9c0.2-0.3,0.5-0.5,0.7-0.7c1-1.1,2.3-2.2,3.6-3.3c4-3.3,7.9-6.9,11.2-11 c1.4-1.8,2.8-3.6,4.1-5.5C60.6,55.4,61.8,53.7,62.9,51.9"></path> </g> <g> <path class="st23" d="M62.8,52.4c1.8-2.8,2.8-6.2,5.1-8.6c1-1,2.2-1.9,3.5-2.5c1.4-0.6,2.9-1,4.4-1c1.5,0,2.7,0.2,3.4,0.6 c7.4,4.2,7.7,10.7,4.1,17.4c-4.8,9-16.4,17.6-24.3,20.1c-3.6,1.1-7,1.7-10.1,1.8c-0.2,0-0.4,0-0.6,0c-2.8,0-5.3-0.4-7.5-1.3 c-0.5-0.2-1.1,0-0.9-0.7c0.1-0.2,0.3-0.7,0.4-0.8c0.2-0.2,0.5-0.5,0.7-0.7c1.1-1.1,2.3-2.1,3.6-3.2c3.9-3.2,7.7-6.8,10.9-10.7 c1.4-1.7,2.8-3.5,4-5.3C60.7,55.7,61.8,54.1,62.8,52.4"></path> </g> <g> <path class="st23" d="M62.8,52.8c1.7-2.8,2.8-6.3,5.1-8.7c1-1,2.1-1.9,3.4-2.5c1.4-0.6,2.9-1,4.4-1c1.5,0,2.7,0.2,3.4,0.6 c7.3,4.2,7.5,10.6,3.9,17.1c-4.8,8.8-16.3,17.4-24,19.8c-3.5,1.1-6.9,1.7-10,1.8c-0.2,0-0.4,0-0.6,0c-2.7,0-5.2-0.4-7.4-1.3 c-0.5-0.2-1.1,0-0.9-0.7c0.1-0.2,0.3-0.7,0.4-0.8c0.3-0.2,0.5-0.5,0.8-0.7c1.1-1,2.3-2,3.6-3.1c3.8-3.2,7.5-6.6,10.7-10.5 c1.4-1.7,2.7-3.4,3.9-5.2C60.7,56.1,61.8,54.5,62.8,52.8"></path> </g> <g> <path class="st24" d="M62.8,53.2c1.7-2.9,2.7-6.3,5-8.8c1-1.1,2.1-1.9,3.4-2.6c1.4-0.7,2.9-1,4.4-1c1.5,0,2.7,0.2,3.4,0.6 c7.3,4.2,7.3,10.6,3.8,16.9C77.9,67,66.5,75.5,59,77.8c-3.5,1.1-6.8,1.7-9.8,1.8c-0.2,0-0.4,0-0.6,0c-2.7,0-5.2-0.4-7.3-1.3 c-0.5-0.2-1.1,0-0.8-0.7c0.1-0.2,0.3-0.7,0.5-0.8c0.3-0.2,0.5-0.4,0.8-0.7c1.2-1,2.4-1.9,3.6-2.9c3.8-3.1,7.3-6.5,10.4-10.2 c1.4-1.6,2.7-3.3,3.9-5C60.7,56.5,61.8,54.8,62.8,53.2"></path> </g> <g> <path class="st24" d="M41.5,78.1c2.1,0.8,4.5,1.2,7.2,1.2c3.2,0,6.7-0.6,10.3-1.8c12.5-4,37.1-25.9,19.8-35.9 c-0.7-0.4-1.9-0.6-3.4-0.6c-3,0-5.8,1.4-7.8,3.7c-2.2,2.5-3.2,6-4.9,8.9c-2,3.4-4.3,6.6-6.9,9.6c-4.3,5-9.2,9.5-14.6,13.4 c-0.1,0.1-0.4,0.6-0.5,0.8C40.4,78.1,41,77.9,41.5,78.1"></path> </g> <g> <path class="st25" d="M25.3,83c12.3-8.7,28.1-23,36.9-42.6c5.5-11.7,15.7-12.1,21.2-10.1c5.5,2.1,13.1,7.8,8.7,22 c-4.3,13.8-18.1,27-37.7,33.3c-18.2,5.8-27.5,0.4-29.1-0.5C23.6,84.3,24.4,83.7,25.3,83"></path> </g> <g> <path class="st1" d="M117.6,58.8c0,32.5-26.3,58.8-58.8,58.8C26.3,117.6,0,91.3,0,58.8C0,26.3,26.3,0,58.8,0 C91.3,0,117.6,26.3,117.6,58.8"></path> </g> <g> <path class="st1" d="M40.3,95.2c-4.6,0-9.4-0.8-13.7-2.5c-2.6-1-5.1-2.7-6.3-5.2c-2-4,3.5-4.6,6.5-7.1c9.1-7.3,18.2-16,24.9-25.7 c2.9-4.2,5.5-8.9,7.9-13.5c2.2-4.3,4.1-7.2,8.1-10.1c3.8-2.7,7.4-3.5,12.1-3.5c2.6,0,3.4,0.3,5.8,1.2c9.5,3.5,17.2,12.7,12.9,26.8 c-4.9,16.2-20.8,30.2-41,36.7C51.4,94.2,45.6,95.2,40.3,95.2"></path> </g> <g> <path class="st2" d="M67.6,31.5c2.5-1.8,5-2.8,7.7-3.3c1.4-0.2,2.8-0.3,4.3-0.3c1.3,0,2.2,0.1,3,0.2c0.8,0.2,1.6,0.4,2.8,0.9 c9.4,3.6,17,12.7,12.7,26.6c-4.9,16.1-20.7,30-40.7,36.4c-6,1.9-11.7,2.9-17,2.9c-0.4,0-0.7,0-1.1,0c-4.3-0.1-8.6-0.9-12.6-2.4 c-1-0.4-2-0.9-2.9-1.5c-0.6-0.4-1.2-0.9-1.8-1.5c-0.6-0.6-1.1-1.4-1.5-2.2c-1.9-3.9,3.5-4.6,6.5-7c9-7.2,18-15.9,24.7-25.5 c2.9-4.2,5.5-8.8,7.8-13.4C61.8,37.3,63.6,34.3,67.6,31.5"></path> </g> <g> <path class="st2" d="M67.5,31.9c2.5-1.8,4.9-2.9,7.7-3.4c1.4-0.2,2.8-0.3,4.3-0.4c1.3,0,2.2,0.1,3,0.2c0.8,0.2,1.6,0.4,2.8,0.9 c9.4,3.6,16.8,12.6,12.6,26.4c-4.9,16-20.6,29.8-40.4,36.1c-5.9,1.9-11.6,2.8-16.9,2.8c-0.4,0-0.7,0-1.1,0 c-4.2-0.1-8.5-0.9-12.5-2.4c-1-0.4-2-0.9-2.9-1.5c-0.6-0.4-1.2-0.9-1.7-1.5c-0.6-0.6-1.1-1.3-1.5-2.1c-1.9-3.9,3.4-4.5,6.4-6.9 C36.3,73,45.2,64.5,51.8,55c2.9-4.2,5.4-8.7,7.8-13.2C61.8,37.6,63.6,34.7,67.5,31.9"></path> </g> <g> <path class="st2" d="M67.4,32.3c2.5-1.9,4.9-3,7.6-3.5c1.3-0.3,2.8-0.4,4.3-0.4c1.3,0,2.2,0,3,0.2c0.8,0.2,1.7,0.4,2.8,0.9 C94.5,33,101.8,42,97.6,55.7c-4.9,15.8-20.6,29.6-40.1,35.8c-5.9,1.9-11.5,2.8-16.8,2.8c-0.4,0-0.7,0-1.1,0 c-4.2-0.1-8.5-0.9-12.4-2.4c-1-0.4-2-0.9-2.8-1.5c-0.6-0.4-1.2-0.9-1.7-1.5c-0.6-0.6-1.1-1.3-1.5-2.1c-1.8-3.8,3.4-4.5,6.4-6.8 c8.9-7.1,17.6-15.5,24.2-24.9c2.9-4.1,5.4-8.7,7.7-13.1C61.7,37.9,63.6,35.1,67.4,32.3"></path> </g> <g> <path class="st3" d="M67.3,32.6c2.5-1.9,4.9-3,7.6-3.6c1.3-0.3,2.8-0.4,4.3-0.4c1.3,0,2.2,0,3,0.2c0.9,0.2,1.7,0.4,2.8,0.9 c9.3,3.6,16.5,12.5,12.3,26.1c-4.9,15.7-20.5,29.4-39.8,35.5c-5.8,1.9-11.5,2.8-16.6,2.8c-0.4,0-0.7,0-1.1,0 c-4.2-0.1-8.4-0.9-12.3-2.4c-1-0.4-1.9-0.8-2.8-1.5c-0.6-0.4-1.2-0.9-1.7-1.4c-0.6-0.6-1.1-1.3-1.4-2.1c-1.8-3.8,3.4-4.4,6.3-6.8 c8.8-7,17.5-15.4,23.9-24.7c2.8-4.1,5.4-8.6,7.6-13C61.7,38.3,63.6,35.4,67.3,32.6"></path> </g> <g> <path class="st3" d="M67.2,33c2.5-1.9,4.8-3.1,7.5-3.7c1.3-0.3,2.8-0.5,4.3-0.5c1.3,0,2.2,0,3,0.2c0.9,0.2,1.7,0.4,2.8,0.9 c9.2,3.6,16.3,12.5,12.1,25.9C92.2,71.4,76.7,85,57.6,91c-5.8,1.8-11.4,2.8-16.5,2.8c-0.4,0-0.7,0-1.1,0c-4.2-0.1-8.4-0.9-12.2-2.4 c-1-0.4-1.9-0.8-2.8-1.4c-0.6-0.4-1.1-0.9-1.6-1.4c-0.6-0.6-1-1.3-1.4-2.1c-1.7-3.7,3.4-4.4,6.3-6.7C37,72.9,45.6,64.6,52,55.4 c2.8-4,5.3-8.5,7.6-12.8C61.7,38.6,63.5,35.8,67.2,33"></path> </g> <g> <path class="st4" d="M67.2,33.4c2.5-1.9,4.8-3.1,7.5-3.8c1.3-0.3,2.8-0.5,4.3-0.5c1.3,0,2.2,0,3,0.2c0.9,0.2,1.7,0.4,2.8,0.9 c9.2,3.6,16.1,12.4,12,25.7c-4.9,15.5-20.3,29-39.2,35c-5.7,1.8-11.3,2.8-16.4,2.8c-0.3,0-0.7,0-1,0c-4.1-0.1-8.3-0.9-12.1-2.3 c-1-0.4-1.9-0.8-2.7-1.4c-0.6-0.4-1.1-0.9-1.6-1.4c-0.5-0.6-1-1.3-1.3-2c-1.6-3.7,3.4-4.3,6.2-6.6c8.6-6.9,17.1-15.1,23.4-24.1 c2.8-4,5.3-8.4,7.5-12.7C61.7,38.9,63.5,36.2,67.2,33.4"></path> </g> <g> <path class="st4" d="M67.1,33.8c2.5-1.9,4.7-3.2,7.4-3.9c1.3-0.3,2.8-0.5,4.3-0.6c1.3,0,2.2,0,3.1,0.1c0.9,0.2,1.7,0.4,2.9,0.9 c9.2,3.6,16,12.4,11.8,25.5c-4.9,15.3-20.3,28.7-38.9,34.7c-5.7,1.8-11.2,2.7-16.3,2.7c-0.3,0-0.7,0-1,0c-4.1-0.1-8.2-0.8-12-2.3 c-1-0.4-1.9-0.8-2.7-1.4c-0.6-0.4-1.1-0.9-1.5-1.4c-0.5-0.6-1-1.3-1.3-2c-1.6-3.6,3.3-4.3,6.2-6.5c8.5-6.8,16.9-14.9,23.2-23.9 c2.8-3.9,5.2-8.3,7.4-12.5C61.7,39.3,63.5,36.5,67.1,33.8"></path> </g> <g> <path class="st4" d="M67,34.2c2.5-1.9,4.7-3.3,7.4-4c1.3-0.4,2.8-0.6,4.3-0.6c1.3-0.1,2.2,0,3.1,0.1c0.9,0.2,1.8,0.4,2.9,0.9 c9.1,3.6,15.8,12.3,11.7,25.3c-4.9,15.2-20.2,28.5-38.6,34.4C52,92.1,46.6,93,41.5,93c-0.3,0-0.7,0-1,0c-4.1-0.1-8.2-0.8-11.9-2.3 c-0.9-0.4-1.9-0.8-2.6-1.4c-0.5-0.4-1.1-0.9-1.5-1.4c-0.5-0.6-0.9-1.3-1.3-2c-1.5-3.6,3.3-4.2,6.1-6.5c8.4-6.7,16.7-14.7,22.9-23.6 c2.7-3.9,5.2-8.2,7.4-12.4C61.7,39.6,63.5,36.9,67,34.2"></path> </g> <g> <path class="st5" d="M66.9,34.5c2.5-1.9,4.7-3.3,7.3-4.1c1.3-0.4,2.8-0.6,4.3-0.7c1.3-0.1,2.2,0,3.1,0.1c0.9,0.2,1.8,0.4,2.9,0.8 c9.1,3.6,15.6,12.3,11.5,25.1C91.2,71,75.9,84.2,57.7,90c-5.6,1.8-11,2.7-16,2.7c-0.3,0-0.7,0-1,0c-4.1-0.1-8.1-0.8-11.8-2.3 c-0.9-0.4-1.9-0.8-2.6-1.4c-0.5-0.4-1-0.9-1.5-1.4c-0.5-0.6-0.9-1.2-1.2-2c-1.5-3.5,3.3-4.2,6.1-6.4c8.3-6.7,16.5-14.6,22.7-23.3 c2.7-3.9,5.1-8.1,7.3-12.2C61.6,39.9,63.4,37.3,66.9,34.5"></path> </g> <g> <path class="st5" d="M66.8,34.9c2.4-1.9,4.6-3.4,7.3-4.2c1.3-0.4,2.8-0.6,4.3-0.7c1.3-0.1,2.2,0,3.1,0.1c0.9,0.1,1.8,0.4,2.9,0.8 c9,3.6,15.5,12.2,11.4,25c-4.8,15-20,28.1-38.1,33.9c-5.6,1.8-10.9,2.7-15.9,2.7c-0.3,0-0.7,0-1,0c-4-0.1-8.1-0.8-11.7-2.3 c-0.9-0.4-1.8-0.8-2.6-1.4c-0.5-0.4-1-0.9-1.4-1.4c-0.5-0.6-0.9-1.2-1.2-1.9c-1.4-3.5,3.3-4.1,6-6.3c8.2-6.6,16.3-14.4,22.4-23.1 c2.7-3.8,5.1-8,7.2-12.1C61.6,40.3,63.4,37.6,66.8,34.9"></path> </g> <g> <path class="st6" d="M66.7,35.3c2.4-2,4.6-3.4,7.2-4.3c1.3-0.4,2.8-0.7,4.3-0.8c1.3-0.1,2.2-0.1,3.1,0.1c0.9,0.1,1.8,0.4,2.9,0.8 c9,3.6,15.3,12.2,11.2,24.8c-4.8,14.9-20,27.9-37.8,33.6c-5.5,1.8-10.8,2.7-15.8,2.7c-0.3,0-0.7,0-1,0c-4-0.1-8-0.8-11.6-2.2 c-0.9-0.4-1.8-0.8-2.5-1.3c-0.5-0.4-1-0.9-1.4-1.4c-0.5-0.6-0.8-1.2-1.1-1.9c-1.4-3.4,3.3-4.1,6-6.2c8.1-6.5,16.1-14.2,22.2-22.8 c2.6-3.8,5-7.9,7.2-12C61.6,40.6,63.4,38,66.7,35.3"></path> </g> <g> <path class="st6" d="M66.7,35.7c2.4-2,4.5-3.5,7.2-4.3c1.3-0.4,2.8-0.7,4.3-0.8c1.3-0.1,2.2-0.1,3.1,0.1c0.9,0.1,1.8,0.4,2.9,0.8 C93.1,35,99.3,43.6,95.3,56c-4.8,14.7-19.9,27.7-37.5,33.3c-5.5,1.7-10.8,2.6-15.6,2.6c-0.3,0-0.7,0-1,0c-4-0.1-7.9-0.8-11.5-2.2 c-0.9-0.4-1.8-0.7-2.5-1.3c-0.5-0.4-1-0.9-1.3-1.4c-0.5-0.6-0.8-1.2-1.1-1.9c-1.3-3.3,3.2-4,5.9-6.2c8-6.4,16-14.1,21.9-22.5 c2.6-3.7,5-7.8,7.1-11.8C61.6,40.9,63.4,38.4,66.7,35.7"></path> </g> <g> <path class="st6" d="M66.6,36.1c2.4-2,4.5-3.6,7.1-4.4c1.3-0.4,2.8-0.7,4.3-0.9c1.3-0.1,2.2-0.1,3.1,0.1c1,0.1,1.9,0.4,2.9,0.8 C93,35.3,99,43.7,95,56c-4.8,14.6-19.8,27.5-37.2,33c-5.4,1.7-10.7,2.6-15.5,2.6c-0.3,0-0.7,0-1,0c-3.9-0.1-7.9-0.8-11.5-2.2 c-0.9-0.4-1.8-0.7-2.5-1.3c-0.5-0.4-0.9-0.9-1.3-1.3c-0.4-0.5-0.8-1.2-1-1.9c-1.3-3.3,3.2-4,5.9-6.1c7.9-6.4,15.8-13.9,21.7-22.3 c2.6-3.7,4.9-7.7,7-11.7C61.6,41.3,63.3,38.7,66.6,36.1"></path> </g> <g> <path class="st7" d="M66.5,36.5c2.4-2,4.5-3.6,7.1-4.5c1.3-0.5,2.8-0.8,4.3-0.9c1.3-0.1,2.2-0.1,3.1,0c1,0.1,1.9,0.4,2.9,0.8 c8.9,3.6,14.8,12.1,10.8,24.2C89.9,70.6,75,83.3,57.8,88.8c-5.4,1.7-10.6,2.6-15.4,2.6c-0.3,0-0.7,0-1,0c-3.9-0.1-7.8-0.8-11.4-2.2 c-0.9-0.3-1.8-0.7-2.4-1.3c-0.5-0.4-0.9-0.9-1.3-1.3c-0.4-0.5-0.7-1.2-1-1.8c-1.2-3.2,3.2-3.9,5.8-6c7.8-6.3,15.6-13.7,21.4-22 c2.6-3.6,4.9-7.6,7-11.5C61.6,41.6,63.3,39.1,66.5,36.5"></path> </g> <g> <path class="st7" d="M66.4,36.8c2.4-2,4.4-3.7,7-4.6c1.3-0.5,2.7-0.8,4.3-1c1.3-0.1,2.2-0.1,3.1,0c1,0.1,1.9,0.4,2.9,0.8 c8.8,3.6,14.6,12,10.6,24c-4.8,14.4-19.7,27-36.6,32.5c-5.4,1.7-10.5,2.6-15.2,2.6c-0.3,0-0.6,0-1,0c-3.9-0.1-7.8-0.8-11.3-2.2 c-0.9-0.3-1.7-0.7-2.4-1.3c-0.4-0.4-0.9-0.9-1.2-1.3c-0.4-0.5-0.7-1.1-1-1.8c-1.1-3.2,3.2-3.9,5.8-5.9c7.7-6.2,15.4-13.6,21.2-21.7 c2.5-3.6,4.8-7.5,6.9-11.4C61.5,41.9,63.3,39.5,66.4,36.8"></path> </g> <g> <path class="st8" d="M66.3,37.2c2.4-2,4.4-3.7,7-4.7c1.3-0.5,2.7-0.9,4.3-1c1.3-0.1,2.2-0.1,3.1,0c1,0.1,1.9,0.4,3,0.8 c8.8,3.6,14.5,12,10.5,23.8C89.4,70.4,74.6,83,57.9,88.3c-5.3,1.7-10.4,2.6-15.1,2.6c-0.3,0-0.6,0-1,0c-3.9-0.1-7.7-0.8-11.2-2.1 c-0.9-0.3-1.7-0.7-2.3-1.3c-0.4-0.4-0.8-0.9-1.2-1.3c-0.4-0.5-0.7-1.1-0.9-1.8c-1.1-3.1,3.2-3.8,5.7-5.9 c7.7-6.2,15.2-13.4,20.9-21.5c2.5-3.5,4.8-7.4,6.8-11.2C61.5,42.3,63.3,39.8,66.3,37.2"></path> </g> <g> <path class="st8" d="M66.2,37.6c2.4-2,4.3-3.8,7-4.8c1.3-0.5,2.7-0.9,4.3-1c1.3-0.1,2.2-0.1,3.2,0c1,0.1,1.9,0.4,3,0.8 c8.7,3.6,14.3,11.9,10.3,23.7c-4.8,14.1-19.5,26.6-36,31.9c-5.3,1.7-10.3,2.5-15,2.6c-0.3,0-0.6,0-1,0c-3.8-0.1-7.6-0.8-11.1-2.1 c-0.9-0.3-1.7-0.7-2.3-1.3c-0.4-0.4-0.8-0.9-1.2-1.3c-0.4-0.5-0.7-1.1-0.9-1.8c-1-3.1,3.1-3.8,5.7-5.8c7.6-6.1,15-13.3,20.7-21.2 c2.5-3.5,4.7-7.3,6.8-11.1C61.5,42.6,63.2,40.2,66.2,37.6"></path> </g> <g> <path class="st8" d="M66.1,38c2.4-2.1,4.3-3.9,6.9-4.9c1.3-0.5,2.7-0.9,4.3-1.1c1.3-0.1,2.2-0.1,3.2,0c1,0.1,2,0.4,3,0.8 c8.7,3.7,14.1,11.9,10.2,23.5c-4.8,14-19.4,26.4-35.8,31.6c-5.2,1.7-10.2,2.5-14.9,2.5c-0.3,0-0.6,0-0.9,0c-3.8-0.1-7.6-0.8-11-2.1 c-0.9-0.3-1.7-0.7-2.3-1.2c-0.4-0.4-0.8-0.9-1.1-1.3c-0.4-0.5-0.6-1.1-0.8-1.7c-1-3,3.1-3.7,5.6-5.7c7.5-6,14.8-13.1,20.4-20.9 c2.5-3.5,4.7-7.2,6.7-11C61.5,42.9,63.2,40.6,66.1,38"></path> </g> <g> <path class="st9" d="M66.1,38.4c2.4-2.1,4.3-3.9,6.9-5c1.3-0.6,2.7-1,4.3-1.1c1.3-0.1,2.2-0.2,3.2,0c1,0.1,2,0.4,3,0.8 c8.7,3.7,14,11.8,10,23.3C88.7,70.1,74.1,82.4,58,87.6c-5.2,1.7-10.2,2.5-14.7,2.5c-0.3,0-0.6,0-0.9,0c-3.8-0.1-7.5-0.7-10.9-2.1 c-0.8-0.3-1.7-0.7-2.2-1.2c-0.4-0.4-0.8-0.8-1.1-1.3c-0.4-0.5-0.6-1.1-0.8-1.7c-0.9-3,3.1-3.7,5.5-5.7c7.4-5.9,14.6-12.9,20.2-20.7 c2.4-3.4,4.6-7.1,6.6-10.8C61.5,43.3,63.2,40.9,66.1,38.4"></path> </g> <g> <path class="st9" d="M66,38.7c2.3-2.1,4.2-4,6.8-5.1c1.3-0.6,2.7-1,4.3-1.2c1.2-0.2,2.2-0.2,3.2-0.1c1,0.1,2,0.4,3,0.8 c8.6,3.7,13.8,11.8,9.9,23.1c-4.7,13.7-19.3,26-35.2,31c-5.1,1.6-10.1,2.5-14.6,2.5c-0.3,0-0.6,0-0.9,0c-3.8-0.1-7.4-0.7-10.8-2.1 c-0.8-0.3-1.7-0.6-2.2-1.2c-0.4-0.4-0.7-0.8-1-1.3c-0.3-0.5-0.6-1.1-0.7-1.7c-0.9-2.9,3.1-3.6,5.5-5.6c7.3-5.9,14.5-12.8,19.9-20.4 c2.4-3.4,4.6-7,6.6-10.7C61.5,43.6,63.1,41.3,66,38.7"></path> </g> <g> <path class="st10" d="M65.9,39.1c2.3-2.1,4.2-4,6.8-5.2c1.3-0.6,2.7-1,4.3-1.2c1.2-0.2,2.2-0.2,3.2-0.1c1.1,0.1,2,0.4,3,0.8 c8.6,3.7,13.6,11.7,9.7,22.9C88.2,69.9,73.7,82.1,58,87.1c-5.1,1.6-10,2.5-14.5,2.5c-0.3,0-0.6,0-0.9,0c-3.7-0.1-7.4-0.7-10.7-2 c-0.8-0.3-1.6-0.6-2.2-1.2c-0.4-0.4-0.7-0.8-1-1.3c-0.3-0.5-0.5-1-0.7-1.7c-0.8-2.9,3.1-3.6,5.4-5.5c7.2-5.8,14.3-12.6,19.7-20.1 c2.4-3.3,4.5-6.9,6.5-10.5C61.4,44,63.1,41.6,65.9,39.1"></path> </g> <g> <path class="st10" d="M65.8,39.5c2.3-2.1,4.2-4.1,6.7-5.3c1.3-0.6,2.7-1.1,4.3-1.3c1.2-0.2,2.2-0.2,3.2-0.1c1.1,0.1,2,0.4,3,0.8 c8.5,3.7,13.5,11.7,9.6,22.7C87.9,69.8,73.5,81.9,58,86.8c-5,1.6-9.9,2.4-14.4,2.5c-0.3,0-0.6,0-0.9,0c-3.7-0.1-7.3-0.7-10.6-2 c-0.8-0.3-1.6-0.6-2.1-1.2c-0.3-0.4-0.7-0.8-1-1.2c-0.3-0.5-0.5-1-0.7-1.6c-0.8-2.8,3-3.6,5.4-5.4c7.1-5.7,14.1-12.4,19.4-19.9 c2.4-3.3,4.5-6.9,6.4-10.4C61.4,44.3,63.1,42,65.8,39.5"></path> </g> <g> <path class="st10" d="M65.7,39.9c2.3-2.1,4.1-4.2,6.7-5.4c1.3-0.6,2.7-1.1,4.3-1.3c1.2-0.2,2.2-0.2,3.2-0.1c1.1,0.1,2.1,0.4,3,0.8 c8.5,3.7,13.3,11.6,9.4,22.5c-4.7,13.4-19.1,25.3-34.3,30.2c-5,1.6-9.8,2.4-14.2,2.4c-0.3,0-0.6,0-0.9,0c-3.7-0.1-7.3-0.7-10.5-2 c-0.8-0.3-1.6-0.6-2.1-1.2c-0.3-0.4-0.7-0.8-0.9-1.2c-0.3-0.5-0.5-1-0.6-1.6c-0.7-2.8,3-3.5,5.3-5.4C41.1,72,48,65.4,53.3,58 c2.3-3.2,4.4-6.8,6.4-10.2C61.4,44.6,63.1,42.4,65.7,39.9"></path> </g> <g> <path class="st11" d="M65.6,40.3c2.3-2.2,4.1-4.2,6.6-5.5c1.3-0.6,2.7-1.1,4.3-1.4c1.2-0.2,2.2-0.2,3.2-0.1c1.1,0.1,2.1,0.3,3,0.8 c8.4,3.7,13.1,11.6,9.3,22.3c-4.7,13.3-19,25.1-34,29.9c-5,1.6-9.7,2.4-14.1,2.4c-0.3,0-0.6,0-0.9,0c-3.6-0.1-7.2-0.7-10.4-2 c-0.8-0.3-1.6-0.6-2.1-1.2c-0.3-0.4-0.6-0.8-0.9-1.2c-0.3-0.5-0.4-1-0.6-1.6c-0.6-2.7,3-3.5,5.3-5.3c6.9-5.6,13.7-12.1,18.9-19.3 c2.3-3.2,4.4-6.7,6.3-10.1C61.4,45,63,42.7,65.6,40.3"></path> </g> <g> <path class="st11" d="M65.6,40.6c2.3-2.2,4-4.3,6.6-5.6c1.3-0.7,2.7-1.2,4.3-1.4c1.2-0.2,2.2-0.2,3.2-0.1c1.1,0.1,2.1,0.3,3,0.8 c8.4,3.7,13,11.5,9.1,22.2c-4.7,13.1-18.9,24.9-33.7,29.6c-4.9,1.6-9.6,2.4-14,2.4c-0.3,0-0.6,0-0.9,0c-3.6-0.1-7.2-0.7-10.3-1.9 c-0.8-0.3-1.6-0.6-2-1.1c-0.3-0.4-0.6-0.8-0.8-1.2c-0.3-0.4-0.4-1-0.5-1.5c-0.6-2.7,3-3.4,5.2-5.2c6.8-5.5,13.5-11.9,18.7-19.1 c2.3-3.1,4.3-6.6,6.2-10C61.4,45.3,63,43.1,65.6,40.6"></path> </g> <g> <path class="st11" d="M65.5,41c2.3-2.2,4-4.3,6.5-5.7c1.3-0.7,2.7-1.2,4.3-1.5c1.2-0.2,2.2-0.2,3.2-0.2c1.1,0.1,2.1,0.3,3.1,0.8 c8.4,3.7,12.8,11.5,9,22c-4.7,13-18.9,24.7-33.4,29.4c-4.9,1.6-9.6,2.4-13.9,2.4c-0.3,0-0.6,0-0.9,0c-3.6-0.1-7.1-0.7-10.2-1.9 c-0.8-0.3-1.5-0.6-2-1.1c-0.3-0.4-0.6-0.8-0.8-1.2c-0.3-0.4-0.4-1-0.5-1.5c-0.5-2.6,3-3.4,5.2-5.1c6.7-5.4,13.3-11.8,18.4-18.8 c2.3-3.1,4.3-6.5,6.2-9.8C61.4,45.6,63,43.4,65.5,41"></path> </g> <g> <path class="st12" d="M65.4,41.4c2.3-2.2,4-4.4,6.5-5.8c1.3-0.7,2.7-1.2,4.3-1.5c1.2-0.2,2.2-0.3,3.2-0.2c1.1,0.1,2.1,0.3,3.1,0.8 c8.3,3.7,12.6,11.5,8.9,21.8C86.6,69.4,72.5,81,58.2,85.6c-4.8,1.5-9.5,2.3-13.7,2.4c-0.3,0-0.6,0-0.9,0c-3.6-0.1-7-0.7-10.2-1.9 c-0.8-0.3-1.5-0.5-1.9-1.1c-0.3-0.4-0.6-0.8-0.8-1.2c-0.2-0.4-0.4-1-0.5-1.5c-0.5-2.6,3-3.3,5.1-5.1c6.6-5.4,13.1-11.6,18.2-18.6 c2.2-3.1,4.3-6.4,6.1-9.7C61.3,46,62.9,43.8,65.4,41.4"></path> </g> <g> <path class="st12" d="M65.3,41.8c2.3-2.2,3.9-4.5,6.4-5.9c1.3-0.7,2.7-1.3,4.3-1.6c1.2-0.2,2.2-0.3,3.3-0.2 c1.1,0.1,2.1,0.3,3.1,0.8c8.3,3.7,12.4,11.4,8.7,21.6c-4.7,12.8-18.7,24.3-32.9,28.8c-4.8,1.5-9.4,2.3-13.6,2.3c-0.3,0-0.6,0-0.9,0 c-3.5-0.1-7-0.7-10.1-1.9c-0.8-0.3-1.5-0.5-1.9-1.1c-0.3-0.4-0.5-0.8-0.7-1.2c-0.2-0.4-0.3-0.9-0.4-1.5c-0.4-2.5,2.9-3.3,5.1-5 c6.5-5.3,13-11.5,17.9-18.3c2.2-3,4.2-6.3,6-9.5C61.3,46.3,62.9,44.2,65.3,41.8"></path> </g> <g> <path class="st13" d="M65.2,42.2c2.2-2.2,3.9-4.5,6.4-6c1.3-0.7,2.7-1.3,4.3-1.6c1.2-0.2,2.2-0.3,3.3-0.2c1.2,0.1,2.2,0.3,3.1,0.7 c8.2,3.7,12.3,11.4,8.6,21.4c-4.7,12.6-18.6,24.1-32.6,28.5c-4.7,1.5-9.3,2.3-13.5,2.3c-0.3,0-0.6,0-0.9,0c-3.5-0.1-6.9-0.7-10-1.9 c-0.8-0.3-1.5-0.5-1.9-1.1c-0.2-0.3-0.5-0.8-0.7-1.2c-0.2-0.4-0.3-0.9-0.4-1.4c-0.4-2.5,2.9-3.2,5-4.9c6.5-5.2,12.8-11.3,17.7-18 c2.2-3,4.2-6.2,6-9.4C61.3,46.6,62.9,44.5,65.2,42.2"></path> </g> <g> <path class="st13" d="M65.1,42.6c2.2-2.2,3.8-4.6,6.3-6.1c1.3-0.8,2.7-1.3,4.3-1.6c1.2-0.2,2.2-0.3,3.3-0.2 c1.2,0.1,2.2,0.3,3.1,0.7c8.2,3.7,12.1,11.3,8.4,21.2C85.9,69.1,72,80.4,58.3,84.8c-4.7,1.5-9.2,2.3-13.4,2.3c-0.3,0-0.6,0-0.9,0 c-3.5-0.1-6.8-0.7-9.9-1.8c-0.7-0.3-1.6-0.4-1.8-1.1c-0.3-0.3-0.5-0.8-0.6-1.1c-0.2-0.4-0.3-0.9-0.3-1.4c-0.3-2.4,2.9-3.2,5-4.8 c6.4-5.1,12.6-11.1,17.5-17.8c2.2-2.9,4.1-6.1,5.9-9.2C61.3,47,62.8,44.9,65.1,42.6"></path> </g> <g> <path class="st13" d="M65.1,42.9c2.2-2.3,3.8-4.6,6.3-6.2c1.3-0.8,2.7-1.4,4.3-1.7c1.2-0.2,2.2-0.3,3.3-0.2 c1.2,0.1,2.2,0.3,3.1,0.7c8.1,3.7,11.9,11.3,8.3,21c-4.7,12.4-18.5,23.6-32,28c-4.7,1.5-9.1,2.2-13.2,2.3c-0.3,0-0.6,0-0.8,0 c-3.5-0.1-6.8-0.6-9.8-1.8c-0.7-0.3-1.5-0.4-1.8-1.1c-0.3-0.3-0.4-0.8-0.6-1.1c-0.2-0.4-0.2-0.9-0.3-1.4c-0.3-2.4,2.9-3.1,4.9-4.8 c6.3-5.1,12.4-11,17.2-17.5c2.1-2.9,4.1-6,5.8-9.1C61.3,47.3,62.8,45.2,65.1,42.9"></path> </g> <g> <path class="st13" d="M65,43.3c2.2-2.3,3.8-4.7,6.2-6.3c1.3-0.8,2.7-1.4,4.3-1.7c1.2-0.2,2.2-0.3,3.3-0.3c1.2,0.1,2.2,0.3,3.1,0.7 C90,39.5,93.7,47,90,56.6c-4.7,12.3-18.4,23.4-31.7,27.7c-4.6,1.5-9,2.2-13.1,2.3c-0.3,0-0.6,0-0.8,0c-3.4-0.1-6.7-0.6-9.7-1.8 c-0.7-0.3-1.5-0.4-1.8-1c-0.3-0.3-0.4-0.8-0.6-1.1c-0.2-0.4-0.2-0.9-0.2-1.4C31.9,79,35,78.2,37,76.6c6.2-5,12.2-10.8,17-17.2 c2.1-2.8,4-5.9,5.8-9C61.3,47.6,62.8,45.6,65,43.3"></path> </g> <g> <path class="st14" d="M64.9,43.7c2.2-2.3,3.7-4.8,6.2-6.4c1.2-0.8,2.7-1.4,4.3-1.8c1.2-0.3,2.3-0.3,3.3-0.3 c1.2,0.1,2.2,0.3,3.1,0.7c8.1,3.8,11.6,11.2,8,20.7c-4.6,12.1-18.3,23.2-31.4,27.4c-4.6,1.5-8.9,2.2-13,2.3c-0.3,0-0.6,0-0.8,0 c-3.4,0-6.7-0.6-9.6-1.8c-0.7-0.3-1.5-0.4-1.7-1c-0.2-0.3-0.4-0.8-0.5-1.1c-0.2-0.4-0.2-0.9-0.2-1.3c-0.1-2.2,2.8-3,4.8-4.6 c6.1-4.9,12-10.6,16.7-17c2.1-2.8,4-5.8,5.7-8.8C61.3,48,62.7,46,64.9,43.7"></path> </g> <g> <path class="st14" d="M64.8,44.1c2.2-2.3,3.7-4.8,6.1-6.5c1.2-0.8,2.7-1.5,4.3-1.8c1.2-0.3,2.3-0.4,3.3-0.3 c1.2,0.1,2.3,0.3,3.1,0.7c8,3.8,11.4,11.1,7.8,20.5c-4.6,12-18.3,23-31.1,27.1c-4.5,1.4-8.9,2.2-12.9,2.2c-0.3,0-0.5,0-0.8,0 c-3.4,0-6.6-0.6-9.5-1.8c-0.7-0.3-1.5-0.4-1.7-1c-0.2-0.3-0.4-0.8-0.5-1.1c-0.1-0.4-0.1-0.8-0.2-1.3c-0.1-2.2,2.8-3,4.8-4.6 c6-4.9,11.8-10.5,16.5-16.7c2-2.7,3.9-5.7,5.6-8.7C61.2,48.3,62.7,46.3,64.8,44.1"></path> </g> <g> <path class="st15" d="M64.7,44.5c2.2-2.3,3.6-4.9,6.1-6.6c1.2-0.9,2.7-1.5,4.3-1.9c1.2-0.3,2.3-0.4,3.3-0.3 c1.2,0.1,2.3,0.3,3.2,0.7c8,3.8,11.3,11.1,7.7,20.3C84.6,68.6,71,79.5,58.4,83.6c-4.5,1.4-8.8,2.2-12.7,2.2c-0.3,0-0.5,0-0.8,0 c-3.3,0-6.5-0.6-9.4-1.7c-0.7-0.3-1.5-0.4-1.7-1c-0.2-0.3-0.3-0.8-0.4-1.1c-0.1-0.4-0.1-0.8-0.1-1.3c0-2.1,2.8-2.9,4.7-4.5 c5.9-4.8,11.6-10.3,16.2-16.4c2-2.7,3.9-5.6,5.6-8.5C61.2,48.6,62.7,46.7,64.7,44.5"></path> </g> <g> <path class="st15" d="M64.6,44.8c2.2-2.4,3.6-5,6-6.7c1.2-0.9,2.7-1.6,4.3-1.9c1.2-0.3,2.3-0.4,3.3-0.3c1.2,0.1,2.3,0.3,3.2,0.7 c7.9,3.8,11.1,11,7.5,20.1c-4.6,11.8-18.1,22.6-30.5,26.6c-4.4,1.4-8.7,2.2-12.6,2.2c-0.3,0-0.5,0-0.8,0c-3.3,0-6.5-0.6-9.3-1.7 c-0.7-0.3-1.5-0.3-1.6-1c-0.2-0.3-0.3-0.8-0.4-1.1c-0.1-0.4-0.1-0.8-0.1-1.3c0-2.1,2.8-2.9,4.7-4.4c5.8-4.7,11.5-10.1,16-16.2 c2-2.7,3.8-5.5,5.5-8.4C61.2,49,62.6,47,64.6,44.8"></path> </g> <g> <path class="st15" d="M64.6,45.2c2.1-2.4,3.6-5,6-6.8c1.2-0.9,2.7-1.6,4.3-2c1.2-0.3,2.3-0.4,3.3-0.3c1.3,0.1,2.3,0.3,3.2,0.7 c7.9,3.8,10.9,11,7.4,19.9c-4.6,11.6-18,22.4-30.3,26.3c-4.4,1.4-8.6,2.1-12.5,2.2c-0.3,0-0.5,0-0.8,0c-3.3,0-6.4-0.6-9.2-1.7 c-0.7-0.3-1.5-0.3-1.6-1c-0.2-0.3-0.3-0.8-0.4-1.1c-0.1-0.4,0-0.8,0-1.2c0.1-2,2.8-2.8,4.6-4.3c5.7-4.6,11.3-10,15.7-15.9 c2-2.6,3.8-5.4,5.4-8.2C61.2,49.3,62.6,47.4,64.6,45.2"></path> </g> <g> <path class="st16" d="M64.5,45.6c2.1-2.4,3.5-5.1,5.9-6.9c1.2-0.9,2.7-1.6,4.3-2c1.2-0.3,2.3-0.4,3.3-0.3c1.3,0.1,2.3,0.3,3.2,0.7 C89.1,40.9,92,48,88.4,56.8c-4.6,11.5-18,22.2-30,26c-4.4,1.4-8.5,2.1-12.4,2.2c-0.3,0-0.5,0-0.8,0c-3.3,0-6.4-0.6-9.1-1.7 c-0.7-0.3-1.4-0.3-1.5-1c-0.2-0.3-0.3-0.8-0.3-1c-0.1-0.4,0-0.8,0-1.2c0.1-2,2.7-2.8,4.6-4.3C44.5,71.3,50,66,54.4,60.2 c1.9-2.6,3.7-5.3,5.4-8.1C61.2,49.6,62.6,47.7,64.5,45.6"></path> </g> <g> <path class="st16" d="M64.4,46c2.1-2.4,3.5-5.1,5.9-7c1.2-0.9,2.7-1.7,4.3-2.1c1.2-0.3,2.3-0.4,3.4-0.4c1.3,0.1,2.4,0.3,3.2,0.7 c7.8,3.8,10.6,10.9,7.1,19.6c-4.6,11.4-17.9,22-29.7,25.7c-4.3,1.4-8.4,2.1-12.2,2.1c-0.3,0-0.5,0-0.8,0c-3.2,0-6.3-0.6-9-1.7 c-0.7-0.3-1.4-0.3-1.5-0.9c-0.2-0.3-0.2-0.8-0.3-1c-0.1-0.4,0-0.8,0-1.2c0.2-1.9,2.7-2.7,4.5-4.2c5.5-4.5,10.9-9.7,15.2-15.4 c1.9-2.5,3.7-5.2,5.3-8C61.2,50,62.6,48.1,64.4,46"></path> </g> <g> <path class="st17" d="M64.3,46.4c2.1-2.4,3.4-5.2,5.8-7.1c1.2-0.9,2.7-1.7,4.3-2.1c1.2-0.3,2.3-0.4,3.4-0.4 c1.3,0.1,2.4,0.3,3.2,0.7c7.8,3.8,10.4,10.8,6.9,19.4c-4.6,11.3-17.8,21.7-29.4,25.4c-4.3,1.4-8.3,2.1-12.1,2.1c-0.3,0-0.5,0-0.8,0 c-3.2,0-6.2-0.6-8.9-1.6c-0.7-0.3-1.4-0.3-1.5-0.9c-0.2-0.2-0.2-0.8-0.2-1c-0.1-0.4,0-0.7,0.1-1.2c0.2-1.9,2.7-2.7,4.5-4.1 c5.4-4.4,10.7-9.5,15-15.1c1.9-2.5,3.6-5.1,5.2-7.8C61.1,50.3,62.5,48.4,64.3,46.4"></path> </g> <g> <path class="st17" d="M64.2,46.8c2.1-2.5,3.4-5.3,5.8-7.2c1.2-1,2.7-1.7,4.3-2.2c1.2-0.3,2.3-0.4,3.4-0.4c1.3,0.1,2.4,0.3,3.2,0.7 c7.7,3.8,10.2,10.8,6.8,19.2c-4.6,11.1-17.7,21.5-29.1,25.2c-4.2,1.3-8.3,2.1-12,2.1c-0.3,0-0.5,0-0.8,0c-3.2,0-6.2-0.6-8.9-1.6 c-0.6-0.3-1.4-0.3-1.4-0.9c-0.1-0.2-0.2-0.8-0.2-1c0-0.3,0.1-0.7,0.1-1.1c0.3-1.8,2.7-2.6,4.4-4c5.4-4.3,10.5-9.3,14.7-14.8 c1.9-2.4,3.6-5.1,5.2-7.7C61.1,50.7,62.5,48.8,64.2,46.8"></path> </g> <g> <path class="st17" d="M64.1,47.1c2.1-2.5,3.4-5.3,5.8-7.3c1.2-1,2.7-1.8,4.3-2.2c1.2-0.3,2.3-0.5,3.4-0.4c1.3,0.1,2.4,0.3,3.2,0.7 c7.7,3.8,10.1,10.7,6.6,19c-4.6,11-17.7,21.3-28.8,24.9c-4.2,1.3-8.2,2-11.8,2.1c-0.3,0-0.5,0-0.8,0c-3.2,0-6.1-0.6-8.8-1.6 c-0.6-0.3-1.4-0.2-1.4-0.9c-0.1-0.2-0.2-0.8-0.2-1c0-0.3,0.1-0.7,0.2-1.1c0.3-1.8,2.7-2.6,4.3-4c5.3-4.3,10.3-9.2,14.5-14.6 c1.8-2.4,3.5-5,5.1-7.5C61.1,51,62.4,49.2,64.1,47.1"></path> </g> <g> <path class="st18" d="M64.1,47.5c2.1-2.5,3.3-5.4,5.7-7.4c1.2-1,2.7-1.8,4.3-2.2c1.2-0.3,2.3-0.5,3.4-0.4c1.3,0.1,2.4,0.3,3.2,0.7 c7.6,3.8,9.9,10.7,6.5,18.8c-4.6,10.9-17.6,21.1-28.5,24.6c-4.1,1.3-8.1,2-11.7,2.1c-0.3,0-0.5,0-0.7,0c-3.1,0-6.1-0.5-8.7-1.6 c-0.6-0.2-1.4-0.2-1.4-0.9C36,81,36,80.4,36,80.2c0-0.3,0.1-0.7,0.2-1.1c0.4-1.7,2.6-2.5,4.3-3.9c5.2-4.2,10.1-9,14.2-14.3 c1.8-2.3,3.5-4.9,5-7.4C61.1,51.3,62.4,49.5,64.1,47.5"></path> </g> <g> <path class="st18" d="M64,47.9c2-2.5,3.3-5.4,5.7-7.4c1.2-1,2.7-1.8,4.3-2.3c1.2-0.3,2.3-0.5,3.4-0.4c1.3,0,2.5,0.3,3.3,0.7 c7.6,3.9,9.7,10.7,6.3,18.6c-4.6,10.8-17.5,20.9-28.2,24.3c-4.1,1.3-8,2-11.6,2c-0.2,0-0.5,0-0.7,0c-3.1,0-6-0.5-8.6-1.6 c-0.6-0.2-1.4-0.2-1.3-0.9c-0.1-0.2-0.1-0.8-0.1-1c0-0.3,0.2-0.7,0.3-1c0.4-1.6,2.6-2.5,4.2-3.8c5.1-4.1,10-8.8,14-14 c1.8-2.3,3.4-4.8,5-7.2C61.1,51.7,62.4,49.9,64,47.9"></path> </g> <g> <path class="st19" d="M63.9,48.3c2-2.5,3.2-5.5,5.6-7.5c1.2-1,2.7-1.9,4.3-2.3c1.2-0.3,2.3-0.5,3.4-0.5c1.3,0,2.5,0.3,3.3,0.7 c7.5,3.9,9.6,10.6,6.2,18.4c-4.6,10.6-17.4,20.7-27.9,24c-4,1.3-7.9,2-11.5,2c-0.2,0-0.5,0-0.7,0c-3.1,0-5.9-0.5-8.5-1.5 c-0.6-0.2-1.3-0.2-1.3-0.8c-0.1-0.2-0.1-0.8-0.1-1c0-0.3,0.2-0.7,0.3-1c0.5-1.6,2.6-2.5,4.2-3.7c5-4.1,9.8-8.7,13.7-13.8 c1.8-2.3,3.4-4.7,4.9-7.1C61.1,52,62.3,50.2,63.9,48.3"></path> </g> <g> <path class="st19" d="M63.8,48.7c2-2.6,3.2-5.6,5.6-7.6c1.2-1.1,2.7-1.9,4.3-2.4c1.2-0.3,2.3-0.5,3.4-0.5c1.4,0,2.5,0.3,3.3,0.7 c7.5,3.9,9.4,10.6,6,18.3C81.8,67.6,69,77.6,58.7,80.8c-4,1.3-7.8,1.9-11.3,2c-0.2,0-0.5,0-0.7,0c-3,0-5.9-0.5-8.4-1.5 c-0.6-0.2-1.3-0.2-1.3-0.8c-0.1-0.2,0-0.8,0-1c0-0.3,0.2-0.6,0.3-1c0.5-1.5,2.6-2.4,4.1-3.7c4.9-4,9.6-8.5,13.5-13.5 c1.7-2.2,3.3-4.6,4.8-7C61,52.3,62.3,50.6,63.8,48.7"></path> </g> <g> <path class="st19" d="M63.7,49c2-2.6,3.2-5.6,5.5-7.7c1.2-1.1,2.7-1.9,4.3-2.4c1.2-0.4,2.3-0.5,3.4-0.5c1.4,0,2.5,0.3,3.3,0.7 c7.4,3.9,9.2,10.5,5.9,18.1c-4.6,10.4-17.3,20.3-27.4,23.5c-4,1.3-7.7,1.9-11.2,2c-0.2,0-0.5,0-0.7,0c-3,0-5.8-0.5-8.3-1.5 c-0.6-0.2-1.3-0.2-1.2-0.8c-0.1-0.2,0-0.8,0-0.9c0.1-0.3,0.2-0.6,0.4-1c0.6-1.5,2.6-2.4,4.1-3.6c4.8-3.9,9.4-8.4,13.2-13.2 c1.7-2.2,3.3-4.5,4.8-6.8C61,52.7,62.3,50.9,63.7,49"></path> </g> <g> <path class="st20" d="M63.6,49.4c2-2.6,3.1-5.7,5.5-7.8c1.2-1.1,2.6-2,4.3-2.5c1.2-0.4,2.3-0.5,3.4-0.5c1.4,0,2.5,0.2,3.3,0.6 c7.4,3.9,9,10.5,5.7,17.9c-4.6,10.3-17.2,20-27.1,23.2c-3.9,1.3-7.6,1.9-11.1,2c-0.2,0-0.5,0-0.7,0c-3,0-5.8-0.5-8.2-1.5 c-0.6-0.2-1.3-0.2-1.2-0.8c-0.1-0.2,0-0.7,0.1-0.9c0.1-0.3,0.3-0.6,0.4-0.9c0.6-1.4,2.5-2.3,4-3.5c4.7-3.8,9.2-8.2,13-13 c1.7-2.1,3.2-4.4,4.7-6.7C61,53,62.2,51.3,63.6,49.4"></path> </g> <g> <path class="st20" d="M63.5,49.8c1.9-2.6,3.1-5.8,5.4-7.9c1.2-1.1,2.6-2,4.3-2.5c1.2-0.4,2.3-0.5,3.5-0.5c1.4,0,2.6,0.2,3.3,0.6 c7.4,3.9,8.9,10.4,5.6,17.7C81,67.3,68.4,77,58.8,80.1c-3.9,1.2-7.6,1.9-11,1.9c-0.2,0-0.5,0-0.7,0c-3,0-5.7-0.5-8.1-1.4 c-0.6-0.2-1.3-0.1-1.1-0.8c0-0.2,0.1-0.7,0.1-0.9c0.1-0.3,0.3-0.6,0.5-0.9c0.7-1.4,2.5-2.3,4-3.4c4.6-3.8,9-8,12.7-12.7 c1.7-2.1,3.2-4.3,4.6-6.5C61,53.3,62.2,51.6,63.5,49.8"></path> </g> <g> <path class="st21" d="M63.5,50.2c1.9-2.7,3-5.8,5.4-8c1.2-1.1,2.6-2,4.3-2.6c1.2-0.4,2.3-0.6,3.5-0.5c1.4,0,2.6,0.2,3.3,0.6 c7.3,3.9,8.7,10.4,5.4,17.5c-4.6,10-17.1,19.6-26.5,22.6c-3.8,1.2-7.5,1.9-10.8,1.9c-0.2,0-0.5,0-0.7,0c-2.9,0-5.6-0.5-8-1.4 c-0.6-0.2-1.3-0.1-1.1-0.8c0-0.2,0.1-0.7,0.1-0.9c0.1-0.3,0.3-0.6,0.5-0.9c0.7-1.3,2.5-2.2,3.9-3.4c4.5-3.7,8.8-7.9,12.5-12.4 c1.6-2,3.2-4.2,4.6-6.4C61,53.7,62.2,52,63.5,50.2"></path> </g> <g> <path class="st21" d="M63.4,50.6c1.9-2.7,3-5.9,5.3-8.1c1.2-1.2,2.6-2.1,4.3-2.6c1.1-0.4,2.3-0.6,3.5-0.6c1.4,0,2.6,0.2,3.3,0.6 c7.3,3.9,8.5,10.3,5.3,17.3c-4.6,9.9-17,19.4-26.2,22.3c-3.8,1.2-7.4,1.8-10.7,1.9c-0.2,0-0.5,0-0.7,0c-2.9,0-5.6-0.5-7.9-1.4 c-0.6-0.2-1.2-0.1-1.1-0.8c0-0.2,0.1-0.7,0.2-0.9c0.1-0.3,0.4-0.6,0.6-0.9c0.8-1.3,2.5-2.2,3.9-3.3c4.4-3.6,8.6-7.7,12.2-12.2 c1.6-2,3.1-4.1,4.5-6.3C61,54,62.1,52.3,63.4,50.6"></path> </g> <g> <path class="st21" d="M63.3,51c1.9-2.7,3-5.9,5.3-8.2c1.2-1.2,2.6-2.1,4.3-2.7c1.1-0.4,2.3-0.6,3.5-0.6c1.4,0,2.6,0.2,3.3,0.6 c7.2,3.9,8.3,10.3,5.1,17.1C80.2,67,67.9,76.5,58.9,79.3c-3.7,1.2-7.3,1.8-10.6,1.9c-0.2,0-0.5,0-0.7,0c-2.9,0-5.5-0.5-7.8-1.4 c-0.5-0.2-1.1-0.1-1-0.7c0-0.2,0.1-0.7,0.2-0.9c0.2-0.3,0.4-0.5,0.6-0.8c0.8-1.2,2.5-2.1,3.8-3.2c4.3-3.6,8.5-7.5,12-11.9 c1.6-2,3.1-4,4.4-6.1C60.9,54.3,62.1,52.7,63.3,51"></path> </g> <g> <path class="st22" d="M63.2,51.3c1.9-2.7,2.9-6,5.2-8.3c1.2-1.2,2.6-2.1,4.3-2.7c1.1-0.4,2.3-0.6,3.5-0.6c1.4,0,2.6,0.2,3.4,0.6 c7.2,3.9,8.2,10.2,5,17c-4.6,9.6-16.9,19-25.6,21.8c-3.7,1.2-7.2,1.8-10.5,1.9c-0.2,0-0.4,0-0.7,0c-2.9,0-5.5-0.5-7.7-1.4 c-0.5-0.2-1.1-0.1-1-0.7c0-0.2,0.2-0.7,0.3-0.9c0.2-0.3,0.4-0.5,0.6-0.8c0.9-1.2,2.4-2.1,3.8-3.2c4.2-3.5,8.3-7.4,11.7-11.6 c1.6-1.9,3-3.9,4.4-6C60.9,54.7,62,53.1,63.2,51.3"></path> </g> <g> <path class="st22" d="M63.1,51.7c1.8-2.8,2.9-6.1,5.2-8.4c1.2-1.2,2.6-2.2,4.3-2.7c1.1-0.4,2.3-0.6,3.5-0.6c1.5,0,2.7,0.2,3.4,0.6 c7.1,4,8,10.2,4.8,16.8c-4.6,9.5-16.8,18.8-25.3,21.5c-3.7,1.2-7.1,1.8-10.3,1.9c-0.2,0-0.4,0-0.7,0c-2.8,0-5.4-0.5-7.7-1.3 c-0.5-0.2-1.1,0-1-0.7c0-0.2,0.2-0.7,0.3-0.9c0.2-0.3,0.4-0.5,0.7-0.8c0.9-1.1,2.4-2,3.7-3.1c4.2-3.4,8.1-7.2,11.5-11.4 c1.5-1.9,3-3.8,4.3-5.8C60.9,55,62,53.4,63.1,51.7"></path> </g> <g> <path class="st22" d="M63,52.1c1.8-2.8,2.9-6.1,5.1-8.5c1.2-1.2,2.6-2.2,4.2-2.8c1.1-0.4,2.3-0.6,3.5-0.6c1.5,0,2.7,0.2,3.4,0.6 c7.1,4,7.8,10.1,4.7,16.6c-4.6,9.4-16.7,18.6-25,21.2c-3.6,1.2-7,1.8-10.2,1.8c-0.2,0-0.4,0-0.7,0c-2.8,0-5.3-0.4-7.6-1.3 c-0.5-0.2-1.1,0-0.9-0.7c0-0.2,0.2-0.7,0.3-0.9c0.2-0.3,0.5-0.5,0.7-0.8c1-1.1,2.4-2,3.7-3c4.1-3.3,7.9-7,11.2-11.1 c1.5-1.8,2.9-3.7,4.2-5.7C60.9,55.3,62,53.8,63,52.1"></path> </g> <g> <path class="st23" d="M63,52.5c1.8-2.8,2.8-6.2,5.1-8.6c1.2-1.2,2.6-2.2,4.2-2.8c1.1-0.4,2.3-0.6,3.5-0.6c1.5,0,2.7,0.2,3.4,0.6 c7,4,7.7,10.1,4.5,16.4C79.2,66.6,67.1,75.7,59,78.3c-3.6,1.1-7,1.7-10.1,1.8c-0.2,0-0.4,0-0.6,0c-2.8,0-5.3-0.4-7.5-1.3 c-0.5-0.2-1.1,0-0.9-0.7c0.1-0.2,0.3-0.7,0.4-0.8c0.2-0.3,0.5-0.5,0.8-0.7c1-1,2.4-1.9,3.6-2.9c4-3.3,7.7-6.9,11-10.8 c1.5-1.8,2.9-3.6,4.2-5.5C60.9,55.7,61.9,54.1,63,52.5"></path> </g> <g> <path class="st23" d="M62.9,52.9c1.7-2.8,2.8-6.2,5-8.7c1.2-1.3,2.6-2.3,4.2-2.9c1.1-0.4,2.3-0.7,3.5-0.6c1.5,0,2.7,0.2,3.4,0.6 c7,4,7.5,10,4.4,16.2C78.9,66.5,66.9,75.6,59,78.1c-3.5,1.1-6.9,1.7-10,1.8c-0.2,0-0.4,0-0.6,0c-2.7,0-5.2-0.4-7.4-1.3 c-0.5-0.2-1.1,0-0.9-0.7c0.1-0.2,0.3-0.7,0.4-0.8c0.3-0.2,0.5-0.5,0.8-0.7c1.1-1,2.4-1.9,3.6-2.9c3.9-3.2,7.5-6.7,10.7-10.6 c1.4-1.7,2.8-3.5,4.1-5.4C60.9,56,61.9,54.5,62.9,52.9"></path> </g> <g> <path class="st24" d="M62.8,53.2c1.7-2.9,2.7-6.3,5-8.8c1.2-1.3,2.6-2.3,4.2-2.9c1.1-0.4,2.3-0.7,3.5-0.7c1.5,0,2.7,0.2,3.4,0.6 c7,4,7.3,10,4.2,16c-4.6,9-16.5,17.9-24.2,20.4c-3.5,1.1-6.8,1.7-9.8,1.8c-0.2,0-0.4,0-0.6,0c-2.7,0-5.2-0.4-7.3-1.3 c-0.5-0.2-1.1,0-0.8-0.7c0.1-0.2,0.3-0.7,0.5-0.8c0.3-0.2,0.6-0.4,0.8-0.7c1.1-0.9,2.3-1.8,3.5-2.8c3.8-3.1,7.3-6.6,10.5-10.3 c1.4-1.7,2.8-3.4,4-5.3C60.9,56.3,61.8,54.8,62.8,53.2"></path> </g> <g> <path class="st24" d="M41.5,78.1c2.1,0.8,4.5,1.2,7.2,1.2c3.2,0,6.7-0.6,10.3-1.8c12.5-4,37.1-25.9,19.8-35.9 c-0.7-0.4-1.9-0.6-3.4-0.6c-3,0-5.8,1.4-7.8,3.7c-2.2,2.5-3.2,6-4.9,8.9c-2,3.4-4.3,6.6-6.9,9.6c-4.3,5-9.2,9.5-14.6,13.4 c-0.1,0.1-0.4,0.6-0.5,0.8C40.4,78.1,41,77.9,41.5,78.1"></path> </g> <g> <path class="st25" d="M25.3,83c12.3-8.7,28.1-23,36.9-42.6c5.5-11.7,15.7-12.1,21.2-10.1c5.5,2.1,13.1,7.8,8.7,22 c-4.3,13.8-18.1,27-37.7,33.3c-18.2,5.8-27.5,0.4-29.1-0.5C23.6,84.3,24.4,83.7,25.3,83"></path> </g> </svg> 