<?xml version="1.0" encoding="utf-8"?>
<!-- Generator: Adobe Illustrator 16.0.3, SVG Export Plug-In . SVG Version: 6.00 Build 0)  -->
<!DOCTYPE svg PUBLIC "-//W3C//DTD SVG 1.1//EN" "http://www.w3.org/Graphics/SVG/1.1/DTD/svg11.dtd">
<svg version="1.1" id="Layer_1" xmlns="http://www.w3.org/2000/svg" xmlns:xlink="http://www.w3.org/1999/xlink" 
	 viewBox="0 0 492.818 163.442" enable-background="new 0 0 492.818 163.442"
	 xml:space="preserve">
<rect x="31.722" y="105.746" fill="#001722" width="17.385" height="55.457"/>
<g>
	<defs>
		<rect id="SVGID_1_" width="492.818" height="163.442"/>
	</defs>
	<clipPath id="SVGID_2_">
		<use xlink:href="#SVGID_1_"  overflow="visible"/>
	</clipPath>
	<path clip-path="url(#SVGID_2_)" fill="#001722" d="M63.723,105.748h17.31v28.673c0,3.265-0.393,14.25,9.054,14.25
		c2.871,0,8.688-2.87,8.688-10.274v-32.648h17.28v38.884c0,5.524-0.103,7.028,0.417,16.573h-14.89c0-0.827-0.512-3.896-0.813-8.082
		c-3.83,5.206-8.28,9.397-17.936,9.397c-19.957,0-19.11-24.484-19.11-20.592V105.748z"/>
	<path clip-path="url(#SVGID_2_)" fill="#001722" d="M162.542,118.627v-12.879h-12.326V90.724l-17.018,4.827v10.197h-7.289v12.879
		h7.289v23.989c0,20.825,16.971,19.906,18.879,19.906c1.903,0,5.338,0,9.94-1.317v-13.451c-11.879,2.838-11.801-4.548-11.801-8.639
		v-20.488H162.542z"/>
	<path clip-path="url(#SVGID_2_)" fill="#001722" d="M186.197,127.26c0.157-4.507,3.394-11.239,10.758-11.239
		c8.308,0,9.391,8.482,9.648,11.239H186.197z M197.807,104.466c-12.518,0-27.999,9.207-27.999,29.53
		c0,27.701,25.014,28.525,30.53,28.525c5.523,0,10.966-0.587,19.152-3.639l-2.467-11.7c-21.971,6.663-29.839-1.221-30.652-8.163
		h35.363C226.156,105.748,201.018,104.466,197.807,104.466"/>
	<path clip-path="url(#SVGID_2_)" fill="#001722" d="M272.089,154.919l1.806,4.572c-8.353,3.95-13.722,3.95-16.351,3.95
		c-12.364,0-28.067-7.793-28.067-29.554c0-17.099,11.492-30.445,29.955-30.445c5.983,0,12.068,1.9,14.722,3.482
		c-1.873,4.596-2.036,5.031-2.036,5.031c-1.949-1.159-7.008-3.525-13.292-3.525c-14.331,0-23.488,10.271-23.488,25.457
		c0,13.937,8.923,24.22,22.207,24.22C266.376,158.108,270.85,155.574,272.089,154.919"/>
	<path clip-path="url(#SVGID_2_)" fill="#001722" d="M287.303,161.989h5.868v-32.53c0-11.064,6.786-22.224,18.051-20.181v-5.534
		c-1.89-0.522-14.227-1.223-18.859,13.425v-12.494h-5.344c0.19,8.504,0.284,2.462,0.284,24.784V161.989z"/>
	<path clip-path="url(#SVGID_2_)" fill="#001722" d="M322.401,128.077c1.128-8.771,6.64-19.948,18.979-19.948
		c12.344,0,17.023,10.396,17.023,19.948H322.401z M342.15,103.444c-20.018,0-25.755,19.24-25.755,30.277
		c0,19.315,11.573,29.719,27.114,29.719c5.195,0,14.101-1.476,17.735-3.931c-0.364-0.966-1.397-3.479-1.749-4.651
		c-4.599,2.653-10.627,3.375-15.986,3.375c-5.38,0-21.45-2.202-21.45-25.347h42.238C365.218,121.843,361.245,103.444,342.15,103.444
		"/>
	<path clip-path="url(#SVGID_2_)" fill="#001722" d="M418.719,129.032v0.919v7.612c0,15.175-11.106,20.925-19.08,20.925
		c-12.807,0-19.704-11.504-19.704-24.681c0-14.712,8.427-25.557,19.704-25.557c9.89,0,19.08,6.389,19.08,20.492V129.032z
		 M424.388,142.495V77.464h-5.576v36.333c-0.549-1.069-5.522-10.354-19.018-10.354c-15.951,0-25.782,14.563-25.782,30.455
		c0,19.992,12.82,29.542,24.793,29.542c10.414,0,17.744-6.004,20.537-12.768c0,3.369,0.192,9.456,0.387,11.331h5.07
		C424.551,157.204,424.388,145.868,424.388,142.495"/>
	<rect x="443.616" y="104.466" clip-path="url(#SVGID_2_)" fill="#001722" width="5.612" height="57.54"/>
	<path clip-path="url(#SVGID_2_)" fill="#001722" d="M451.081,88.524c0,2.798-2.089,5.06-4.659,5.06
		c-2.573,0-4.656-2.262-4.656-5.06c0-2.8,2.083-5.062,4.656-5.062C448.992,83.462,451.081,85.724,451.081,88.524"/>
	<path clip-path="url(#SVGID_2_)" fill="#001722" d="M492.818,109.465v-5h-16.58V92.164l-5.576,2.122c0,0-0.02,4.118-0.037,10.18
		h-9.643v5h9.63c-0.03,11.214-0.074,26.058-0.074,35.376c0,25.148,19.205,17.68,21.416,16.985c0-0.558-0.433-2.402-0.757-4.461
		c-13.484,4.145-14.959-4.629-14.959-12.524v-35.376H492.818z"/>
	<path clip-path="url(#SVGID_2_)" fill="#ED3134" d="M1.583,83.664C20.795,70.102,45.422,47.84,59.114,17.185
		C67.658-1.109,83.609-1.714,92.186,1.493c8.583,3.221,20.49,12.219,13.534,34.298C98.97,57.257,77.492,77.935,46.856,87.71
		C18.44,96.778,3.857,88.322,1.378,86.99C-1.011,85.726,0.138,84.712,1.583,83.664"/>
</g>
</svg>
