<svg xmlns="http://www.w3.org/2000/svg" xmlns:xlink="http://www.w3.org/1999/xlink" xml:space="preserve" viewBox="0 0 492.818 163.441"><path fill="#001722" d="M31.722 105.746h17.385v55.457H31.722z"/><defs><path id="a" d="M0 0h492.818v163.442H0z"/></defs><clipPath id="b"><use xlink:href="#a" overflow="visible"/></clipPath><path fill="#001722" d="M63.723 105.748h17.31v28.673c0 3.265-.393 14.25 9.054 14.25 2.871 0 8.688-2.87 8.688-10.274v-32.648h17.28v38.884c0 5.524-.103 7.028.417 16.573h-14.89c0-.827-.512-3.896-.813-8.082-3.83 5.206-8.28 9.397-17.936 9.397-19.957 0-19.11-24.484-19.11-20.592v-36.181zM162.542 118.627v-12.879h-12.326V90.724l-17.018 4.827v10.197h-7.289v12.879h7.289v23.989c0 20.825 16.971 19.906 18.879 19.906 1.903 0 5.338 0 9.94-1.317v-13.451c-11.879 2.838-11.801-4.548-11.801-8.639v-20.488h12.326zM186.197 127.26c.157-4.507 3.394-11.239 10.758-11.239 8.308 0 9.391 8.482 9.648 11.239h-20.406zm11.61-22.794c-12.518 0-27.999 9.207-27.999 29.53 0 27.701 25.014 28.525 30.53 28.525 5.523 0 10.966-.587 19.152-3.639l-2.467-11.7c-21.971 6.663-29.839-1.221-30.652-8.163h35.363c4.422-33.271-20.716-34.553-23.927-34.553M272.089 154.919l1.806 4.572c-8.353 3.95-13.722 3.95-16.351 3.95-12.364 0-28.067-7.793-28.067-29.554 0-17.099 11.492-30.445 29.955-30.445 5.983 0 12.068 1.9 14.722 3.482-1.873 4.596-2.036 5.031-2.036 5.031-1.949-1.159-7.008-3.525-13.292-3.525-14.331 0-23.488 10.271-23.488 25.457 0 13.937 8.923 24.22 22.207 24.22 8.831.001 13.305-2.533 14.544-3.188M287.303 161.989h5.868v-32.53c0-11.064 6.786-22.224 18.051-20.181v-5.534c-1.89-.522-14.227-1.223-18.859 13.425v-12.494h-5.344c.19 8.504.284 2.462.284 24.784v32.53zM322.401 128.077c1.128-8.771 6.64-19.948 18.979-19.948 12.344 0 17.023 10.396 17.023 19.948h-36.002zm19.749-24.633c-20.018 0-25.755 19.24-25.755 30.277 0 19.315 11.573 29.719 27.114 29.719 5.195 0 14.101-1.476 17.735-3.931-.364-.966-1.397-3.479-1.749-4.651-4.599 2.653-10.627 3.375-15.986 3.375-5.38 0-21.45-2.202-21.45-25.347h42.238c.921-11.043-3.052-29.442-22.147-29.442M418.719 129.032v8.531c0 15.175-11.106 20.925-19.08 20.925-12.807 0-19.704-11.504-19.704-24.681 0-14.712 8.427-25.557 19.704-25.557 9.89 0 19.08 6.389 19.08 20.492v.29zm5.669 13.463V77.464h-5.576v36.333c-.549-1.069-5.522-10.354-19.018-10.354-15.951 0-25.782 14.563-25.782 30.455 0 19.992 12.82 29.542 24.793 29.542 10.414 0 17.744-6.004 20.537-12.768 0 3.369.192 9.456.387 11.331h5.07c-.248-4.799-.411-16.135-.411-19.508M443.616 104.466h5.612v57.54h-5.612zM451.081 88.524c0 2.798-2.089 5.06-4.659 5.06-2.573 0-4.656-2.262-4.656-5.06 0-2.8 2.083-5.062 4.656-5.062 2.57 0 4.659 2.262 4.659 5.062M492.818 109.465v-5h-16.58V92.164l-5.576 2.122s-.02 4.118-.037 10.18h-9.643v5h9.63c-.03 11.214-.074 26.058-.074 35.376 0 25.148 19.205 17.68 21.416 16.985 0-.558-.433-2.402-.757-4.461-13.484 4.145-14.959-4.629-14.959-12.524v-35.376h16.58z" clip-path="url(#b)"/><path fill="#ED3134" d="M1.583 83.664C20.795 70.102 45.422 47.84 59.114 17.185 67.658-1.109 83.609-1.714 92.186 1.493c8.583 3.221 20.49 12.219 13.534 34.298-6.75 21.466-28.228 42.144-58.864 51.919-28.416 9.068-42.999.612-45.478-.72-2.389-1.264-1.24-2.278.205-3.326" clip-path="url(#b)"/></svg>