<svg xmlns="http://www.w3.org/2000/svg" viewBox="0 0 119.97 24.01"><path fill="#099bd8" d="M47.98 24h-4.56L34.7 8.24l-2.28-4.11L34.7 0l2.28 4.11 11 19.87ZM99.97 0h20v3.47h-20V0Z"/><path fill="#161920" d="M18.53 20.56v3.43H0V0h3.43v20.56h15.09ZM29.5 9.45l2.26 4.13-5.79 10.41h-4.56l8.08-14.54ZM69.78.05v23.84l-3.45-3.45-12.1-12.1-3.45-3.45V0l15.55 15.55V.05h3.45Zm-19 11.48 3.45 3.45V24h-3.45V11.52Zm45.19.52c0 6.08-4.53 11.21-10.57 11.95H74.24V9.46h3.46v11.08h7.46a8.572 8.572 0 0 0 7.25-9.73 8.57 8.57 0 0 0-8.12-7.33H74.23V0h9.82c6.59.08 11.9 5.45 11.9 12.05m7.47 8.49v-7.67h12.54V9.41h-16v14.6h19.99v-3.46h-16.53Z"/></svg>