<?xml version="1.0" encoding="UTF-8"?><svg xmlns="http://www.w3.org/2000/svg" viewBox="0 0 120 24"><defs><style>.d{fill:#161920;}.e{fill:#099bd8;}</style></defs><g id="a"/><g id="b"><g id="c"><g><path class="e" d="M47.98,24h-4.56l-8.72-15.76-2.28-4.11L34.7,0h0l2.28,4.11,11,19.87ZM99.97,0h20V3.47h-20V0Z"/><path class="d" d="M18.53,20.56v3.43H0V0H3.43V20.56h15.09Zm10.97-11.11l2.26,4.13-5.79,10.41h-4.56l8.08-14.54ZM69.78,.05V23.89l-3.45-3.45-12.1-12.1h0l-3.45-3.45V0l15.55,15.55V.05h3.45Zm-19,11.48l3.45,3.45v9.02h-3.45V11.52Zm45.19,.52c0,6.08-4.53,11.21-10.57,11.95h-11.16V9.46h3.46v11.08h7.46c4.69-.68,7.94-5.04,7.25-9.73-.59-4.08-4-7.15-8.12-7.33h-10.06V0h9.82c6.59,.08,11.9,5.45,11.9,12.05m7.47,8.49v-7.67h12.54v-3.46h-16v14.6h19.99v-3.46h-16.53Z"/></g></g></g></svg>