<svg xmlns="http://www.w3.org/2000/svg" viewBox="0 0 92 23.644"><path fill="#24C6B1" d="M29.359 0a2.746 2.746 0 0 0-2.753 2.74 2.746 2.746 0 0 0 2.753 2.74 2.746 2.746 0 0 0 2.752-2.74A2.746 2.746 0 0 0 29.36 0Zm30.279 11.689V7.762h-3.77V0l-4.559 2.62v15.03c0 3.636 2.134 5.846 6.195 5.846.76 0 1.461-.087 2.134-.29v-3.752a4.027 4.027 0 0 1-1.052.116c-1.783 0-2.718-.698-2.718-2.472v-5.41h3.77zm-42.427-.03c1.695 0 2.543.99 2.543 2.968v8.667h4.558v-9.685c0-3.752-1.84-6.196-5.493-6.196-2.192 0-3.653.757-5.173 2.473-.876-1.658-2.396-2.473-4.558-2.473-1.87 0-3.711.873-4.559 2.385h-.058V7.762H0v15.532h4.559v-8.61c0-1.832.935-3.024 2.776-3.024 1.694 0 2.542 1.018 2.542 3.025v8.609h4.529v-8.667c0-1.833 1.023-2.967 2.805-2.967zM92 18.612c0-2.705-2.075-4.246-6.02-5.06-1.373-.291-2.045-.757-2.045-1.426 0-.61.701-1.134 1.636-1.134 1.315 0 2.25.495 2.835 1.483l3.302-1.948c-1.023-1.891-3.127-3.141-6.02-3.141-1.636 0-3.039.465-4.237 1.395-1.169.902-1.753 2.095-1.753 3.52 0 2.53 1.84 4.217 5.552 5.031 1.987.437 2.484.902 2.484 1.513 0 .61-.76 1.134-1.9 1.134-1.694 0-2.863-.64-3.506-1.89l-3.36 1.977c1.256 2.385 3.535 3.578 6.808 3.578 3.857 0 6.224-2.036 6.224-5.032zM65.69 15.5c0-1.134.379-2.094 1.11-2.821.73-.757 1.636-1.134 2.717-1.134 1.081 0 2.017.377 2.747 1.134.73.727 1.11 1.687 1.11 2.821 0 2.327-1.636 3.984-3.828 3.984-1.08 0-2.016-.377-2.746-1.105-.731-.756-1.11-1.715-1.11-2.879zm-4.676.058c0 2.327.818 4.247 2.454 5.788 1.637 1.541 3.653 2.298 6.05 2.298 2.366 0 4.382-.786 6.048-2.327 1.666-1.57 2.484-3.52 2.484-5.846 0-2.298-.818-4.188-2.455-5.73-1.636-1.541-3.652-2.327-6.02-2.327-2.366 0-4.412.786-6.077 2.357-1.666 1.54-2.484 3.49-2.484 5.787zm-11.998 7.737v-9.657c0-1.744-.468-3.199-1.432-4.391-.935-1.192-2.338-1.774-4.208-1.774-.672 0-1.49.029-2.864.814a4.065 4.065 0 0 0-1.548 1.512h-.03V7.762h-4.529v15.532h4.559v-8.61c0-1.715.964-3.024 2.805-3.024 1.782 0 2.717 1.192 2.717 3.025v8.609h4.53zm-21.937 0h4.588V7.762H27.08v15.532Z"/></svg>