	<svg xmlns="http://www.w3.org/2000/svg" xmlns:xlink="http://www.w3.org/1999/xlink" width="142" height="44" viewBox="0 0 142 44"><defs><linearGradient id="a" x1="-5.17" y1="-63.27" x2="10.48" y2="-78.93" gradientTransform="translate(0 102)" gradientUnits="userSpaceOnUse"><stop offset="0" stop-color="#87a330"/><stop offset="0.18" stop-color="#8ba631"/><stop offset="0.35" stop-color="#96b133"/><stop offset="0.51" stop-color="#a7c136"/><stop offset="0.65" stop-color="#97b233"/><stop offset="0.82" stop-color="#8ba731"/><stop offset="0.99" stop-color="#87a330"/></linearGradient><linearGradient id="b" x1="1.61" y1="-76.11" x2="21.85" y2="-96.35" gradientTransform="translate(0 102)" gradientUnits="userSpaceOnUse"><stop offset="0" stop-color="#ccc"/><stop offset="0.15" stop-color="#d0d0d0"/><stop offset="0.28" stop-color="#dbdbdb"/><stop offset="0.42" stop-color="#eee"/><stop offset="0.51" stop-color="#fff"/><stop offset="0.59" stop-color="#f0f0f0"/><stop offset="0.72" stop-color="#dcdcdc"/><stop offset="0.86" stop-color="#d0d0d0"/><stop offset="0.99" stop-color="#ccc"/></linearGradient></defs><title>moncera-logo</title><polygon points="4.3 36.6 4.3 16.8 0.2 19.8 0.2 44.1 9.9 37.2 9.9 32.7 4.3 36.6" style="fill:url(#a)"/><polygon points="16.4 24.5 7.1 31.3 7.1 7 16.4 0.2 16.4 24.5" style="fill:url(#b)"/><path d="M41.8,17.1A7.85,7.85,0,0,1,49.7,25v7.9H46.9V25a4.69,4.69,0,0,0-1.5-3.5,5.11,5.11,0,0,0-7-.1,4.82,4.82,0,0,0-1.5,3.3v8.2H33.8V24.7a4.46,4.46,0,0,0-1.5-3.3A4.22,4.22,0,0,0,29,20.1a4.76,4.76,0,0,0-3.4,1.4A5,5,0,0,0,24.2,25v7.9H21.1V25a7.87,7.87,0,0,1,2.3-5.6A7.47,7.47,0,0,1,29,17.1a7.61,7.61,0,0,1,6.4,3.3A8.14,8.14,0,0,1,38.2,18,5.72,5.72,0,0,1,41.8,17.1Z" style="fill:#fff"/><path d="M58.8,32.93A7.85,7.85,0,0,1,50.9,25h0a7.9,7.9,0,0,1,13.4-5.7l.1.1a7.9,7.9,0,0,1-5.6,13.5Zm-3.5-4.5a5,5,0,0,0,7,0,4.89,4.89,0,0,0,0-6.9h0a5,5,0,0,0-7,0,4.89,4.89,0,0,0,0,6.9Z" style="fill:#fff"/><path d="M70.1,19.3a7.9,7.9,0,0,1,13.5,5.6v8H80.8v-8a5.06,5.06,0,0,0-4.9-5h0a5,5,0,0,0-3.5,1.4,4.69,4.69,0,0,0-1.5,3.5v8H67.8v-8A7.81,7.81,0,0,1,70.1,19.3Z" style="fill:#fff"/><path d="M87.3,30.6a7.91,7.91,0,0,1,0-11.2,7.47,7.47,0,0,1,5.6-2.3h8v2.8h-8a5,5,0,0,0-5,4.9h0a5.13,5.13,0,0,0,5,5h8v3.1h-8A7.54,7.54,0,0,1,87.3,30.6Z" style="fill:#fff"/><path d="M117,20.11h-7.8a4.89,4.89,0,0,0-4.9,4.8v.4a5,5,0,0,0,1.1,2.7,4.8,4.8,0,0,0,3.7,1.7h7.8v3.1H109a7.85,7.85,0,0,1-7.9-7.9h0a7.86,7.86,0,0,1,2.3-5.6A7.47,7.47,0,0,1,109,17h7.9v3.1Zm-9.3,5.8a1.57,1.57,0,0,1,0-2.2,1.61,1.61,0,0,1,1.1-.5h4.1v3.1h-4.1A1.19,1.19,0,0,1,107.7,25.9Z" style="fill:#87a330"/><path d="M118.5,32.9V24.8a7.85,7.85,0,0,1,7.8-7.8v3a4.69,4.69,0,0,0-3.5,1.5,4.69,4.69,0,0,0-1.5,3.5v7.9Z" style="fill:#87a330"/><path d="M142.08,25.25V32.9H139V31.21a8.69,8.69,0,0,1-5.16,1.69,8.35,8.35,0,0,1-6.26-2.78A7.74,7.74,0,0,1,128,19.4a8.29,8.29,0,0,1,14.1,5.86Zm-11.76,3.21a5,5,0,0,0,7,0A5.06,5.06,0,0,0,138.77,25a4.92,4.92,0,1,0-9.83-.1A5,5,0,0,0,130.33,28.47Z" style="fill:#87a330"/></svg>