<svg xmlns="http://www.w3.org/2000/svg" viewBox="0 0 512 102.572"><path d="M126.465 14.584v66.111h12.281V57.188h14.586l.438-.005c14.368-.206 20.576-10.562 20.576-21.2 0-10.747-6.333-21.4-21.014-21.4zm175.88 0v66.111h27.923l.382-.002c12.627-.18 20.15-9.22 20.15-19.86 0-5.756-4.029-13.433-12.28-15.448 6.62-2.495 8.73-8.06 8.73-12.858 0-11.034-7.388-17.943-18.998-17.943zm-163.599 10.94h14.393l.183.001c6.013.112 8.74 5.708 8.74 10.457 0 4.894-2.973 10.266-9.306 10.266h-14.01zm175.881 0h12.529c4.703.061 7.332 3.023 7.332 7.675 0 4.414-2.686 7.965-7.1 7.965h-12.761Zm-119.844 9.402c-12.761 0-23.22 9.116-23.22 23.22 0 14.105 10.459 23.508 23.22 23.508 8.252 0 16.888-3.165 20.918-10.841-2.878-1.536-6.141-3.262-8.924-4.797-2.11 3.838-6.716 5.755-11.226 5.755-6.62 0-11.612-3.644-12.38-9.593h34.161l.03-.358c.074-.948.142-2.28.158-3.289l.004-.385c0-14.104-9.98-23.22-22.74-23.22zm47.975 0c-12.762 0-23.219 9.116-23.219 23.22 0 14.105 10.457 23.508 23.219 23.508 8.252 0 16.888-3.165 20.918-10.841-2.879-1.536-6.141-3.262-8.924-4.797-2.111 3.838-6.717 5.755-11.227 5.755-6.62 0-11.609-3.644-12.377-9.593h34.159l.03-.358c.076-.948.144-2.28.159-3.289l.004-.385c0-14.104-9.98-23.22-22.742-23.22zm49.703 0c-5.086 0-10.361 3.36-12.664 11.515V35.887H268.09v44.808h11.707V64.863c0-11.898 3.262-18.998 11.226-18.998h.272c1.29.006 3.957.09 6.54 1.248l2.015-10.554c-1.823-.96-4.223-1.633-7.39-1.633zm83.383 0c-12.762 0-23.22 9.116-23.22 23.22-.001 14.105 10.458 23.508 23.22 23.508 8.252 0 16.888-3.165 20.918-10.841-2.879-1.536-6.141-3.262-8.924-4.797-2.111 3.838-6.717 5.755-11.227 5.755-6.62 0-11.609-3.644-12.377-9.593h34.159l.03-.358c.076-.948.144-2.28.159-3.289l.002-.385c0-14.104-9.979-23.22-22.74-23.22zm49.703 0c-5.086 0-10.363 3.36-12.666 11.515V35.887h-11.705v44.808h11.705V64.863c0-11.898 3.262-18.998 11.226-18.998h.274c1.29.006 3.955.09 6.539 1.248l2.016-10.554c-1.824-.96-4.223-1.633-7.39-1.633zm33.68 0c-5.086 0-10.364 3.36-12.666 11.515V35.887h-11.706v44.808h11.706V64.863c0-11.898 3.262-18.998 11.226-18.998h.274c1.29.006 3.955.09 6.539 1.248l1.505-7.888 16.053 38.017-10.265 25.33h12.377L512 35.887h-12.475l-11.224 27.922-11.131-27.922-12.066-.002c-1.586-.587-3.52-.96-5.877-.96zm-264.348 9.787c5.757 0 10.363 3.359 11.226 9.5h-23.029l.028-.18c.932-5.933 5.695-9.32 11.775-9.32zm47.976 0c5.758 0 10.362 3.359 11.225 9.5h-23.027l.027-.18c.933-5.933 5.696-9.32 11.776-9.32zm133.084 0c5.758 0 10.363 3.359 11.227 9.5h-23.027l.025-.18c.933-5.933 5.696-9.32 11.775-9.32zm-61.312 6.717h14.68l.17.002c5.55.096 8.466 4.936 8.466 9.21 0 4.51-2.974 9.116-8.347 9.116h-14.97z"/><path fill-rule="evenodd" d="M47.976 0c.902 0 1.798.025 2.687.074v22.371a25.6 25.6 0 0 0-3.07-.184c-13.851 0-25.105 11.115-25.329 24.912l-.003.42v40.892C8.877 79.972 0 65.011 0 47.976 0 21.48 21.48 0 47.976 0Zm-.384 30.705c.944 0 1.87.077 2.771.226l.3.052v16.61l.001.282a25.21 25.21 0 0 0 4.854 14.633 16.813 16.813 0 0 1-7.926 1.972c-9.326 0-16.887-7.561-16.887-16.888 0-9.327 7.56-16.887 16.887-16.887z"/><path fill="#00e6a5" fill-rule="evenodd" d="M30.704 66.473a25.237 25.237 0 0 0 16.888 6.45 25.21 25.21 0 0 0 14.2-4.351 25.214 25.214 0 0 0 14.202 4.352 25.225 25.225 0 0 0 15.903-5.613C84.46 84.178 67.593 95.952 47.976 95.952a47.865 47.865 0 0 1-17.272-3.203zm45.29-35.768c9.327 0 16.888 7.56 16.888 16.887 0 9.327-7.561 16.888-16.888 16.888-2.865 0-5.562-.713-7.925-1.972a25.217 25.217 0 0 0 4.855-14.916 25.214 25.214 0 0 0-4.856-14.916 16.813 16.813 0 0 1 7.926-1.971zm-14.2 7.744a16.809 16.809 0 0 1 2.686 9.143c0 3.37-.987 6.508-2.687 9.143a16.809 16.809 0 0 1-2.687-9.143c0-3.276.933-6.333 2.547-8.922zM59.106 1.298c14.28 3.392 26.086 13.167 32.24 26.144a25.226 25.226 0 0 0-15.353-5.181 25.211 25.211 0 0 0-14.2 4.352c-.753-.51-1.533-.98-2.34-1.409l-.347-.18z"/></svg>