<?xml version="1.0" encoding="UTF-8"?>
<svg id="Layer_2" data-name="Layer 2" xmlns="http://www.w3.org/2000/svg" xmlns:xlink="http://www.w3.org/1999/xlink" viewBox="0 0 217.164 33.6">
  <defs>
    <style>
      .cls-1 {
        fill: #2c2f3e;
      }

      .cls-2 {
        fill: url(#linear-gradient);
      }
    </style>
    <linearGradient id="linear-gradient" x1="-.048" y1="175.268" x2="34.952" y2="175.268" gradientTransform="translate(0 -160.268)" gradientUnits="userSpaceOnUse">
      <stop offset="0" stop-color="#f9a54b"/>
      <stop offset=".16" stop-color="#f99e4a"/>
      <stop offset=".64" stop-color="#f98c49"/>
      <stop offset="1" stop-color="#f98648"/>
    </linearGradient>
  </defs>
  <g id="Layer_1-2" data-name="Layer 1">
    <g>
      <g>
        <path class="cls-2" d="m24.3,21.9h0l-8.3,3.2-10.9-5.3,2.2-9.7,14-5.3h0l5.7-2.1-5.5-2.7L3.4,6.8,0,22.3l15.8,7.7,18.1-6.9,1.1-5.2-10.7,4Z"/>
        <path class="cls-1" d="m34.9,17.2l2.1-9.6-9.6-4.6-5.4,2,10.2,4.9-2,9"/>
      </g>
      <g>
        <path class="cls-1" d="m48.5,4.7h9c4.6,0,6,3.1,5.2,7.1-1,4.8-4.2,7.2-9.1,7.2h-2.1l-1.8,8.8h-6l4.8-23.1Zm3.9,10h1.1c1.5,0,2.5-.9,2.9-2.8.4-1.9-.2-2.8-1.8-2.8h-1.1l-1.1,5.6Z"/>
        <path class="cls-1" d="m66.1,4.7h5.8l-4.8,23.2h-5.8l4.8-23.2Z"/>
        <path class="cls-1" d="m78.3,27.9c-.1-.6,0-1.2,0-2h-.1c-1,1.6-2.7,2.4-4.4,2.4-3.5,0-4.5-2.2-3.8-5.2.6-3.2,2.1-4.8,6-5.6l2.4-.6c1.3-.3,1.9-.8,2.1-1.9s-.2-1.6-1.2-1.6c-1.1,0-1.7.5-2.1,2.3h-5.1c1-5.1,5.3-5.9,7.9-5.9,4.1,0,6.7,1.1,5.8,5.6l-1.8,8.6c-.4,1.7-.6,2.9-.2,3.8h-5.5v.1Zm.9-6.4l.5-2.1h-.1c-.4.5-1.2.4-2.1.8-1,.4-1.5,1.1-1.7,2.3-.2,1.2.2,1.9,1,1.9,1.3,0,2-1,2.4-2.9Z"/>
        <path class="cls-1" d="m97,17.2c.3-1.4.3-2.3.2-2.8-.1-.5-.5-.7-1.1-.7-1.3,0-2,1.2-2.9,5.5s-.7,5.4.6,5.4c1.1,0,1.8-.7,2.3-2.9l.2-1.1h5.3c-.6,2.8-1.4,4.7-2.8,5.9s-3.3,1.8-5.7,1.8c-4.5,0-7.3-1.4-5.7-8.9,1.7-8.3,5.4-9.5,9.8-9.5,5.2,0,6,3,5.1,7.3h-5.3Z"/>
        <path class="cls-1" d="m108.8,20.1l-.5,2.3c-.4,1.9.3,2.4,1.1,2.4,1.1,0,1.8-.6,2.3-3h5.3c-.9,4.3-3.4,6.6-8.2,6.6-4.2,0-6.1-1.4-6.1-5,0-1.2.2-2.6.5-4.2,1.4-6.7,4.1-9.2,9.4-9.2,4.7,0,6.6,2.1,5.3,8.4l-.4,1.8h-8.7v-.1Zm4-4c.4-1.8.2-2.7-1.1-2.7-1.2,0-1.8.8-2.1,2.7l-.2.8h3.2l.2-.8Z"/>
        <path class="cls-1" d="m120.2,10.3h1.9l1.1-5.2h5.8l-1.1,5.2h2.3l-.8,3.9h-2.3l-1.8,8.4c-.2,1,.2,1.4,1.1,1.4h.9l-.8,3.9c-1.1.1-2.2.2-3.2.2-3.6,0-4.8-.6-4-4.5l1.9-9.3h-1.9l.9-4Z"/>
        <path class="cls-1" d="m147.2,15.3h7.8l-2.6,12.6h-4.1l.3-2h-.1c-1.2,2-3.5,2.5-5.5,2.5-6.2,0-5.7-4.3-4.2-12,1.6-7.7,4-12,11.1-12,4.3,0,6.8,2.2,5.7,7.8h-5.8c.2-1.2.3-2.1.2-2.7-.1-.7-.5-1-1.2-1-2,0-2.5,1.7-3.8,7.9-1.3,6.3-1.5,7.9.4,7.9,1.3,0,2.2-.8,3-4.9h-2.1l.9-4.1Z"/>
        <path class="cls-1" d="m158.3,10.3h5.6l-.6,2.8h.1c1.1-2.1,2.9-3.2,4.6-3.2h.9l-1.1,5.4c-.4-.1-.9-.1-1.4-.1-2.1,0-3.4.8-3.9,3.1l-2,9.6h-5.8l3.6-17.6Z"/>
        <path class="cls-1" d="m173.2,28.3c-6.9,0-6.6-4.2-5.5-9.2.9-4.6,2.8-9.2,9.4-9.2,6.8,0,6.6,4.2,5.5,9.2-.9,4.6-2.8,9.2-9.4,9.2Zm.8-3.8c1.3,0,1.8-1,2.8-5.4.9-4.4.9-5.5-.5-5.5-1.3,0-1.9,1-2.8,5.5-.9,4.4-.8,5.4.5,5.4Z"/>
        <path class="cls-1" d="m186.4,10.3h5.8l-2.4,11.6c-.4,1.5-.1,2.1,1,2.1,1,0,1.5-.6,1.9-2.1l2.4-11.6h5.8l-3.6,17.5h-5.6l.4-2.1h-.1c-1.1,1.7-2.7,2.6-4.8,2.6-2.6,0-4.4-1-3.6-4.8l2.8-13.2Z"/>
        <path class="cls-1" d="m203.5,10.3h5.6l-.5,2.4h.1c1.1-1.9,2.6-2.9,4.6-2.9,3.9,0,4.6,3.1,3.2,9.6-1.4,6.7-4,8.9-7.2,8.9-1.7,0-3-.6-3.2-2.4h-.1l-1.6,7.7h-5.8l4.9-23.3Zm4.6,13.7c1.4,0,1.9-1.1,2.7-4.9s.7-4.9-.6-4.9-1.8,1.1-2.6,4.9c-.8,3.8-.8,4.9.5,4.9Z"/>
      </g>
    </g>
  </g>
</svg>