<svg xmlns="http://www.w3.org/2000/svg" viewBox="-0.007 -0.001 145.008 25.053"><path fill="#1889FB" fill-rule="evenodd" d="M23.71 25a2.45 2.45 0 0 1-2.43-2.46V2.46a2.43 2.43 0 1 1 4.86 0v20.06A2.45 2.45 0 0 1 23.71 25m14.57-4.92a4.6 4.6 0 1 1 4.54-4.6 4.58 4.58 0 0 1-4.54 4.6m7-14.12A2.43 2.43 0 0 0 43 7.61a8.68 8.68 0 0 0-5-1.67 9.22 9.22 0 0 0-9.09 9.52A9.47 9.47 0 0 0 38.28 25 8.16 8.16 0 0 0 43 23.41a2.42 2.42 0 0 0 4.69-.89V8.4a2.45 2.45 0 0 0-2.43-2.46m15.15 0a8.63 8.63 0 0 0-5 1.67 2.43 2.43 0 0 0-4.74.79v14.12a2.43 2.43 0 1 0 4.86 0v-7.06a4.54 4.54 0 1 1 9.08 0v7.06a2.43 2.43 0 1 0 4.86 0v-7.06a9.22 9.22 0 0 0-9.07-9.52m65.91 12.41A2.24 2.24 0 0 1 124 20.6h-1v1.86a2.45 2.45 0 0 1-2.41 2.54 2.42 2.42 0 0 1-2.41-2.51V20.6h-9.37a2.42 2.42 0 0 1-2.41-2.43 2.82 2.82 0 0 1 .21-1.06l6.65-15.44a2.55 2.55 0 0 1 2.26-1.6A2.49 2.49 0 0 1 118 2.55a2.46 2.46 0 0 1-.18.87l-5.42 12.63h5.78v-4a2.39 2.39 0 0 1 2.41-2.48 2.44 2.44 0 0 1 2.41 2.48v4h1a2.26 2.26 0 0 1 2.3 2.3m18.7 3.86a2.29 2.29 0 0 1-2.37 2.33h-12.9a2.42 2.42 0 0 1-2.41-2.44 2.58 2.58 0 0 1 1-2l7.26-6.23c2.65-2.3 3.55-3.75 3.55-5.72a3.28 3.28 0 0 0-6.54-.51c0 .37-.11.73-.14 1.06a2.37 2.37 0 0 1-2.41 2.15 2.45 2.45 0 0 1-2.41-2.41 6.49 6.49 0 0 1 .08-1.82c.64-3.82 4-6.55 8.3-6.55 4.7 0 8.12 3.31 8.12 7.83 0 3.13-1.55 5.68-5.64 9.14l-3.38 2.87h7.51a2.28 2.28 0 0 1 2.37 2.3m-68.14-8.48H85a3.62 3.62 0 0 0-3.85-3.65 4.35 4.35 0 0 0-4.25 3.65m12.82.84v.1A2.44 2.44 0 0 1 87 17.19H76.85c.58 2.26 2.38 3.58 5 3.58a7 7 0 0 0 3.71-1.06 1.94 1.94 0 0 1 3 1.64 2.26 2.26 0 0 1-1.22 2A10 10 0 0 1 81.71 25C76.1 25 72 21 72 15.55a9.17 9.17 0 0 1 9.21-9.45 8.22 8.22 0 0 1 8.46 8.47m15.35 8a2.09 2.09 0 0 1-1.22 2 6.12 6.12 0 0 1-2.52.48c-4.65 0-7.13-2.37-7.13-6.79v-7.6h-1a2 2 0 0 1-2.09-2.08 2 2 0 0 1 2.08-2.08h1v-4A2.37 2.37 0 0 1 96.59 0 2.4 2.4 0 0 1 99 2.52v4h3.27a2 2 0 0 1 2.06 2.08 2 2 0 0 1-2.06 2.08H99v7.12c0 2 .93 2.8 3.2 2.8h.69a1.94 1.94 0 0 1 2.12 2M13.92 9a5.44 5.44 0 0 1 0 .57 4.57 4.57 0 0 1-4.53 4.6 4.48 4.48 0 0 1-3.29-1.52c-1.87.53-3.22.6-3.46.07s.68-1.52 2.28-2.63a1.5 1.5 0 0 1 0-.22v-.52a4.56 4.56 0 0 1 4.5-4.42 4.51 4.51 0 0 1 3.32 1.47c1.86-.54 3.21-.6 3.45-.08S15.52 7.85 13.92 9m-4.5-9A9.46 9.46 0 0 0 0 9.18a2 2 0 0 0 0 .34v13A2.47 2.47 0 0 0 2.45 25a2.47 2.47 0 0 0 2.45-2.48v-4.65a9.22 9.22 0 0 0 4.52 1.18 9.48 9.48 0 0 0 9.4-9.53A9.47 9.47 0 0 0 9.42 0"/></svg>