<svg xmlns="http://www.w3.org/2000/svg" fill="none" viewBox="0 0 170 30"><path fill="#AFB6B9" d="M126.91 20.93c1.457 0 2.67.656 2.67 2.247 0 .923-.467 1.646-1.257 1.947.879.178 1.101 1.068 1.168 1.847.044.5.067 1.589.378 1.88h-1.802c-.2-.398-.2-1.192-.245-1.625-.111-1.09-.445-1.48-1.58-1.48h-1.546v3.105h-1.725v-7.922h3.939zm-2.214 3.56h1.646c.813 0 1.536-.145 1.536-1.124 0-.912-.723-1.068-1.458-1.068h-1.724v2.192zm14.707.411c0 2.47-1.569 4.139-3.894 4.139-2.348 0-3.916-1.658-3.916-4.139 0-2.514 1.557-4.16 3.927-4.16 2.314 0 3.883 1.68 3.883 4.16zm-6.052-.033c0 1.702.823 2.726 2.169 2.737 1.313 0 2.125-1.046 2.125-2.737 0-1.669-.823-2.702-2.146-2.702-1.322 0-2.148 1.055-2.148 2.702zm11.982-3.938c1.39 0 2.525.589 2.525 1.99 0 .768-.434 1.347-1.079 1.636.823.234 1.446.835 1.446 1.936 0 1.546-1.192 2.359-2.681 2.359h-3.961v-7.922h3.75zm-2.058 3.204h1.579c.636 0 1.313-.123 1.313-.924 0-.8-.645-.934-1.313-.934h-1.579v1.858zm0 3.337h1.748c.745 0 1.468-.145 1.468-1.079 0-.954-.778-1.08-1.557-1.08h-1.658l-.001 2.16zm14.618-2.57c0 2.47-1.568 4.139-3.893 4.139-2.348 0-3.917-1.658-3.917-4.139 0-2.514 1.558-4.16 3.928-4.16 2.314 0 3.882 1.68 3.882 4.16zm-6.052-.033c0 1.702.823 2.726 2.17 2.737 1.312 0 2.125-1.046 2.125-2.737 0-1.669-.824-2.702-2.146-2.702s-2.149 1.055-2.149 2.702zm14.13-2.458h-2.385v6.442h-1.748V22.41h-2.384v-1.48h6.509l.008 1.48zM37.7 28.85h-1.75v-7.92h1.75v7.92zm2.536-7.92h1.769l3.258 5.306V20.93h1.669v7.922h-1.734l-3.282-5.318v5.318h-1.68V20.93zm10.202 0l1.78 5.562 1.803-5.563h1.802l-2.637 7.922h-1.97l-2.591-7.922h1.813zm12.995 1.423h-4.217v1.726h3.872v1.368h-3.872v1.947h4.291v1.458h-6.015v-7.923h5.94v1.424zm6.486.935c-.067-.768-.579-1.18-1.502-1.18-.801 0-1.28.334-1.28.902 0 .69.846.745 2.426 1.192 1.413.397 2.314.945 2.314 2.27 0 1.868-1.647 2.558-3.258 2.558-2.146 0-3.418-1.033-3.438-2.826h1.724c.034 1.068.735 1.491 1.791 1.491.913 0 1.47-.397 1.47-1.057 0-.623-.535-.734-2.17-1.201-1.29-.367-2.526-.69-2.526-2.305 0-1.435 1.202-2.37 3.049-2.37 1.668 0 3.014.757 3.048 2.526h-1.648zm9.891-.878h-2.385v6.442h-1.748V22.41h-2.384v-1.48H79.8l.008 1.48zm1.913-1.48h2.481l1.847 5.44 1.802-5.44h2.422v7.92H88.64v-5.629l-1.94 5.63h-1.352l-1.969-5.574v5.574h-1.658l.002-7.922zm17.033 1.423h-4.217v1.726h3.872v1.368H94.54v1.947h4.292v1.458h-6.013v-7.923h5.941l-.003 1.424zm2.27-1.423h1.769l3.258 5.306V20.93h1.669v7.922h-1.736l-3.282-5.318v5.318h-1.68l.002-7.922zm15.129 1.48h-2.384v6.442h-1.748V22.41h-2.384v-1.48h6.508l.008 1.48z"/><path fill="#4B5959" d="M44.394.42c2.45 0 5.605.993 5.605 4.633 0 1.7-.905 3.2-2.318 3.84 1.59.398 2.163 2.494 2.296 3.884l.154 1.655c.044.552.088 1.236.397 1.7H45.76c-.199-.442-.242-.994-.287-1.479l-.066-.883c-.133-1.81-.42-3.179-2.67-3.179h-2.028v5.54h-4.768V.42h8.453zm-3.685 6.862h2.648c1.103 0 1.964-.397 1.964-1.633 0-1.059-.75-1.589-2.226-1.589h-2.384l-.002 3.222zm27.164.993c0 4.92-3.18 8.231-7.9 8.231-4.81 0-8.033-3.288-8.033-8.252C51.94 3.266 55.14 0 60.016 0c4.7 0 7.857 3.332 7.857 8.275zm-11.034-.09c0 2.803 1.148 4.414 3.134 4.414 1.963 0 3.02-1.567 3.02-4.546 0-2.622-1.126-4.192-3.046-4.192-1.936 0-3.108 1.633-3.108 4.324zM78 .42c2.605 0 5.583.684 5.583 3.928 0 1.545-.772 2.449-1.963 3.155 1.765.618 2.736 1.828 2.736 3.862 0 3.685-2.957 4.768-6.025 4.768H70.08V.42H78zm-3.243 6.002h2.714c.905 0 1.456-.441 1.456-1.192 0-.816-.551-1.236-1.677-1.236h-2.493v2.428zm0 5.98h2.978c1.214 0 1.828-.486 1.828-1.457 0-.971-.64-1.5-1.828-1.5h-2.978v2.957zm27.207-4.127c0 4.92-3.178 8.231-7.9 8.231-4.81 0-8.032-3.288-8.032-8.252 0-4.988 3.2-8.254 8.077-8.254 4.7 0 7.855 3.332 7.855 8.275zm-11.033-.09c0 2.803 1.147 4.414 3.133 4.414 1.964 0 3.02-1.567 3.02-4.546 0-2.622-1.125-4.192-3.045-4.192-1.936 0-3.108 1.633-3.108 4.324zm20.698 8.321c-4.81 0-7.877-3.619-7.877-8.275 0-4.609 3.199-8.209 7.965-8.209 3.84 0 6.907 2.67 7.128 6.199h-4.678c-.265-1.412-1.17-2.207-2.538-2.207-2.273 0-3.02 2.273-3.02 4.212 0 2.604 1.148 4.211 3.02 4.211 1.412 0 2.295-.882 2.538-2.515h4.744c-.286 4.355-3.464 6.584-7.282 6.584zm24.207-.374h-4.873l-.773-2.225h-5.053l-.772 2.225h-4.877L125.289.42h4.768l5.779 15.712zm-7.55-8.297c-.331-1.082-.375-1.346-.596-2.384-.264 1.081-.352 1.43-.662 2.405 0 0-.331 1.082-.86 2.67h2.957c-.284-.905-.835-2.692-.835-2.692h-.004zm16.53-2.649c-.022-.949-.772-1.5-2.008-1.5-1.014 0-1.589.353-1.589.97 0 .972 2.692 1.347 3.354 1.523 2.623.685 5.404 1.7 5.404 4.966s-2.67 5.34-6.863 5.34c-4.391 0-7.083-2.141-7.127-5.65h4.832c.088 1.523 1.037 2.03 2.449 2.03 1.214 0 1.964-.507 1.964-1.3a.824.824 0 00-.309-.64c-.64-.53-3.354-1.193-4.435-1.568-2.247-.774-3.883-1.656-3.883-4.35 0-2.957 2.56-4.921 6.357-4.921 4.017 0 6.333 1.854 6.378 5.097l-4.524.003zM166 16.132h-4.81V9.933h-4.546v6.199h-4.832V.42h4.832v5.273h4.546V.42H166v15.712z"/><path fill="#FF8900" d="M9.634 19.27H0v9.635h9.634V19.27z"/><path fill="#FFA700" d="M9.634 19.27L0 28.904V19.27h9.634z"/><path fill="#FFB83A" d="M19.27 19.27H9.635v9.635h9.633V19.27z"/><path fill="#FFCA49" d="M19.27 19.27l-9.634 9.634V19.27h9.633z"/><path fill="#B8BA3C" d="M19.27 9.634H9.635v9.634h9.633V9.634z"/><path fill="#CACB4B" d="M19.27 9.634l-9.634 9.635V9.634h9.633z"/><path fill="#71BB3E" d="M28.903 9.634H19.27v9.634h9.634V9.634z"/><path fill="#8DCC4E" d="M28.903 9.634l-9.634 9.635V9.634h9.634z"/><path fill="#4C9D33" d="M28.903 0H19.27v9.634h9.634V0z"/><path fill="#5FB640" d="M28.903 0L19.27 9.634V0h9.634z"/></svg>