<svg xmlns="http://www.w3.org/2000/svg" id="Layer_1" data-name="Layer 1" viewBox="0 0 302.51 71.704"><defs><style>.cls-1{fill:#7c2166}.cls-9{fill:#fff}.cls-10,.cls-6,.cls-7,.cls-8,.cls-9{fill-rule:evenodd}.cls-6{fill:#cccfce}.cls-7{fill:#4c5958}.cls-8{fill:#105098}.cls-10{fill:#010101}.cls-11{fill:#f5a21d}</style></defs><circle cx="62.88" cy="24.2" r="24.2" class="cls-1"/><path d="M92.61 7.98v33.06h16.76q1.71 0 3.39-.12a17.36 17.36 0 0 0 3.29-.55 11.36 11.36 0 0 0 3.14-1.4 8.25 8.25 0 0 0 3.3-4.07 9.1 9.1 0 0 0 .52-2 9.92 9.92 0 0 0 .12-1.51 11.3 11.3 0 0 0-.08-1.29 10.07 10.07 0 0 0-.4-1.8 8.37 8.37 0 0 0-.94-2 7 7 0 0 0-1.72-1.79 8.67 8.67 0 0 0-1.21-.7c-.41-.19-.85-.38-1.32-.56l.84-.39c.22-.11.41-.21.57-.31a3.57 3.57 0 0 0 .46-.33 6 6 0 0 0 1.37-1.5 7.19 7.19 0 0 0 .77-1.63 8.46 8.46 0 0 0 .35-1.49 7.51 7.51 0 0 0 .08-1 8 8 0 0 0-.2-1.74 9.46 9.46 0 0 0-.41-1.37 9.1 9.1 0 0 0-.38-.87 7.06 7.06 0 0 0-1.33-1.76 7.66 7.66 0 0 0-2-1.39 12.59 12.59 0 0 0-3-1 24.79 24.79 0 0 0-4.07-.48h-17.9ZM103 15.47h4.54a11.3 11.3 0 0 1 1.52.08 4.14 4.14 0 0 1 1.45.45 2.48 2.48 0 0 1 1.05 1.12c.05.12.11.27.18.48a3 3 0 0 1 .1.79 2.91 2.91 0 0 1-.08.66 3.94 3.94 0 0 1-.11.41 2.34 2.34 0 0 1-.8 1 3.47 3.47 0 0 1-1.19.54 6.49 6.49 0 0 1-1.34.21H103V15.4Zm0 11.71h4.54a19.06 19.06 0 0 1 2.48.2 4.61 4.61 0 0 1 1.68.56 2.34 2.34 0 0 1 .94 1.16 5.19 5.19 0 0 1 .17.61 3.37 3.37 0 0 1-.23 2 2.45 2.45 0 0 1-.7.87 3.54 3.54 0 0 1-.84.45 5.3 5.3 0 0 1-.69.21 8.61 8.61 0 0 1-1.4.16H103v-6.27Zm41.49-20.09c-.56 0-1.25 0-2.06.12a19.3 19.3 0 0 0-2.67.47 17.49 17.49 0 0 0-3 1 15.4 15.4 0 0 0-3 1.78 14.49 14.49 0 0 0-2.74 2.75 16.52 16.52 0 0 0-2.18 3.93 19.79 19.79 0 0 0-.88 3.1 22.59 22.59 0 0 0-.36 2.61c-.05.76-.08 1.36-.07 1.79a21.57 21.57 0 0 0 .52 4.79 17.7 17.7 0 0 0 1.61 4.36 14.74 14.74 0 0 0 2.73 3.66 14.21 14.21 0 0 0 3.89 2.68 17.25 17.25 0 0 0 3.37 1.18 19.15 19.15 0 0 0 2.9.47c.87.06 1.55.09 2.06.09s1.23 0 2.09-.09a20.12 20.12 0 0 0 2.86-.45 17.81 17.81 0 0 0 3.26-1.09 15.1 15.1 0 0 0 3.29-2 14.47 14.47 0 0 0 2.92-3.19 15 15 0 0 0 .94-1.57 17.53 17.53 0 0 0 1.74-5.18 20.74 20.74 0 0 0 .31-3.64 22.09 22.09 0 0 0-.56-5 18 18 0 0 0-1.72-4.5 14.79 14.79 0 0 0-6.95-6.44 16.9 16.9 0 0 0-3.41-1.12 21.07 21.07 0 0 0-2.92-.41c-.86 0-1.52-.06-2-.05Zm.23 8.24a6.77 6.77 0 0 1 2.37.37 5.47 5.47 0 0 1 1.69 1 6.1 6.1 0 0 1 1.12 1.29 7.2 7.2 0 0 1 .66 1.32 8.16 8.16 0 0 1 .33 1.07 11.18 11.18 0 0 1 .3 1.58c.06.52.09 1 .11 1.39s0 .68 0 .83a19.76 19.76 0 0 1-.26 3.46 9.88 9.88 0 0 1-.7 2.37 7.07 7.07 0 0 1-1 1.65 5 5 0 0 1-2 1.53 6.56 6.56 0 0 1-2.51.44 9.23 9.23 0 0 1-1.05 0 5.83 5.83 0 0 1-1.42-.36 5.16 5.16 0 0 1-1.55-1 6.33 6.33 0 0 1-1.31-1.59 8.24 8.24 0 0 1-.86-2.42 18.06 18.06 0 0 1-.31-3.62v-1.13a15.45 15.45 0 0 1 .16-1.82 10.79 10.79 0 0 1 .54-2.13 7.55 7.55 0 0 1 1.13-2.08 5.82 5.82 0 0 1 .87-.91 5.09 5.09 0 0 1 1.45-.81 6.58 6.58 0 0 1 2.22-.38Zm54.69 5.34c-.11-.79-.24-1.55-.4-2.26a14.78 14.78 0 0 0-.68-2.23 13.75 13.75 0 0 0-2.46-4.09 13.37 13.37 0 0 0-3.46-2.83 15.88 15.88 0 0 0-4.21-1.64 20 20 0 0 0-4.67-.53 20.82 20.82 0 0 0-4.14.39 15.82 15.82 0 0 0-3.07.94 14.6 14.6 0 0 0-2.15 1.11 14.92 14.92 0 0 0-3.42 2.86 15.67 15.67 0 0 0-2.36 3.59 18.13 18.13 0 0 0-1.37 4.11 21.56 21.56 0 0 0-.44 4.39 23.86 23.86 0 0 0 .48 4.89 18 18 0 0 0 1.59 4.57 14.24 14.24 0 0 0 2.89 3.89 12.79 12.79 0 0 0 1.84 1.44 13.89 13.89 0 0 0 2.55 1.3 17.62 17.62 0 0 0 3.4.94 25.76 25.76 0 0 0 4.43.36 25 25 0 0 0 3-.16 17.45 17.45 0 0 0 2.17-.37 15.61 15.61 0 0 0 1.62-.5 13.32 13.32 0 0 0 3.18-1.71 12.89 12.89 0 0 0 2.27-2.15 14.76 14.76 0 0 0 1.59-2.28 16 16 0 0 0 1-2.1 14.44 14.44 0 0 0 .53-1.59l.16-.69c0-.2.09-.44.14-.72s.1-.65.16-1.12H189c0 .19-.08.49-.16.88a7.61 7.61 0 0 1-.4 1.31 5.48 5.48 0 0 1-.85 1.41 4.82 4.82 0 0 1-1.5 1.17 6 6 0 0 1-1.19.42 5.37 5.37 0 0 1-5.17-1.53 7.11 7.11 0 0 1-1.22-1.76 9.17 9.17 0 0 1-.71-2.09 12.9 12.9 0 0 1-.23-1.5c0-.49-.07-.92-.08-1.3s0-.65 0-.81a18.85 18.85 0 0 1 .15-2.58 11.24 11.24 0 0 1 .58-2.47 7.52 7.52 0 0 1 1.24-2.17 5.74 5.74 0 0 1 1.56-1.31 5.16 5.16 0 0 1 1.5-.58 5.36 5.36 0 0 1 1.16-.12 5.69 5.69 0 0 1 .93.07 6 6 0 0 1 1.26.36 4.6 4.6 0 0 1 1.33.81 4.7 4.7 0 0 1 1.12 1.47 4.63 4.63 0 0 1 .4 1 8.42 8.42 0 0 1 .22 1c0 .28.07.47.09.55Zm12.04-12.69-11.8 33.06h10.44l1.22-4.26h11.1l1.26 4.26h10.68L222.59 7.98Zm5.43 10 3.51 12h-7.07l3.56-12Zm47.85-.52c-.16-.84-.3-1.51-.45-2.05a11.78 11.78 0 0 0-.47-1.4c-.17-.39-.36-.79-.58-1.18a11.1 11.1 0 0 0-1.33-1.85 10.73 10.73 0 0 0-1.7-1.48 12.56 12.56 0 0 0-3-1.53 15.86 15.86 0 0 0-3.2-.73 27.74 27.74 0 0 0-3.35-.18c-1 0-2.08 0-3.13.12a19.36 19.36 0 0 0-3.12.54 12.84 12.84 0 0 0-3 1.22 9.18 9.18 0 0 0-2.55 2.13 9.42 9.42 0 0 0-1.46 2.44 11.11 11.11 0 0 0-.81 4 10.41 10.41 0 0 0 .22 2.15 7.9 7.9 0 0 0 .39 1.31 9 9 0 0 0 1.31 2.44 8.38 8.38 0 0 0 1.87 1.76 13.8 13.8 0 0 0 2.43 1.32c.66.27 1.4.52 2.19.77s1.6.48 2.4.7l2.25.59c1.08.27 2 .52 2.68.73a5.94 5.94 0 0 1 1.67.73 2 2 0 0 1 .73.87 2 2 0 0 1 .16.76 2 2 0 0 1-.18.81 1.55 1.55 0 0 1-.29.45 2.28 2.28 0 0 1-.85.72 3.85 3.85 0 0 1-1 .34 6.23 6.23 0 0 1-.92.1h-.53a8.53 8.53 0 0 1-2.21-.25 4.35 4.35 0 0 1-1.48-.67 3.28 3.28 0 0 1-.9-1 2.69 2.69 0 0 1-.19-.51c-.05-.2-.12-.45-.19-.76h-10.39c.07.55.13 1 .19 1.35a7.75 7.75 0 0 0 .19.9 11 11 0 0 0 1 2.42 10.55 10.55 0 0 0 1.94 2.47 11.67 11.67 0 0 0 3.14 2.12 16.89 16.89 0 0 0 4.64 1.37 17.72 17.72 0 0 0 1.8.23c.57 0 1.07.08 1.5.09h1a26.56 26.56 0 0 0 3.27-.17 16.08 16.08 0 0 0 3.15-.67 12.71 12.71 0 0 0 3-1.45 10.18 10.18 0 0 0 3.95-4.71 11.17 11.17 0 0 0 .67-2.29 10.69 10.69 0 0 0 .16-1.76 9.52 9.52 0 0 0-.7-3.7 9.23 9.23 0 0 0-1-1.8 8.53 8.53 0 0 0-1-1.25 7.44 7.44 0 0 0-.87-.74 12 12 0 0 0-2-1.19 21.38 21.38 0 0 0-2.19-.87c-.75-.26-1.5-.49-2.25-.71s-1.5-.41-2.25-.6l-2.51-.62a19.25 19.25 0 0 1-2-.57 3.79 3.79 0 0 1-1.26-.68 1.57 1.57 0 0 1-.38-.54 1.84 1.84 0 0 1-.13-.68 1.87 1.87 0 0 1 .1-.6 2.41 2.41 0 0 1 .84-1.1 2.65 2.65 0 0 1 1-.34 9.07 9.07 0 0 1 1.53-.11 8.06 8.06 0 0 1 2 .2 3.19 3.19 0 0 1 1.2.57 2.69 2.69 0 0 1 .68.84 7 7 0 0 1 .4 1.05h10.3ZM271.14 8v33.06h10.77V27.98h9.74v13.06h10.86V7.98h-10.85v11.19H282V7.98ZM33.88 41.12a2.2 2.2 0 0 1-.34 0 .67.67 0 0 1-.31-.13.78.78 0 0 1-.24-.41 2.19 2.19 0 0 1-.09-.52v-.48q-.06-1.07-.08-2.31c0-.84 0-1.68-.05-2.56a25 25 0 0 0-.2-2.55 10.88 10.88 0 0 0-.53-2.29 6 6 0 0 0-1.3-2.18 5.59 5.59 0 0 0-1.56-1.16 8.86 8.86 0 0 0-1.37-.54c-.25-.08-.5-.14-.75-.19l-.75-.16a9.82 9.82 0 0 0 1.39-.42 7.39 7.39 0 0 0 1.27-.69 8 8 0 0 0 2.15-2.06 9.3 9.3 0 0 0 1.32-2.7 10.46 10.46 0 0 0 .44-3 10.72 10.72 0 0 0-.28-2.44 10.92 10.92 0 0 0-.63-1.84 9.53 9.53 0 0 0-.65-1.2 8.13 8.13 0 0 0-2-2.14 10 10 0 0 0-2.35-1.32 14.15 14.15 0 0 0-2.35-.7 18.17 18.17 0 0 0-2-.28c-.56 0-1-.07-1.21-.07H0v35.4h11.21V29.86H17a5.16 5.16 0 0 1 .56 0 5.74 5.74 0 0 1 1 .14 4.5 4.5 0 0 1 1.16.41 2.93 2.93 0 0 1 1 .84 4 4 0 0 1 .66 1.44 9.81 9.81 0 0 1 .28 2c0 .75.07 1.63.06 2.61v1.71c0 .45 0 .85.08 1.18s.08.65.14 1 .12.65.19 1h11.71v-1.06Zm-22.62-26h6.38a10.87 10.87 0 0 1 1.57.13 4.06 4.06 0 0 1 1.42.5 2.69 2.69 0 0 1 1 1.17 3.48 3.48 0 0 1 .27.9 4.71 4.71 0 0 1-.13 1.78 6.87 6.87 0 0 1-.24.69 3 3 0 0 1-1.41 1.22 5.49 5.49 0 0 1-1.86.44h-7.03v-6.89Z" class="cls-1"/><path fill="#fff" d="M44.9 23.47a5.45 5.45 0 0 1 1.37-1.85l.62-11.32c.22-3.92 2.75-5.09 4.68-1.41l1.87 4.21.29-.18.32-.2.4-.24c.4-.22.81-.45 1.23-.65a17.55 17.55 0 0 1 3.08-1.11 16.51 16.51 0 0 1 5.19-.44 18 18 0 0 1 5.21 1.15 16.86 16.86 0 0 1 3.16 1.67l2.33-4.55c1.65-3.22 4.07-1.94 4.21.83l.58 11.56v.69l.18.16a5.64 5.64 0 0 1 1.5 2.54 9.62 9.62 0 0 1 .38 3.08 10.36 10.36 0 0 1-.26 2 7.15 7.15 0 0 1-.67 1.77 5.31 5.31 0 0 1-1.51 1.72 4.44 4.44 0 0 1-1 .54 11.23 11.23 0 0 1-.64 1.21c-.31.49-.08.12-.16.26s-.31.52-.44.7l-.32.46-.35.47-.48.6-.05.07-.09.09-.44.48a10.48 10.48 0 0 1-1.33 1.29c-.44.36-.86.69-1.33 1a13.94 13.94 0 0 1-1.57 1 16.76 16.76 0 0 1-3.78 1.44 18.53 18.53 0 0 1-4.08.47 16.79 16.79 0 0 1-5.57-.88 15.83 15.83 0 0 1-4.94-2.63c-.28-.22-.55-.45-.85-.72s-.58-.54-.84-.81l-.58-.62a8.57 8.57 0 0 1-.63-.79l-.08-.09-.21-.26-.21-.3-.1-.15c-.11-.15-.22-.33-.34-.52l-.3-.49-.06-.12-.59-1.14-.43-.17a5.24 5.24 0 0 1-2.66-3.24 9.84 9.84 0 0 1-.43-3.85 8.29 8.29 0 0 1 .68-2.74Z"/><path fill="#dfdfde" fill-rule="evenodd" d="M58.79 34.92a3.38 3.38 0 0 1 .86.32 10.08 10.08 0 0 0 6.93-.17c.16-.07.27-.18.43-.15.05.22-.15.26-.28.36-1.57 1.17-4.39 1.29-6.24.69a5.24 5.24 0 0 1-1.62-.83c-.1-.07-.13-.07-.09-.22ZM48.66 22.69a14 14 0 0 0 .25 8.52c.06.16.14.33.18.5h-.17a.46.46 0 0 0 .2.06c.1.18.14.33.22.52l.73 1.42c.2.32.36.6.57.89l.29.42c.1.14.22.27.31.4a12.05 12.05 0 0 0 1 1.17 15.48 15.48 0 0 0 1.5 1.36A14.89 14.89 0 0 0 63 40.98a15.27 15.27 0 0 0 7-1.72 14.05 14.05 0 0 0 2.57-1.76 15.93 15.93 0 0 0 1.61-1.62l.48-.6c.21-.28.41-.56.61-.85s.36-.57.55-.88a13.11 13.11 0 0 0 .72-1.43 2 2 0 0 0 .1-.26c.07-.22.14-.13.16-.18h-.09a14 14 0 0 0 .65-7.92c-.06-.31-.23-.81-.25-1.08-.1-.07-.12-.28-.14-.4h.54c0-.31-.06-.85-.08-1.19l-.64-8.45-.91 1.4c-.59.9-1.16 1.85-1.77 2.77 0 .07-.05.09-.09.15l-.09.12c-.13-.06-.3-.32-.48-.45.19-.29.32-.54.5-.81l1-1.6c.18-.26.33-.54.51-.8s.32-.52.51-.8c.09-.13.17-.27.25-.4l.26-.39c.18-.3.21-.25.21-.47V9.42c-.12.14-1.23 2.15-1.43 2.5-.47.82-.92 1.67-1.41 2.5l-.93 1.67a1.24 1.24 0 0 1-.37-.28l-1.06-.82L70 13.98a34.71 34.71 0 0 0-.95 4.3 6 6 0 0 0 0 .63c0 .26 0 .34.24.41a2.53 2.53 0 0 0 1.13-.11c.34-.09.67-.2 1-.31s.69-.3 1-.38c-.09.32-.5 1.19-.66 1.53s-.22.49-.35.73a6 6 0 0 0-.36.72c.42.16.87.28 1.3.44s.86.32 1.25.51a17.85 17.85 0 0 1 1.74.89.78.78 0 0 1 .4.5c.6 1.4.29 4.78-.27 6.14a3.25 3.25 0 0 1-.29.58c-.12.18-.27.14-.68.18-1.6.15-3.27.3-4.87.41-2.21.15-4.57.34-6.77.29-3.36-.08-6.63-.31-10-.58l-1.62-.14c-.38 0-.39 0-.55-.31-.77-1.54-1.15-5.35-.38-6.74a2.29 2.29 0 0 1 1-.73 20.53 20.53 0 0 1 3.82-1.48l-.69-1.08c-.13-.18-1.08-1.72-1.11-1.85.95.32 2.41 1 3.42.85.52-.07.55-.43.49-.94a16.35 16.35 0 0 0-.49-2.37c-.08-.31-.63-2.1-.63-2.22h.05-.11l-.77.43c-.29.17-.56.35-.84.54s-.54.38-.79.58l-.75.62-.47-.84-.48-.84c-.61-1.11-1.29-2.25-1.9-3.36l-.94-1.65v1.31c0 .79-.09.63.19 1.09l1 1.6c.17.28.33.53.52.8l.25.4c.06.09.06.12.12.2.18.26 1.1 1.68 1.15 1.82a2 2 0 0 1-.46.46l-1.1-1.69c-.45-.73-1-1.5-1.44-2.23l-.28-.41c0-.07 0-.07-.1-.1-.07 1.61-.23 3.25-.35 4.87l-.34 4.79h.58a1 1 0 0 1-.12.41Z"/><path fill="#3c7696" fill-rule="evenodd" d="M71 26.1a4.61 4.61 0 0 1-.74 3.16c-.19.26-.12.19-.49.29a8.87 8.87 0 0 1-4.17.12c-.5-.12-.61-.09-.9-.66a7.64 7.64 0 0 1-.4-4c.56-1.76 2.09-2.4 3.94-2.15a3.61 3.61 0 0 1 1.19.36 2.47 2.47 0 0 1 .85.68c.6-.09 1.21.79 1 1.61a1.2 1.2 0 0 1-.2.48l-.11.12Zm-10.1-2.21Zm1.38 7.19c2 0 3.33-.05 5.35-.17 2.44-.15 4.47-.34 6.84-.58.26 0 .28-.11.46-.61.45-1.22.83-4.13.28-5.54-.21-.54-.56-.66-1.14-1a22.52 22.52 0 0 0-10.93-2.4H62a23.88 23.88 0 0 0-7.31 1.16 17.15 17.15 0 0 0-3.61 1.65c-.69.41-.73 1.71-.73 2.47a11.27 11.27 0 0 0 .7 4c.09.19.06.23.29.25l2.9.29c1.31.12 2.62.21 3.94.29s2.73.17 4.06.17Z"/><path fill="#ef9e20" fill-rule="evenodd" d="M56.15 13.78h-.05c0 .12.54 1.91.63 2.22a16.35 16.35 0 0 1 .49 2.37c.06.51 0 .87-.49.94-1 .14-2.47-.54-3.42-.85 0 .12 1 1.67 1.11 1.85l.69 1.08a25.34 25.34 0 0 1 3.7-.77 29.2 29.2 0 0 1 12.16.82 6 6 0 0 1 .36-.72c.13-.24.24-.48.35-.73s.57-1.22.66-1.53c-.29.08-.66.27-1 .38s-.66.23-1 .31a2.53 2.53 0 0 1-1.13.11c-.21-.06-.24-.15-.24-.41a6 6 0 0 1 0-.63A34.71 34.71 0 0 1 70 13.98c-.53-.23-.82-.41-1.48-.67a15.51 15.51 0 0 0-9.21-.63 15 15 0 0 0-1.61.51l-.76.31c-.24.1-.5.26-.72.32Z"/><path d="M69.41 26.65c-.1 1.26-.74 2-2 1.88s-1.64-1-1.59-2.3a1.68 1.68 0 0 1 2-1.84c1.16.1 1.67 1 1.58 2.26Zm1.58-.56c-.66.64-1.37.15-1.61-.53s.17-1.75.88-1.68a3.63 3.63 0 0 1 .72 2.21l.11-.12a1.2 1.2 0 0 0 .2-.48c.18-.82-.43-1.7-1-1.61a2.47 2.47 0 0 0-.85-.68 3.61 3.61 0 0 0-1.19-.36c-1.85-.25-3.37.39-3.94 2.15a7.64 7.64 0 0 0 .4 4c.29.57.4.54.9.66a8.87 8.87 0 0 0 4.17-.12c.37-.1.3 0 .49-.29a4.61 4.61 0 0 0 .74-3.16Z" class="cls-6"/><path d="M62.26 31.07c-1.33 0-2.74-.1-4.06-.17s-2.62-.17-3.94-.29l-2.9-.29c-.22 0-.2-.06-.29-.25a11.27 11.27 0 0 1-.7-4c0-.76 0-2.06.73-2.47a17.15 17.15 0 0 1 3.61-1.65 23.88 23.88 0 0 1 7.31-1.16h1.11a22.52 22.52 0 0 1 10.93 2.4c.58.32.93.44 1.14 1 .54 1.41.16 4.32-.28 5.54-.19.51-.2.59-.46.61-2.37.23-4.4.43-6.84.58-2 .12-3.36.17-5.35.17Zm-7.16-9.65a20.53 20.53 0 0 0-3.82 1.48 2.29 2.29 0 0 0-1 .73c-.76 1.39-.39 5.2.38 6.74.15.31.17.27.55.31l1.62.14c3.34.27 6.61.5 10 .58 2.2.06 4.56-.14 6.77-.29 1.6-.11 3.27-.25 4.87-.41.41 0 .56 0 .68-.18a3.25 3.25 0 0 0 .29-.58c.56-1.36.87-4.74.27-6.14a.78.78 0 0 0-.4-.5 17.85 17.85 0 0 0-1.74-.89c-.39-.18-.83-.35-1.25-.51s-.87-.28-1.3-.44a29.2 29.2 0 0 0-12.16-.82 25.34 25.34 0 0 0-3.7.77Z" class="cls-7"/><path d="M58 24.4a2.07 2.07 0 0 1 1.51.38 2.11 2.11 0 0 1 .54 1.4c.07 1.25-.33 2.22-1.49 2.34a1.73 1.73 0 0 1-2.07-1.78c-.13-1.27.37-2.21 1.51-2.34Zm2.92-.51a2.84 2.84 0 0 1 .54.91 2.68 2.68 0 0 1 .13 1.33c-.6.62-1.38.09-1.6-.58s.18-1.73.92-1.66Zm0 0Z" class="cls-6"/><path d="M48.93 31.69h.17c0-.16-.12-.34-.18-.5a14 14 0 0 1-.25-8.52 2.41 2.41 0 0 0-2 1.6c-1.08 2.31-.62 7.16 2.23 7.4ZM76.81 31.69a2.74 2.74 0 0 0 2.08-1.49 6.69 6.69 0 0 0 .68-2.86c.06-1.36-.27-3.19-1.25-4.09a2 2 0 0 0-1.2-.58c0 .28.19.77.25 1.08a14 14 0 0 1-.65 7.92s-.07 0 .09 0Z" class="cls-7"/><path d="m58.92 26.83.09.06c-.32.84-1.24.89-1.56 0a1.28 1.28 0 0 1 .14-1.14c.29-.4.77-.47.93-.29.09-.08.11-.16.24-.21.76-.32 1.1 1.64.16 1.56Zm-1-2.43c-1.14.13-1.64 1.06-1.51 2.34a1.73 1.73 0 0 0 2.07 1.78c1.15-.12 1.56-1.09 1.49-2.34a2.11 2.11 0 0 0-.54-1.4 2.07 2.07 0 0 0-1.51-.38ZM68.33 26.83h.1a.93.93 0 0 1-.76.67c-1 .05-1.2-1.71-.28-2.09a.57.57 0 0 1 .54 0c.11-.09.07-.13.22-.2a.44.44 0 0 1 .35 0c.54.24.59 1.62-.17 1.55Zm1.08-.18c.1-1.24-.42-2.16-1.58-2.26a1.68 1.68 0 0 0-2 1.84c-.05 1.26.39 2.21 1.59 2.3s1.89-.62 2-1.88Z" class="cls-8"/><path d="M66.59 35.07a10.08 10.08 0 0 1-6.93.17 3.38 3.38 0 0 0-.86-.32c0 .15 0 .15.09.22a5.24 5.24 0 0 0 1.62.83c1.85.59 4.67.47 6.24-.69.13-.1.33-.14.28-.36-.16 0-.27.08-.43.15Z" class="cls-7"/><path d="M60.89 23.89c-.74-.07-1.16.89-.92 1.66s1 1.21 1.6.58a2.68 2.68 0 0 0-.13-1.33 2.84 2.84 0 0 0-.54-.91ZM71 26.1a3.63 3.63 0 0 0-.72-2.21c-.71-.07-1.15.93-.88 1.68s.95 1.17 1.61.53Z" class="cls-9"/><path d="M68.33 26.83a.69.69 0 0 1-.46-.53 1.27 1.27 0 0 1 .06-.82.57.57 0 0 0-.54 0c-.93.38-.72 2.14.28 2.09a.93.93 0 0 0 .76-.67h-.1ZM58.92 26.83a.65.65 0 0 1-.46-.53 1.2 1.2 0 0 1 .06-.81c-.16-.18-.64-.11-.93.29a1.28 1.28 0 0 0-.14 1.14c.31.86 1.24.81 1.56 0l-.09-.06Z" class="cls-10"/><path d="M58.52 25.49a1.2 1.2 0 0 0-.06.81.65.65 0 0 0 .46.53c.95.09.6-1.87-.16-1.56-.13.05-.15.13-.24.21ZM67.93 25.48a1.27 1.27 0 0 0-.06.82.69.69 0 0 0 .46.53c.76.07.71-1.3.17-1.55a.44.44 0 0 0-.35 0c-.15.07-.11.11-.22.2Z" class="cls-9"/><path d="M60 26.65c-.1 1.26-.74 2-2 1.88s-1.64-1-1.59-2.3a1.68 1.68 0 0 1 2-1.84c1.16.1 1.67 1 1.58 2.26Zm1.57-.56c-.66.64-1.37.15-1.61-.53s.17-1.75.88-1.68a3.63 3.63 0 0 1 .72 2.21l.11-.12a1.2 1.2 0 0 0 .2-.48c.18-.82-.43-1.7-1-1.61a2.47 2.47 0 0 0-.85-.68 3.61 3.61 0 0 0-1.19-.36c-1.85-.25-3.37.39-3.94 2.15a7.64 7.64 0 0 0 .4 4c.29.57.4.54.9.66a8.87 8.87 0 0 0 4.17-.12c.37-.1.3 0 .49-.29a4.61 4.61 0 0 0 .74-3.16Z" class="cls-6"/><path d="M218.44 71.24h-3.83l-.19-2a6.81 6.81 0 0 1-5.68 2.45c-5.54 0-9.35-4.16-9.35-10.26s4.14-10.28 10-10.28a8.48 8.48 0 0 1 8.74 7.33h-5.79a2.88 2.88 0 0 0-3.06-2.29c-3.2 0-3.83 3-3.83 5.54 0 3.42 1.43 5.21 4.14 5.21a3.15 3.15 0 0 0 3.36-2.29h-2.59v-4.22h8.08ZM232 51.61c3.06 0 7 1.24 7 5.79a5.18 5.18 0 0 1-2.9 4.8c2 .5 2.7 3.12 2.87 4.85l.19 2.07a4.63 4.63 0 0 0 .5 2.12h-6a5.92 5.92 0 0 1-.36-1.85l-.08-1.1c-.17-2.26-.52-4-3.34-4h-2.54v6.92h-6v-19.6Zm-4.6 8.57h3.31c1.38 0 2.45-.5 2.45-2 0-1.32-.94-2-2.78-2h-3ZM261.17 61.42c0 6.15-4 10.28-9.87 10.28s-10-4.11-10-10.31 4-10.31 10.09-10.31c5.84.01 9.78 4.17 9.78 10.34Zm-13.79-.11c0 3.5 1.43 5.51 3.92 5.51s3.78-2 3.78-5.68c0-3.28-1.4-5.24-3.8-5.24s-3.89 2.08-3.89 5.41ZM281.57 63.22c0 6.2-3.28 8.38-8.93 8.38-6.12 0-8.91-2.84-8.91-8V51.61h6v12c0 2 .88 3 3 3 1.9 0 2.81-1 2.81-3v-12h6ZM293.26 51.61c4.3 0 8.57 1.24 8.57 7 0 4.52-3.17 6.59-7.39 6.59h-3.74v6.07h-6V51.61Zm-2.56 9h2.9c1.46 0 2.48-.47 2.48-2.07 0-1.41-.83-2.1-2.59-2.1h-2.79Z" class="cls-11"/></svg>