<svg xmlns="http://www.w3.org/2000/svg" fill="none" viewBox="0 0 220.974 44"><g clip-path="url(#a)"><path fill="#DF6E44" d="M22 44a3.151 3.151 0 1 0 0-6.302A3.151 3.151 0 0 0 22 44Z"/><path fill="#F0BB4C" d="M22 6.302A3.151 3.151 0 1 0 22 0a3.151 3.151 0 0 0 0 6.302ZM3.151 25.151a3.151 3.151 0 1 0 0-6.302 3.151 3.151 0 0 0 0 6.302Z"/><path fill="#DF6E44" d="M40.848 25.151a3.151 3.151 0 1 0 0-6.302 3.151 3.151 0 0 0 0 6.302Z"/><path fill="#F0BB4C" d="M12.816 8.813a3.15 3.15 0 1 0-.426-6.287 3.15 3.15 0 0 0 .426 6.287Z"/><path fill="#DF6E44" d="M29.849 35.578c-1.49.86-2.005 2.807-1.146 4.297.86 1.49 2.807 2.005 4.297 1.146 1.49-.86 2.005-2.807 1.146-4.297-.86-1.49-2.808-2.005-4.297-1.146Z"/><path fill="#F0BB4C" d="M31.562 8.82a3.151 3.151 0 1 0-.333-6.294 3.151 3.151 0 0 0 .333 6.293Z"/><path fill="#DF6E44" d="M14.632 40.722a3.151 3.151 0 1 0-4.043-4.835 3.151 3.151 0 0 0 4.043 4.835Z"/><path fill="#F0BB4C" d="M8.027 14.74a3.15 3.15 0 1 0-4.685-4.215 3.15 3.15 0 0 0 4.685 4.215Z"/><path fill="#DF6E44" d="M41.45 31.774a3.151 3.151 0 1 0-6.249-.82 3.151 3.151 0 0 0 6.249.82Z"/><path fill="#E8A03C" d="M41.52 12.653a3.151 3.151 0 1 0-6.303-.016 3.151 3.151 0 0 0 6.302.016ZM7.614 33.796a3.151 3.151 0 1 0-3.91-4.942 3.151 3.151 0 0 0 3.91 4.942Z"/><path fill="#DF6E44" d="M22 35.52a1.948 1.948 0 1 0 0-3.895 1.948 1.948 0 0 0 0 3.896Z"/><path fill="#F0BB4C" d="M22 12.375a1.948 1.948 0 1 0 0-3.896 1.948 1.948 0 0 0 0 3.896Z"/><path fill="#E8A03C" d="M10.426 23.948a1.948 1.948 0 1 0 0-3.896 1.948 1.948 0 0 0 0 3.896ZM33.573 23.948a1.948 1.948 0 1 0 0-3.896 1.948 1.948 0 0 0 0 3.896Z"/><path fill="#F0BB4C" d="M14.494 12.948c.516.916 1.719 1.26 2.636.687.916-.515 1.26-1.719.687-2.635-.515-.917-1.719-1.26-2.635-.688-.86.516-1.203 1.662-.688 2.636Z"/><path fill="#DF6E44" d="M28.682 33.758a1.948 1.948 0 1 0-1.795-3.458 1.948 1.948 0 0 0 1.795 3.458Z"/><path fill="#F0BB4C" d="M29.55 12.83a1.948 1.948 0 1 0-3.49-1.73 1.948 1.948 0 0 0 3.49 1.73Z"/><path fill="#E8A03C" d="M17.187 30.364c-.917-.515-2.12-.229-2.636.688-.515.917-.229 2.12.688 2.635.917.516 2.12.23 2.635-.687.516-.917.23-2.12-.687-2.636Z"/><path fill="#F0BB4C" d="M12.89 14.552c-.917-.516-2.12-.23-2.636.745-.515.916-.229 2.12.745 2.635.917.516 2.12.23 2.636-.745.515-.916.172-2.12-.745-2.635Z"/><path fill="#DF6E44" d="M32.026 29.677a1.948 1.948 0 1 0 0-3.896 1.948 1.948 0 0 0 0 3.896Z"/><path fill="#E8A03C" d="M33.32 17.686a1.948 1.948 0 1 0-2.6-2.901 1.948 1.948 0 0 0 2.6 2.901ZM13.786 28.273a1.948 1.948 0 1 0-3.76-1.022 1.948 1.948 0 0 0 3.76 1.022Z"/><path fill="#DF6E44" d="M22 29.734a1.089 1.089 0 1 0 0-2.177 1.089 1.089 0 0 0 0 2.177Z"/><path fill="#F0BB4C" d="M22 16.443a1.089 1.089 0 1 0 0-2.177 1.089 1.089 0 0 0 0 2.177Z"/><path fill="#E8A03C" d="M16.5 22a1.088 1.088 0 1 0-2.178 0c0 .63.516 1.089 1.089 1.089s1.088-.459 1.088-1.089ZM29.734 22a1.088 1.088 0 1 0-2.177 0 1.088 1.088 0 1 0 2.177 0Z"/><path fill="#F0BB4C" d="M17.702 16.786c.287.516.974.688 1.49.401.516-.286.688-.974.401-1.49-.286-.515-.974-.687-1.49-.4-.515.286-.687.974-.4 1.49Z"/><path fill="#DF6E44" d="M26.24 27.156c-.287-.515-.974-.687-1.49-.4-.516.286-.688.973-.401 1.489.286.515.974.687 1.49.4.572-.286.744-.916.4-1.489Z"/><path fill="#F0BB4C" d="M24.349 15.698c-.287.515-.115 1.203.401 1.49.516.286 1.203.114 1.49-.402.286-.515.114-1.203-.401-1.49-.516-.286-1.204-.114-1.49.402Z"/><path fill="#E8A03C" d="M18.753 28.816a1.088 1.088 0 1 0-.151-2.172 1.088 1.088 0 0 0 .151 2.172Z"/><path fill="#F0BB4C" d="M17.287 18.908a1.089 1.089 0 1 0-2.146-.368 1.089 1.089 0 0 0 2.146.368Z"/><path fill="#DF6E44" d="M27.214 26.24c.516.286 1.203.114 1.49-.401.286-.516.114-1.204-.401-1.49-.516-.287-1.203-.115-1.49.401a1.017 1.017 0 0 0 .401 1.49Z"/><path fill="#E8A03C" d="M28.302 19.651c.515-.286.744-.974.4-1.49-.286-.515-.973-.744-1.49-.4-.515.286-.744.974-.4 1.49.286.515.974.744 1.49.4ZM16.722 26.24a1.088 1.088 0 1 0-1.034-1.916 1.088 1.088 0 0 0 1.034 1.916Z"/><path fill="#154B77" d="M51.734 31.912v-3.094c1.776.745 3.839 1.318 6.245 1.318 2.922 0 4.182-1.203 4.182-3.209 0-1.833-.802-2.52-3.208-3.265l-2.062-.573c-3.094-.86-4.985-2.521-4.985-6.245s2.407-6.245 7.39-6.245c2.865 0 4.47.573 5.673 1.203v3.094c-1.375-.573-3.151-1.089-5.615-1.089-2.291 0-3.61.974-3.61 2.75 0 1.72.631 2.464 2.808 3.094l2.063.63c3.437.974 5.557 2.407 5.557 6.36 0 4.182-2.521 6.76-7.85 6.76-2.921-.057-5.098-.687-6.588-1.49ZM69.61 28.532V16.558h3.666v11.286c0 1.776.63 2.52 2.693 2.52 1.432 0 2.635-.515 3.666-.973V16.558h3.667v16.5h-3.208l-.344-1.433h-.115c-1.375.974-2.979 1.72-5.041 1.72-3.209 0-4.985-1.548-4.985-4.813ZM87.656 16.844h3.552v1.49h.115c1.432-1.032 3.437-1.776 5.385-1.776 3.151 0 4.813 1.26 4.813 4.526v12.203h-3.724V22c0-1.661-.573-2.349-2.807-2.349-1.26 0-2.693.401-3.724.917v12.833h-3.61V16.844ZM131.656 10.771h3.724v3.38h-3.724v-3.38Zm0 6.073h3.724v16.5h-3.724v-16.5ZM139.791 16.844h3.552v1.49h.115c1.432-1.032 3.437-1.776 5.385-1.776 3.151 0 4.813 1.26 4.813 4.526v12.203h-3.724V22c0-1.661-.573-2.349-2.808-2.349-1.26 0-2.692.401-3.724.917v12.833h-3.609V16.844ZM157.037 28.646c0-3.037 2.005-4.469 5.271-4.927l3.896-.458V22c0-2.235-.974-2.75-3.781-2.75-1.605 0-3.037.228-4.011.457v-2.52c1.547-.63 3.323-.917 5.443-.917 3.781 0 6.015 1.49 6.015 4.87V33h-3.036l-.286-1.318h-.172c-.802.916-2.12 1.604-4.24 1.604-3.036.057-5.099-1.433-5.099-4.641Zm9.167 1.088v-4.067l-3.037.344c-1.604.114-2.521.802-2.521 2.463 0 1.547 1.032 2.292 2.579 2.292 1.203 0 2.349-.458 2.979-1.031ZM174.166 16.844h3.552v1.49h.115c1.432-1.032 3.437-1.776 5.385-1.776 3.151 0 4.813 1.26 4.813 4.526v12.203h-3.724V22c0-1.661-.516-2.349-2.808-2.349-1.26 0-2.692.401-3.724.917v12.833h-3.609V16.844ZM191.354 25.151v-.515c0-5.672 3.437-8.365 8.02-8.365 2.177 0 3.495.401 4.526.974v2.864c-1.375-.572-2.349-.916-4.296-.916-2.75 0-4.469 1.719-4.469 5.041v.745c0 3.782 1.547 5.386 4.698 5.386 2.005 0 3.38-.63 4.239-1.031v2.75c-1.031.687-2.578 1.26-4.87 1.26-4.812 0-7.848-2.75-7.848-8.193ZM206.422 25.037v-.459c0-5.557 3.38-8.25 7.562-8.25 4.87 0 6.99 2.693 6.99 7.964v1.546h-10.771c.229 3.438 2.005 4.641 5.099 4.641 2.12 0 3.667-.458 5.099-1.203v2.578c-1.146.745-3.036 1.547-5.844 1.547-5.5-.057-8.135-3.151-8.135-8.365Zm3.724-1.72h6.989c0-3.093-1.145-4.239-3.322-4.239-1.605-.057-3.381.86-3.667 4.24ZM122.49 13.807c2.406 0 4.24.516 5.615 1.089v-3.094c-1.203-.63-2.807-1.203-5.672-1.203-4.927 0-7.333 2.521-7.333 6.188v16.5H118.881V24.12h7.161v-3.724h-7.161V16.5c.057-1.719 1.318-2.693 3.609-2.693Z"/></g><defs><clipPath id="a"><path fill="#fff" d="M0 0h220.917v44H0z"/></clipPath></defs></svg>