<svg xmlns="http://www.w3.org/2000/svg" viewBox="1.6 1.3 105.6 23.6"><g fill="#2E50B6"><path d="M95.5 24.9c-3.1 0-6-1.2-8.2-3.4-2.2-2.2-3.4-5.1-3.4-8.3 0-3.2 1.2-6.1 3.4-8.3 2.2-2.2 5.1-3.4 8.2-3.4 3.1 0 6.1 1.2 8.3 3.4 2.2 2.2 3.4 5.2 3.4 8.3 0 3.1-1.2 6.1-3.4 8.3-2.2 2.2-5.1 3.4-8.3 3.4zm0-17.9c-1.6 0-3.1.6-4.3 1.8-1.1 1.2-1.7 2.7-1.7 4.4 0 3.4 2.6 6.2 6 6.2 1.6 0 3.1-.6 4.3-1.8 1.1-1.2 1.8-2.7 1.8-4.4 0-1.7-.6-3.2-1.8-4.4C98.7 7.6 97.2 7 95.5 7zM54.7 24.8c-.2 0-.3-.1-.3-.3V1.9c0-.2.2-.3.3-.3h4.9c.1 0 .3.1.3.2V24.5c0 .2-.2.3-.3.3h-4.9zM41 24.8c-.1 0-.3-.1-.3-.2l-3.1-10.8v-.1c-.1-.2-.3-.4-.5-.4-.3 0-.5.2-.5.4l-3.1 10.7v.1c-.1.1-.2.2-.3.2h-4.4c-.2 0-.3-.1-.3-.3L22.1 1.7v-.1c0-.2.2-.3.3-.3h5.1c.1 0 .2.1.3.2l2.8 11c0 .3.3.5.5.5s.4-.2.5-.4l3.1-11.1c0-.1.2-.2.3-.2h4.2c.1 0 .3.1.3.2l3.1 11.1c0 .3.3.5.5.5s.5-.2.5-.4l2.8-11v-.1c0-.1.2-.2.3-.2h5c.1 0 .3.1.3.2V1.9l-6.4 22.6v.1c-.1.1-.2.2-.3.2H41zM77.2 24.7c-.1 0-.2-.1-.3-.1l-7-10.6c-.1-.2-.3-.3-.5-.3-.3 0-.5.2-.6.5v10.1c0 .2-.2.3-.3.3h-4.8c-.2 0-.3-.1-.3-.3V1.7c0-.2.2-.3.3-.3h4.4c.1 0 .2 0 .3.1v.1L75 11.7c.1.2.3.3.5.3.3 0 .6-.2.6-.6V1.9c0-.2.2-.3.3-.3h4.8c.1 0 .3.1.3.2v22.8c0 .2-.2.3-.3.3l-4-.2zM8.5 24.8c-.2 0-.3-.1-.3-.3V7.2c0-.3-.2-.5-.5-.5H1.9c-.2 0-.3-.2-.3-.3V1.8c0-.2.2-.3.3-.3H20c.2 0 .3.2.3.3v4.6c0 .2-.2.3-.3.3h-5.8c-.3 0-.5.2-.5.5v17.3c0 .2-.2.4-.3.4H8.5z"/></g></svg>