<svg xmlns="http://www.w3.org/2000/svg" viewBox="0 0 108.8 26.2" >
<g>
	<path fill="#2E50B6" d="M95.5,24.9c-3.1,0-6-1.2-8.2-3.4c-2.2-2.2-3.4-5.1-3.4-8.3c0-3.2,1.2-6.1,3.4-8.3c2.2-2.2,5.1-3.4,8.2-3.4
		c3.1,0,6.1,1.2,8.3,3.4c2.2,2.2,3.4,5.2,3.4,8.3c0,3.1-1.2,6.1-3.4,8.3C101.6,23.7,98.7,24.9,95.5,24.9z M95.5,7
		c-1.6,0-3.1,0.6-4.3,1.8c-1.1,1.2-1.7,2.7-1.7,4.4c0,3.4,2.6,6.2,6,6.2c1.6,0,3.1-0.6,4.3-1.8c1.1-1.2,1.8-2.7,1.8-4.4
		c0-1.7-0.6-3.2-1.8-4.4C98.7,7.6,97.2,7,95.5,7z"/>
	<path fill="#2E50B6" d="M54.7,24.8c-0.2,0-0.3-0.1-0.3-0.3l0-22.6c0-0.2,0.2-0.3,0.3-0.3h4.9c0.1,0,0.3,0.1,0.3,0.2c0,0,0,0,0,0
		c0,0,0,0.1,0,0.1v22.6c0,0.2-0.2,0.3-0.3,0.3H54.7z"/>
	<path fill="#2E50B6" d="M41,24.8c-0.1,0-0.3-0.1-0.3-0.2c0,0,0,0,0,0c0,0,0,0,0,0l-3.1-10.8c0,0,0,0,0-0.1c-0.1-0.2-0.3-0.4-0.5-0.4
		c-0.3,0-0.5,0.2-0.5,0.4l-3.1,10.7c0,0,0,0,0,0c0,0,0,0.1,0,0.1c-0.1,0.1-0.2,0.2-0.3,0.2h-4.4c-0.2,0-0.3-0.1-0.3-0.3
		c0,0-6.4-22.7-6.4-22.7c0,0,0,0,0-0.1l0,0c0-0.2,0.2-0.3,0.3-0.3l0,0c0,0,0,0,0,0h5.1c0,0,0,0,0,0c0,0,0,0,0,0l0,0c0,0,0,0,0,0
		c0.1,0,0.2,0.1,0.3,0.2c0,0,0,0,0,0l2.8,11c0,0.3,0.3,0.5,0.5,0.5c0.2,0,0.4-0.2,0.5-0.4c0,0,0,0,0,0c0,0,0,0,0,0l3.1-11.1
		c0,0,0,0,0,0c0-0.1,0.2-0.2,0.3-0.2h4.2c0.1,0,0.3,0.1,0.3,0.2c0,0,0,0,0,0l3.1,11.1c0,0.3,0.3,0.5,0.5,0.5c0.2,0,0.5-0.2,0.5-0.4
		c0,0,0,0,0,0l2.8-11c0,0,0,0,0-0.1c0-0.1,0.2-0.2,0.3-0.2c0,0,0,0,0,0c0,0,0,0,0,0h5c0.1,0,0.3,0.1,0.3,0.2c0,0,0,0,0,0.1
		c0,0,0,0,0,0.1c0,0,0,0.1,0,0.1l-6.4,22.6c0,0,0,0,0,0c0,0,0,0.1,0,0.1c-0.1,0.1-0.2,0.2-0.3,0.2H41z"/>
	<path fill="#2E50B6" d="M77.2,24.7c-0.1,0-0.2-0.1-0.3-0.1c0,0,0,0,0,0l-7-10.6c-0.1-0.2-0.3-0.3-0.5-0.3c-0.3,0-0.5,0.2-0.6,0.5
		c0,0,0,0,0,0c0,0,0,0,0,0l0,10.1c0,0,0,0,0,0c0,0.2-0.2,0.3-0.3,0.3h-4.8c-0.2,0-0.3-0.1-0.3-0.3l0-22.6c0-0.2,0.2-0.3,0.3-0.3h4.4
		c0.1,0,0.2,0,0.3,0.1c0,0,0,0,0,0.1l6.6,10.1c0.1,0.2,0.3,0.3,0.5,0.3c0.3,0,0.6-0.2,0.6-0.6c0,0,0,0,0,0V1.9c0,0,0,0,0,0
		c0-0.2,0.2-0.3,0.3-0.3h4.8c0.1,0,0.3,0.1,0.3,0.2c0,0,0,0,0,0.1c0,0,0,0,0,0.1v22.6c0,0.2-0.2,0.3-0.3,0.3l0,0L77.2,24.7z"/>
	<path fill="#2E50B6" d="M8.5,24.8c-0.2,0-0.3-0.1-0.3-0.3c0,0,0,0,0,0l0-17l0-0.3c0-0.3-0.2-0.5-0.5-0.5l-1.4,0H1.9
		c-0.2,0-0.3-0.2-0.3-0.3V1.8c0,0,0,0,0,0c0-0.2,0.2-0.3,0.3-0.3H20c0.2,0,0.3,0.2,0.3,0.3v4.6c0,0.2-0.2,0.3-0.3,0.3l-5.8,0
		c-0.3,0-0.5,0.2-0.5,0.5v17.3c0,0.2-0.2,0.4-0.3,0.4H8.5z"/>
</g>
</svg>
